<?xml version="1.0" encoding="UTF-8" standalone="no"?>
<!-- Created with Inkscape (http://www.inkscape.org/) -->

<svg
   xmlns:dc="http://purl.org/dc/elements/1.1/"
   xmlns:cc="http://creativecommons.org/ns#"
   xmlns:rdf="http://www.w3.org/1999/02/22-rdf-syntax-ns#"
   xmlns:svg="http://www.w3.org/2000/svg"
   xmlns="http://www.w3.org/2000/svg"
   xmlns:sodipodi="http://sodipodi.sourceforge.net/DTD/sodipodi-0.dtd"
   xmlns:inkscape="http://www.inkscape.org/namespaces/inkscape"
   width="64"
   height="64"
   viewBox="0 0 16.933333 16.933334"
   version="1.1"
   id="svg8"
   inkscape:version="0.92.4 (5da689c313, 2019-01-14)"
   sodipodi:docname="adn.svg">
  <defs
     id="defs2" />
  <sodipodi:namedview
     id="base"
     pagecolor="#ffffff"
     bordercolor="#666666"
     borderopacity="1.0"
     inkscape:pageopacity="0.0"
     inkscape:pageshadow="2"
     inkscape:zoom="12.954196"
     inkscape:cx="39.179455"
     inkscape:cy="38.665066"
     inkscape:document-units="mm"
     inkscape:current-layer="layer1"
     showgrid="true"
     units="px"
     showguides="true"
     inkscape:guide-bbox="true"
     inkscape:window-width="2560"
     inkscape:window-height="1377"
     inkscape:window-x="-8"
     inkscape:window-y="-8"
     inkscape:window-maximized="1"
     inkscape:snap-global="false">
    <inkscape:grid
       type="xygrid"
       id="grid828" />
    <sodipodi:guide
       position="0,6.6145836"
       orientation="1,0"
       id="guide4533"
       inkscape:locked="false" />
    <sodipodi:guide
       position="15.875,0"
       orientation="0,1"
       id="guide4535"
       inkscape:locked="false" />
  </sodipodi:namedview>
  <metadata
     id="metadata5">
    <rdf:RDF>
      <cc:Work
         rdf:about="">
        <dc:format>image/svg+xml</dc:format>
        <dc:type
           rdf:resource="http://purl.org/dc/dcmitype/StillImage" />
        <dc:title></dc:title>
      </cc:Work>
    </rdf:RDF>
  </metadata>
  <g
     inkscape:label="Calque 1"
     inkscape:groupmode="layer"
     id="layer1"
     transform="translate(0,-280.06665)">
    <ellipse
       style="fill:none;fill-opacity:0.73728811;stroke:#000000;stroke-width:0.35;stroke-miterlimit:4;stroke-dasharray:none;stroke-opacity:1"
       id="path4539"
       cx="8.4666662"
       cy="288.53333"
       rx="8.2020826"
       ry="8.2020922" />
    <path
       style="fill:#000000;stroke-width:0.03203076"
       d="m 3.7479767,293.68397 c -0.010508,-0.21581 -0.055656,-0.63021 -0.1003416,-0.92088 -0.1698827,-1.10512 -0.1801838,-1.48275 -0.052619,-1.92883 0.1228032,-0.42942 0.2247537,-0.57328 0.841495,-1.18744 0.3147192,-0.3134 0.658277,-0.62544 0.7634615,-0.69342 0.1153669,-0.0746 0.2495662,-0.2012 0.3382392,-0.31916 0.1387717,-0.18461 0.7144904,-0.74598 1.1023106,-1.07484 0.211471,-0.17933 0.5486252,-0.34994 0.8322129,-0.42114 0.3667298,-0.0921 0.9951155,-0.0486 1.8511368,0.12812 0.3924018,0.081 0.8158989,0.15678 0.9411049,0.16842 l 0.227647,0.0211 -0.02323,-0.28526 c -0.01277,-0.1569 -0.05709,-0.49426 -0.09848,-0.74971 -0.245087,-1.51242 -0.163159,-2.11787 0.371554,-2.74576 0.233424,-0.27411 1.008861,-0.98437 1.224892,-1.12195 0.159624,-0.10166 0.171957,-0.10411 0.525292,-0.10411 h 0.361831 v 0.25626 0.25624 h -0.145031 -0.14503 l 0.01885,0.21621 c 0.01037,0.11891 0.05367,0.45403 0.09621,0.74471 0.205441,1.40346 0.191112,1.80853 -0.08385,2.37024 -0.122546,0.25035 -0.179094,0.31787 -0.701625,0.83761 -0.333691,0.33191 -0.652778,0.6188 -0.772866,0.69485 -0.136939,0.0868 -0.251321,0.19404 -0.346118,0.32472 -0.134991,0.1861 -0.8177126,0.85157 -1.1236277,1.09526 -0.2120144,0.16888 -0.4690157,0.30268 -0.7046766,0.36689 -0.4276621,0.11651 -1.2874068,0.0563 -2.1140309,-0.1481 -0.2411977,-0.0596 -0.6099381,-0.11831 -0.8488153,-0.13506 l -0.1281231,-0.009 0.010961,0.22409 c 0.00603,0.12325 0.04599,0.46193 0.088802,0.7526 0.1348021,0.91523 0.1482836,1.06344 0.1325671,1.4574 -0.027758,0.69582 -0.2113532,1.06572 -0.8267023,1.6656 -0.331561,0.32323 -0.3572116,0.33519 -0.2012483,0.0939 l 0.053195,-0.0823 -0.3014335,-0.30289 -0.3014327,-0.30288 -0.019841,0.39322 c -0.013146,0.26054 -0.043321,0.47154 -0.089441,0.62542 l -0.069601,0.23222 H 4.0493361 3.7670747 Z m 1.5310873,-0.68866 c 0.030254,-0.11892 0.060574,-0.23512 0.067377,-0.25824 0.011795,-0.0401 -0.9609322,-1.09506 -1.0096823,-1.09506 -0.012874,0 0.00429,0.17657 0.038165,0.39238 l 0.061571,0.39237 0.3733141,0.38866 c 0.205323,0.21376 0.3825243,0.39033 0.3937805,0.39238 0.011256,0.002 0.04522,-0.0936 0.075475,-0.21249 z m 0.063701,-1.15721 -0.02148,-0.20428 -0.5141441,-0.54043 c -0.2827795,-0.29724 -0.528105,-0.54043 -0.5451674,-0.54043 -0.018801,0 -0.026193,0.13049 -0.018765,0.33122 l 0.012261,0.3312 0.5439031,0.56747 0.5439032,0.56746 0.010483,-0.15396 c 0.00576,-0.0847 8.076e-4,-0.24588 -0.010997,-0.35825 z m -0.1556716,-1.07463 -0.047484,-0.34071 -0.3104426,-0.32728 c -0.1707434,-0.18 -0.3207345,-0.33128 -0.333314,-0.3362 -0.024923,-0.01 -0.1038863,0.16259 -0.1621518,0.35383 l -0.03677,0.12068 0.459111,0.48396 c 0.2849528,0.30037 0.4627952,0.46546 0.4688228,0.43519 0.00534,-0.0268 -0.011656,-0.20209 -0.037771,-0.38947 z m -0.060358,-0.95524 c 0.00714,-0.1101 0.025198,-0.25592 0.040134,-0.32406 l 0.027157,-0.1239 -0.1106824,0.018 c -0.060875,0.01 -0.1922233,0.0553 -0.2918838,0.10093 l -0.1812009,0.0829 0.2366535,0.23825 c 0.1301596,0.13103 0.243447,0.23145 0.2517493,0.22315 0.0083,-0.008 0.020935,-0.10518 0.028073,-0.21527 z m 3.7869107,-0.8488 c -5.811e-4,-0.0132 -0.2420157,-0.27373 -0.5365153,-0.57892 l -0.5354536,-0.5549 -0.3179303,-0.0294 c -0.1748612,-0.0162 -0.3245206,-0.0227 -0.3325773,-0.0147 -0.019389,0.0194 0.1139605,0.17013 0.6050902,0.68402 l 0.4080799,0.42698 0.2350691,0.0426 c 0.2692577,0.0488 0.475786,0.0594 0.4742373,0.0243 z m 0.6433616,-0.0266 c 0.1223917,-0.0279 0.2225308,-0.0605 0.2225308,-0.0724 0,-0.012 -0.1693631,-0.19835 -0.3763616,-0.41411 l -0.3763612,-0.39228 -0.3203077,-0.0648 c -0.1761692,-0.0356 -0.346355,-0.0703 -0.3781902,-0.0773 -0.031834,-0.006 -0.053457,6e-4 -0.048046,0.0167 0.021118,0.0627 0.9732026,1.05436 1.0124822,1.05458 0.022952,1.2e-4 0.1418623,-0.0226 0.2642539,-0.0504 z M 7.340961,288.31082 c -0.5100878,-0.53566 -0.5000801,-0.53056 -0.8114565,-0.41406 l -0.1774834,0.0664 0.3250754,0.34788 0.3250756,0.34789 0.2275679,0.0369 c 0.1251623,0.0203 0.2708095,0.0488 0.3236603,0.0632 0.2728895,0.075 0.2600463,0.048 -0.2124393,-0.44826 z m 2.836461,0.34246 c 0.04446,-0.0583 0.11579,-0.19883 0.158509,-0.31231 l 0.07767,-0.20632 H 9.9221146 9.4306286 l 0.085704,0.0961 c 0.2366564,0.26534 0.5060344,0.5285 0.5409854,0.5285 0.0216,0 0.07564,-0.0477 0.120104,-0.10597 z m -3.5476634,-0.0663 c 0.00289,-0.002 -0.1015714,-0.11522 -0.2321321,-0.25136 l -0.2373828,-0.2475 -0.091573,0.18344 c -0.050364,0.1009 -0.1013796,0.22408 -0.1133662,0.27375 l -0.021793,0.0903 0.3454983,-0.0224 c 0.1900241,-0.0123 0.3478611,-0.0241 0.3507486,-0.0263 z m 4.7214814,-1.22455 c 0.231239,-0.0685 0.404861,-0.15939 0.443821,-0.23219 0.02663,-0.0497 -0.01524,-0.10922 -0.259304,-0.36825 -0.160086,-0.1699 -0.300568,-0.30891 -0.312183,-0.30891 -0.01162,0 -0.02057,0.13334 -0.01989,0.29629 6.78e-4,0.16295 -0.0097,0.37916 -0.02308,0.48046 -0.01336,0.10129 -0.01958,0.18417 -0.01382,0.18417 0.0058,0 0.08877,-0.0232 0.184458,-0.0515 z m 0.638001,-0.64509 c 0.01904,-0.066 0.04316,-0.18695 0.05358,-0.26863 l 0.01896,-0.1485 -0.490024,-0.51613 c -0.269514,-0.28388 -0.503094,-0.51613 -0.519068,-0.51613 -0.01598,0 -0.02105,0.0396 -0.01129,0.088 0.0098,0.0485 0.04052,0.22341 0.06837,0.38881 l 0.05061,0.30072 0.374607,0.39545 c 0.206033,0.2175 0.384739,0.39568 0.397125,0.39595 0.01239,2.5e-4 0.0381,-0.0536 0.05714,-0.11962 z m 0.09334,-0.9289 c -0.0086,-0.50089 0.01085,-0.46352 -0.555331,-1.06619 -0.280749,-0.29884 -0.523457,-0.54335 -0.539349,-0.54335 -0.01619,0 -0.02323,0.15152 -0.01603,0.34433 l 0.01287,0.34433 0.517409,0.52851 c 0.284574,0.29068 0.517887,0.53931 0.518474,0.55253 5.81e-4,0.0132 0.01548,0.024 0.03309,0.024 0.01801,0 0.03064,-0.0807 0.02886,-0.18418 z m -0.143647,-1.2 c -0.02248,-0.12835 -0.04981,-0.30079 -0.06075,-0.38318 -0.01782,-0.13425 -0.05212,-0.18464 -0.330567,-0.48552 -0.170879,-0.18465 -0.319724,-0.33705 -0.330767,-0.33867 -0.03222,-0.005 -0.163908,0.32392 -0.168193,0.41977 -0.0032,0.0708 0.08167,0.17854 0.444518,0.5645 0.246637,0.26237 0.457024,0.4724 0.467526,0.46675 0.0105,-0.005 7.02e-4,-0.11528 -0.02177,-0.24365 z m -0.0964,-1.10621 c 0.01122,-0.1013 0.02886,-0.25413 0.03917,-0.33963 l 0.01877,-0.15545 -0.10756,0.0223 c -0.05916,0.0122 -0.185529,0.0572 -0.280825,0.1 l -0.173263,0.0777 0.22131,0.23569 c 0.12172,0.12964 0.230459,0.23749 0.241644,0.23967 0.01119,0.002 0.02952,-0.0789 0.04073,-0.18021 z"
       id="path828"
       inkscape:connector-curvature="0"
       sodipodi:nodetypes="cccccccsscccsscsccccccscsccccccccsscscccccccccccscccccccssccccsccscccccscsscccccscscscscsccccsccccccccccccccccsccccsccccscccccccscssccccsscccsccccsscccsccssccsccscccscscs" />
  </g>
</svg>
