<?xml version="1.0" encoding="UTF-8" standalone="no"?>
<!-- Created with Inkscape (http://www.inkscape.org/) -->

<svg
   xmlns:dc="http://purl.org/dc/elements/1.1/"
   xmlns:cc="http://creativecommons.org/ns#"
   xmlns:rdf="http://www.w3.org/1999/02/22-rdf-syntax-ns#"
   xmlns:svg="http://www.w3.org/2000/svg"
   xmlns="http://www.w3.org/2000/svg"
   xmlns:sodipodi="http://sodipodi.sourceforge.net/DTD/sodipodi-0.dtd"
   xmlns:inkscape="http://www.inkscape.org/namespaces/inkscape"
   width="64"
   height="64"
   viewBox="0 0 16.933333 16.933334"
   version="1.1"
   id="svg8"
   inkscape:version="0.92.4 (5da689c313, 2019-01-14)"
   sodipodi:docname="arbre.svg">
  <defs
     id="defs2" />
  <sodipodi:namedview
     id="base"
     pagecolor="#ffffff"
     bordercolor="#666666"
     borderopacity="1.0"
     inkscape:pageopacity="0.0"
     inkscape:pageshadow="2"
     inkscape:zoom="11.313708"
     inkscape:cx="52.904712"
     inkscape:cy="16.578201"
     inkscape:document-units="mm"
     inkscape:current-layer="layer1"
     showgrid="true"
     units="px"
     showguides="true"
     inkscape:guide-bbox="true"
     inkscape:window-width="2560"
     inkscape:window-height="1377"
     inkscape:window-x="-8"
     inkscape:window-y="-8"
     inkscape:window-maximized="1"
     inkscape:snap-global="false">
    <inkscape:grid
       type="xygrid"
       id="grid828" />
    <sodipodi:guide
       position="0,6.6145836"
       orientation="1,0"
       id="guide4533"
       inkscape:locked="false" />
    <sodipodi:guide
       position="15.875,0"
       orientation="0,1"
       id="guide4535"
       inkscape:locked="false" />
  </sodipodi:namedview>
  <metadata
     id="metadata5">
    <rdf:RDF>
      <cc:Work
         rdf:about="">
        <dc:format>image/svg+xml</dc:format>
        <dc:type
           rdf:resource="http://purl.org/dc/dcmitype/StillImage" />
        <dc:title></dc:title>
      </cc:Work>
    </rdf:RDF>
  </metadata>
  <g
     inkscape:label="Calque 1"
     inkscape:groupmode="layer"
     id="layer1"
     transform="translate(0,-280.06665)">
    <ellipse
       style="fill:none;fill-opacity:0.73728811;stroke:#000000;stroke-width:0.35;stroke-miterlimit:4;stroke-dasharray:none;stroke-opacity:1"
       id="path4539"
       cx="8.4666662"
       cy="288.53333"
       rx="8.2020826"
       ry="8.2020922" />
    <path
       style="fill:#000000;stroke-width:0.03449842"
       d="m 7.3291827,294.91288 c 0.075891,-0.0365 0.2016687,-0.13174 0.2794927,-0.21161 l 0.1414998,-0.1453 0.1337319,0.14112 c 0.379248,0.40024 1.0144209,0.41047 1.4022665,0.0226 l 0.1654995,-0.16551 0.1383663,0.15012 c 0.180177,0.19547 0.4269586,0.30277 0.6647006,0.28904 0.16444,-0.01 0.179301,-0.0174 0.179301,-0.0948 0,-0.0762 -0.02051,-0.0882 -0.208593,-0.12224 -0.3523236,-0.0638 -0.5631096,-0.24007 -0.6535536,-0.54674 -0.067477,-0.22879 -0.2294424,-0.20867 -0.2749943,0.0342 -0.036179,0.19281 -0.3054653,0.44237 -0.5290987,0.49034 -0.4062129,0.0872 -0.7691859,-0.12637 -0.8849588,-0.52042 -0.035134,-0.11948 -0.060474,-0.14965 -0.1334431,-0.15839 -0.074124,-0.009 -0.094207,0.006 -0.1133724,0.0862 -0.085027,0.35424 -0.3277996,0.56793 -0.7015131,0.61752 -0.1825622,0.0242 -0.2345807,0.0705 -0.1950513,0.17349 0.029262,0.0763 0.4004564,0.0514 0.5897157,-0.0396 z m -3.6992766,0.0985 c -0.112963,-0.21702 -0.286054,-0.47026 -0.3300276,-0.5735 -0.3066622,-0.7086 -0.8616268,-1.54108 -0.7501689,-2.29283 0.1072216,-0.62346 0.4400558,-0.99698 1.2276349,-1.37766 l 0.3426319,-0.16563 -1.0431505,-0.01 c -0.6559083,-0.005 -1.0431506,-0.0218 -1.0431506,-0.0431 0,-0.0188 0.077626,-0.0341 0.1724919,-0.0341 0.094875,0 0.172492,-0.005 0.172492,-0.0138 0,-0.0637 -0.1661429,-0.52672 -0.2454483,-0.68399 -0.054742,-0.10861 -0.09954,-0.20558 -0.09954,-0.2156 0,-0.0527 0.091222,-0.004 0.1905123,0.10095 l 0.1124082,0.11921 0.024306,-0.19458 c 0.0465,-0.37216 0.1523706,-0.47452 0.1591829,-0.1539 0.00194,0.0891 0.014674,0.20065 0.028411,0.24809 0.023778,0.082 0.026116,0.0829 0.048676,0.0149 0.013079,-0.0392 0.071097,-0.14619 0.1290377,-0.23756 0.1300978,-0.20514 0.1885008,-0.17193 0.1167587,0.0665 -0.064062,0.21286 -0.1178189,0.68905 -0.094552,0.83766 l 0.017551,0.11219 h 0.2554799 0.255481 l -0.021709,-0.0948 c -0.039723,-0.17359 -0.1749419,-0.44145 -0.2876216,-0.56979 -0.1346961,-0.1534 -0.1143086,-0.22124 0.042622,-0.14179 0.060592,0.0307 0.1373249,0.0796 0.1705354,0.10876 0.095683,0.0838 0.073747,-10e-4 -0.077626,-0.30275 -0.1546084,-0.3075 -0.1555015,-0.31048 -0.093011,-0.31048 0.053277,0 0.2067788,0.1574 0.3868943,0.39674 0.144259,0.19166 0.1412703,0.16252 -0.027667,-0.26987 -0.057996,-0.14843 -0.1726374,-0.38778 -0.2547688,-0.53191 -0.082129,-0.14411 -0.1422605,-0.26911 -0.133622,-0.27775 0.062725,-0.0628 0.4265314,0.35173 0.6447498,0.73453 l 0.1376632,0.24149 -0.022345,-0.20023 c -0.020018,-0.17934 -0.1119966,-0.56223 -0.1735995,-0.7226 -0.015234,-0.0396 -0.00679,-0.0604 0.024791,-0.0604 0.061314,0 0.2856952,0.34697 0.3625561,0.5606 0.032419,0.0902 0.067531,0.16374 0.078014,0.1636 0.010451,-1.3e-4 0.052814,-0.0584 0.094078,-0.12939 0.113965,-0.19616 0.4585201,-0.59484 0.5140756,-0.59484 0.061982,0 0.062219,0.035 7.951e-4,0.12266 -0.087796,0.1254 -0.3347196,0.63591 -0.4017029,0.83059 l -0.065828,0.19135 0.219842,-0.23595 c 0.1209163,-0.12981 0.2311719,-0.22493 0.2450217,-0.21146 0.013844,0.0138 -0.037946,0.15317 -0.115121,0.31048 -0.1552732,0.31655 -0.2681759,0.6337 -0.3029033,0.85087 -0.029833,0.18658 -0.020287,0.1861 0.6255669,-0.0317 0.2839014,-0.0957 1.098344,-0.34305 1.8098735,-0.54961 1.4597484,-0.42373 1.781729,-0.53078 2.2284721,-0.74081 0.5386183,-0.25325 0.7012632,-0.46247 0.6342418,-0.81587 -0.077098,-0.40657 -0.388509,-0.74242 -0.9480514,-1.02242 -0.3349416,-0.16761 -0.3379065,-0.16767 -0.5433245,-0.0124 -0.1008327,0.0762 -0.2721115,0.17906 -0.3806088,0.22873 -0.228974,0.10472 -0.2190222,0.0555 -0.1632835,0.80973 0.019695,0.26647 0.019544,0.47781 -3.879e-4,0.55318 -0.039971,0.15114 -0.2234491,0.33379 -0.380585,0.37886 -0.1580873,0.0453 -0.5685214,0.0427 -0.7393024,-0.004 -0.1710235,-0.0475 -0.352503,-0.23455 -0.3824619,-0.39426 -0.01239,-0.0661 0.00237,-0.36251 0.032666,-0.65851 0.030382,-0.29598 0.046759,-0.55186 0.036405,-0.56861 -0.010343,-0.0168 -0.038721,-0.0304 -0.063027,-0.0304 -0.024306,0 -0.135948,-0.045 -0.2480782,-0.1 -0.1774824,-0.0871 -0.2418391,-0.0997 -0.4971121,-0.0985 -0.5159362,0.003 -0.9616139,-0.18065 -1.326273,-0.54529 -0.3621467,-0.36216 -0.5366415,-0.7878 -0.5366415,-1.30903 0,-0.52813 0.1762478,-0.9523 0.5519749,-1.32842 0.2240579,-0.2243 0.5590716,-0.42379 0.7888396,-0.46974 0.091222,-0.0183 0.1133595,-0.0433 0.1441944,-0.16391 0.099292,-0.38793 0.2522811,-0.64883 0.542357,-0.92489 0.3810375,-0.36264 0.7679512,-0.52014 1.2844821,-0.52291 0.6463756,-0.004 1.1857482,0.26331 1.5535221,0.76835 0.1480665,0.20332 0.1570368,0.20939 0.3099343,0.20939 0.5786951,0 1.1999302,0.40023 1.4649048,0.94376 0.3588,0.736 0.156999,1.59022 -0.4952916,2.09655 l -0.1165389,0.0905 0.2372889,0.0779 c 0.4344626,0.14277 1.0945806,0.41487 1.5482296,0.63814 1.086862,0.53496 1.732365,1.12466 1.802804,1.64697 0.01308,0.0971 0.03352,0.1294 0.0819,0.1294 0.0838,0 0.08049,-0.0433 -0.02245,-0.29323 -0.105013,-0.25494 -0.105013,-0.25453 6.53e-4,-0.15524 l 0.08624,0.081 5.31e-4,-0.10096 c 8.96e-4,-0.1692 0.05613,-0.21194 0.08373,-0.0648 l 0.02423,0.12912 0.06836,-0.11247 c 0.08754,-0.14395 0.110688,-0.11893 0.06668,0.072 -0.01918,0.0832 -0.03523,0.21716 -0.03569,0.29779 l -8.36e-4,0.14662 h 0.137994 c 0.0759,0 0.137994,-0.009 0.137994,-0.0183 0,-0.0476 -0.112272,-0.27913 -0.162096,-0.3342 -0.07157,-0.079 -0.03856,-0.11343 0.05891,-0.0613 0.06921,0.0371 0.07328,0.0338 0.05111,-0.0403 -0.01322,-0.0443 -0.04701,-0.11687 -0.07502,-0.1612 -0.08793,-0.13921 -0.01225,-0.13092 0.113607,0.0124 0.103364,0.11783 0.117061,0.12498 0.09693,0.051 -0.01294,-0.0475 -0.06887,-0.17679 -0.124371,-0.28745 -0.05552,-0.11068 -0.09495,-0.21912 -0.08766,-0.24099 0.01142,-0.0342 0.23738,0.24782 0.357627,0.44632 0.04039,0.0666 0.03734,0.0398 -0.03843,-0.3405 -0.0374,-0.18761 0.0053,-0.15904 0.117792,0.0789 l 0.09846,0.20821 0.07015,-0.11329 c 0.07335,-0.11852 0.281972,-0.33402 0.281972,-0.29129 0,0.0138 -0.04455,0.11357 -0.099,0.22207 -0.05444,0.1086 -0.10971,0.23618 -0.122816,0.28363 -0.02141,0.0775 -0.01349,0.074 0.0791,-0.0343 0.05661,-0.0664 0.11117,-0.11219 0.121261,-0.10213 0.01002,0.01 -0.01824,0.0953 -0.06296,0.18951 -0.04472,0.0942 -0.105294,0.25267 -0.134586,0.35228 l -0.05326,0.18112 h 0.136128 c 0.07487,0 0.136141,0.0155 0.136141,0.0346 0,0.0219 -0.252175,0.0346 -0.687524,0.0346 h -0.687522 l -0.03846,0.18525 c -0.05117,0.2465 -0.230103,0.61069 -0.429926,0.87509 -0.288627,0.38188 -0.857757,0.8059 -1.5768,1.17478 -0.220889,0.11328 -0.420846,0.21244 -0.444352,0.22027 -0.02804,0.01 0.0093,0.0931 0.108376,0.2432 0.08312,0.12595 0.159692,0.23003 0.170174,0.23136 0.01045,0.001 0.04559,-0.0713 0.07801,-0.16145 0.07687,-0.21364 0.301244,-0.5606 0.362554,-0.5606 0.03153,0 0.04002,0.0207 0.02479,0.0604 -0.06161,0.16037 -0.153585,0.54325 -0.173597,0.7226 l -0.02234,0.20023 0.137663,-0.24149 c 0.21822,-0.3828 0.582021,-0.79725 0.64475,-0.73453 0.0086,0.009 -0.05149,0.13366 -0.133621,0.27775 -0.08214,0.14413 -0.196778,0.38348 -0.25477,0.53191 -0.168944,0.43239 -0.171932,0.46153 -0.02767,0.26986 0.180116,-0.23933 0.333621,-0.39673 0.386894,-0.39673 0.06248,0 0.06161,0.003 -0.09301,0.31048 -0.15136,0.30103 -0.173307,0.38664 -0.07762,0.30274 0.0332,-0.0291 0.109945,-0.078 0.170535,-0.10875 0.156918,-0.0794 0.177308,-0.011 0.04262,0.1418 -0.112685,0.12829 -0.247895,0.39619 -0.287622,0.56977 l -0.02171,0.0948 h 0.25548 0.25548 l 0.01755,-0.11218 c 0.02326,-0.14861 -0.0305,-0.62481 -0.09457,-0.83766 -0.07173,-0.23837 -0.01335,-0.27159 0.116772,-0.0665 0.05794,0.0914 0.116016,0.19826 0.129038,0.23756 0.02256,0.068 0.0249,0.0673 0.04868,-0.0149 0.01377,-0.0475 0.02653,-0.15907 0.02841,-0.24808 0.0068,-0.32062 0.112684,-0.21827 0.159183,0.1539 l 0.02431,0.19457 0.123491,-0.12788 c 0.156877,-0.16236 0.187603,-0.0891 0.0646,0.15402 -0.06768,0.1338 -0.230161,0.59494 -0.230161,0.65326 0,0.006 0.06986,0.0138 0.155244,0.0138 0.08538,0 0.155242,0.0155 0.155242,0.0346 0,0.0224 -0.465729,0.0346 -1.328188,0.0346 -0.862461,0 -1.32819,-0.0124 -1.32819,-0.0346 0,-0.0199 0.110716,-0.0346 0.263146,-0.0346 h 0.263149 l -0.02276,-0.14238 c -0.03474,-0.21717 -0.147629,-0.53432 -0.302901,-0.85087 -0.07717,-0.15731 -0.12897,-0.29703 -0.115121,-0.31049 0.01384,-0.0138 0.12411,0.0818 0.24502,0.21148 l 0.219843,0.23593 -0.06394,-0.18418 c -0.07481,-0.21554 -0.242599,-0.5754 -0.278662,-0.59768 -0.04158,-0.0257 -1.1095405,0.52204 -1.2913766,0.66231 -0.3876366,0.29901 -0.4677414,0.50862 -0.3142589,0.82234 0.251514,0.51407 1.3729695,1.04302 3.5868985,1.6918 0.342423,0.10031 0.627319,0.18341 0.633104,0.18456 0.0058,10e-4 0.576395,0.17075 0.702517,0.14924 0.266591,0.3673 -4.5682016,4.02234 -10.0010906,0.20899 z m 0.1790802,-1.85412 c 0.08075,-0.0473 0.1731211,-0.12623 0.2052747,-0.17525 l 0.058459,-0.0892 0.16716,0.15029 c 0.3456626,0.31078 0.7675946,0.30518 1.0936703,-0.0144 l 0.1432699,-0.14047 0.059989,0.0916 c 0.1349299,0.2059 0.6307168,0.37586 0.7338853,0.25154 0.065096,-0.0784 -0.037536,-0.16282 -0.198068,-0.16282 -0.1899877,0 -0.3471182,-0.11976 -0.464045,-0.35361 -0.1251978,-0.2504 -0.1915692,-0.25692 -0.2732998,-0.0268 -0.1037956,0.29222 -0.3810559,0.43117 -0.7298279,0.36574 -0.1585904,-0.0297 -0.3482333,-0.21833 -0.4028396,-0.40061 -0.032882,-0.10971 -0.0568,-0.13774 -0.1109085,-0.12967 -0.041652,0.005 -0.082032,0.0512 -0.1019532,0.11371 -0.077475,0.24313 -0.2967104,0.43122 -0.5026154,0.43122 -0.056315,0 -0.1269453,0.01 -0.156957,0.0209 -0.056703,0.0218 -0.073715,0.12044 -0.028702,0.16653 0.047728,0.0489 0.3591796,-0.011 0.5074928,-0.0986 z m 7.0097627,-0.28723 c -0.0093,-0.0332 -0.0272,-0.13752 -0.04007,-0.23178 -0.0128,-0.0943 -0.05953,-0.24177 -0.103666,-0.32774 -0.0887,-0.17272 -0.283113,-0.43824 -0.240752,-0.32881 0.130208,0.33639 0.197863,0.53649 0.245496,0.72612 0.03652,0.14536 0.07322,0.22259 0.105788,0.22259 0.03085,0 0.04352,-0.023 0.03321,-0.0605 z m 0.253514,-0.055 c 0,-0.32011 -0.30646,-1.11676 -0.532962,-1.38544 -0.08615,-0.10214 -0.08593,-0.10052 0.01568,0.12816 0.133869,0.30134 0.259873,0.73978 0.313737,1.09166 0.0396,0.25867 0.04932,0.28083 0.12327,0.28083 0.06802,0 0.08028,-0.0176 0.08028,-0.11522 z m 0.270031,-0.0832 c 0.02329,-0.10916 0.09526,-0.3381 0.159917,-0.50885 0.111418,-0.29426 0.11311,-0.30508 0.03241,-0.207 -0.131213,0.15943 -0.317069,0.56805 -0.341297,0.75035 -0.01922,0.14459 -0.01423,0.16386 0.04243,0.16386 0.05026,0 0.07341,-0.0431 0.106553,-0.19836 z m 0.160184,0.0709 c 0.01321,-0.07 0.06525,-0.20594 0.115753,-0.30186 0.130333,-0.24748 0.130924,-0.25498 0.01115,-0.14267 -0.150579,0.14121 -0.300744,0.57198 -0.199391,0.57198 0.02867,0 0.05835,-0.0521 0.07248,-0.12746 z m 0.881615,0.067 c 4.89e-4,-0.0332 0.03789,-0.16897 0.08312,-0.30174 0.07139,-0.20958 0.07381,-0.23099 0.0183,-0.16247 -0.06088,0.0752 -0.205809,0.42121 -0.205809,0.4914 0,0.0183 0.02329,0.0332 0.05175,0.0332 0.02847,0 0.05215,-0.0271 0.05264,-0.0604 z m -0.155318,-0.44243 c -0.05253,-0.22596 -0.106144,-0.29802 -0.07507,-0.10095 0.01198,0.0759 0.02296,0.23892 0.02444,0.36224 l 0.0028,0.22425 0.0461,-0.14762 c 0.03792,-0.12141 0.03826,-0.18137 0.0018,-0.33795 z m -1.000877,-0.23706 c 0.04842,-0.18634 0.141999,-0.45562 0.207966,-0.5984 0.06597,-0.14277 0.115065,-0.26446 0.109105,-0.27042 -0.02424,-0.0242 -0.307906,0.44661 -0.401348,0.66618 -0.0914,0.21479 -0.09691,0.24984 -0.06272,0.39918 0.02061,0.0901 0.0423,0.15891 0.04822,0.153 0.0059,-0.005 0.05037,-0.16322 0.09878,-0.34954 z m 1.151223,0.10819 c -0.0039,-0.13655 -0.0055,-0.13885 -0.03042,-0.0412 -0.03895,0.15308 -0.03895,0.23107 0,0.20699 0.01897,-0.0124 0.03267,-0.0863 0.03042,-0.1659 z m -1.377891,-0.57581 c 0.02183,-0.14231 0.048,-0.29756 0.05816,-0.34499 0.02833,-0.1323 -0.04174,-0.0198 -0.125858,0.20206 -0.06008,0.15846 -0.06406,0.20136 -0.02805,0.301 0.02311,0.0639 0.04516,0.11274 0.04903,0.10847 0.0039,-0.004 0.02488,-0.12417 0.04671,-0.2665 z m -5.1259907,-0.0719 c 0.073133,-0.0203 0.201046,-0.0997 0.2842365,-0.17634 l 0.1512566,-0.13944 0.095672,0.10246 c 0.2929719,0.31363 0.7541984,0.32551 1.0652855,0.0274 l 0.1482507,-0.14204 0.073596,0.0996 c 0.1368013,0.18502 0.5739395,0.33135 0.6782544,0.22702 0.056013,-0.056 0.014405,-0.1338 -0.071722,-0.13393 -0.2624603,-6.1e-4 -0.5072989,-0.17702 -0.5792608,-0.41721 -0.032311,-0.1078 -0.056304,-0.1356 -0.110262,-0.12761 -0.04149,0.005 -0.082312,0.0515 -0.1024704,0.1137 -0.092117,0.28465 -0.3549669,0.45664 -0.6339543,0.41479 -0.2002552,-0.0301 -0.4095345,-0.21327 -0.4607342,-0.40341 -0.049021,-0.18202 -0.1575981,-0.17384 -0.2228081,0.0168 -0.024769,0.0724 -0.073683,0.16386 -0.1086922,0.20323 -0.081537,0.0917 -0.3126935,0.1981 -0.4324753,0.19908 -0.1030629,8.2e-4 -0.1474836,0.0471 -0.1183004,0.1232 0.022701,0.0591 0.1589071,0.0641 0.3441112,0.0124 z M 2.55115,290.48211 c 0,-0.0702 -0.1449215,-0.4162 -0.2058112,-0.49138 -0.055507,-0.0685 -0.053083,-0.0471 0.018305,0.16245 0.045218,0.13283 0.082625,0.26856 0.08312,0.30176 4.891e-4,0.0332 0.024177,0.0605 0.052641,0.0605 0.028465,0 0.051747,-0.015 0.051747,-0.0332 z m 0.877973,-0.0616 c -0.045606,-0.21316 -0.126119,-0.3819 -0.2276563,-0.47712 -0.1197732,-0.11232 -0.1191817,-0.10472 0.011151,0.14265 0.050519,0.0959 0.1026104,0.23176 0.1157685,0.30187 0.014125,0.0753 0.043807,0.12746 0.072476,0.12746 0.034907,0 0.042848,-0.0267 0.02826,-0.0948 z m 0.2084239,-0.069 c -0.02423,-0.18229 -0.2100895,-0.59091 -0.3412981,-0.75034 -0.080718,-0.0981 -0.079026,-0.0873 0.032386,0.20699 0.064654,0.17076 0.1366224,0.39975 0.1599166,0.50885 0.033151,0.15527 0.056304,0.19837 0.1065537,0.19837 0.05666,0 0.061637,-0.0193 0.042427,-0.16387 z m 0.3245933,-0.11702 c 0.053869,-0.35185 0.1798731,-0.79031 0.3137385,-1.09164 0.1016192,-0.22874 0.1018132,-0.23038 0.015676,-0.12816 -0.2265014,0.26869 -0.5329611,1.06534 -0.5329611,1.38546 0,0.0976 0.01225,0.11522 0.080276,0.11522 0.073952,0 0.08367,-0.0222 0.1232693,-0.28085 z m 0.188963,0.0582 c 0.047631,-0.18962 0.115287,-0.38973 0.2454957,-0.72611 0.042352,-0.10943 -0.1520495,0.15607 -0.240752,0.32881 -0.044141,0.0861 -0.090791,0.23345 -0.1036662,0.32772 -0.012799,0.0943 -0.030899,0.1986 -0.040068,0.2318 -0.010343,0.0373 0.00237,0.0604 0.033205,0.0604 0.03257,0 0.069287,-0.0772 0.1057887,-0.2226 z M 2.6646399,290.124 c 0.010558,-0.18674 0.010871,-0.33106 5.107e-4,-0.3207 -0.010343,0.011 -0.038506,0.10332 -0.062521,0.20679 -0.032731,0.14082 -0.034304,0.22317 -0.00614,0.32825 0.020589,0.0772 0.040014,0.13683 0.043182,0.13269 0.00312,-0.004 0.014437,-0.16033 0.025082,-0.34707 z m 6.2811373,0.004 c 0.077637,-0.0233 0.1995387,-0.10063 0.2708844,-0.172 l 0.1297121,-0.12968 0.051919,0.0793 c 0.066022,0.10073 0.2732237,0.21733 0.4420217,0.24868 0.1885156,0.0349 0.4238786,-0.0417 0.5783426,-0.18872 l 0.13062,-0.1243 0.136858,0.1276 c 0.209283,0.19523 0.575855,0.2688 0.575855,0.11563 0,-0.0555 -0.03115,-0.073 -0.16297,-0.0919 -0.253388,-0.0362 -0.374329,-0.1433 -0.474752,-0.42021 -0.04725,-0.13035 -0.101523,-0.10407 -0.206489,0.0996 -0.10719,0.20803 -0.272747,0.32581 -0.4579926,0.32581 -0.255677,0 -0.4510647,-0.14549 -0.5327942,-0.39674 -0.048364,-0.14867 -0.1441748,-0.13518 -0.2003379,0.0282 -0.079005,0.22981 -0.265561,0.36857 -0.4955003,0.36857 -0.1088431,0 -0.1613367,0.0712 -0.0987,0.1338 0.049958,0.05 0.1379616,0.049 0.3133097,-0.004 z m -5.2576415,-0.55312 c -0.094131,-0.22121 -0.3778938,-0.69265 -0.402246,-0.6683 -0.00593,0.005 0.041997,0.12582 0.1065752,0.26643 0.1018778,0.22178 0.1856145,0.48278 0.2812015,0.87654 0.024651,0.10159 0.025976,0.1003 0.070343,-0.0668 0.043042,-0.1621 0.040359,-0.18173 -0.055873,-0.40786 z m -1.2017453,0.29986 -0.031794,-0.13573 -0.00345,0.14088 c -0.00194,0.0775 0.00786,0.15217 0.021699,0.166 0.041738,0.0417 0.047233,-0.0277 0.013629,-0.1712 z m 1.4270141,-0.66767 c -0.029596,-0.0868 -0.077421,-0.19678 -0.1062735,-0.24421 l -0.05248,-0.0863 0.018779,0.0904 c 0.010343,0.0498 0.036674,0.21078 0.058535,0.35777 l 0.039756,0.26729 0.04775,-0.11356 c 0.041339,-0.0983 0.040521,-0.13477 -0.00603,-0.27153 z m 3.0725053,-0.90831 c -0.012659,-0.21345 -0.037676,-0.58054 -0.055518,-0.81572 -0.045843,-0.60422 -0.041016,-0.88783 0.016958,-0.99716 0.027172,-0.0512 0.3062109,-0.34874 0.620083,-0.6611 l 0.5706773,-0.56796 -0.074124,-0.0789 c -0.040779,-0.0433 -0.091061,-0.0789 -0.1117758,-0.0789 -0.020707,0 -0.223698,0.18738 -0.4510904,0.41638 -0.2273934,0.22901 -0.4553633,0.43858 -0.5065996,0.46573 -0.1196493,0.0633 -0.3838991,0.0635 -0.503654,7e-5 -0.05123,-0.0272 -0.232553,-0.1901 -0.4029247,-0.36224 -0.1703705,-0.17213 -0.3217327,-0.31294 -0.3363583,-0.31294 -0.079307,0 0.01532,0.11741 0.4051043,0.5027 0.2374325,0.23468 0.4470114,0.46699 0.4657278,0.51622 0.051111,0.13449 0.040865,0.35729 -0.063814,1.38838 -0.052555,0.51762 -0.08826,0.94843 -0.079339,0.95733 0.00894,0.009 0.1317494,0.0163 0.2729605,0.0163 h 0.2567598 l -0.023067,-0.38811 z m 3.9622522,0.26741 0.127014,-0.0862 0.104916,0.0777 c 0.155557,0.11508 0.374806,0.10655 0.506349,-0.0194 0.08522,-0.0817 0.104614,-0.0882 0.122527,-0.0416 0.02195,0.0572 0.220935,0.15583 0.314371,0.15583 0.02907,0 0.05286,-0.0233 0.05286,-0.0517 0,-0.0308 -0.03173,-0.0517 -0.07857,-0.0517 -0.103644,0 -0.228545,-0.0902 -0.267737,-0.19322 -0.03515,-0.0926 -0.102169,-0.11178 -0.102169,-0.0294 0,0.0293 -0.03811,0.0914 -0.08467,0.138 -0.149711,0.14972 -0.427732,0.0897 -0.503118,-0.10848 -0.03043,-0.0799 -0.102169,-0.11577 -0.102169,-0.051 0,0.0724 -0.182738,0.24413 -0.259768,0.24413 -0.08397,0 -0.134365,0.0428 -0.09578,0.0815 0.04388,0.0439 0.141439,0.0204 0.265946,-0.0641 z m 2.278398,0.009 c -0.03782,-0.12361 -0.09297,-0.19835 -0.07,-0.0948 0.01056,0.0475 0.01937,0.10569 0.01962,0.12939 2.86e-4,0.0237 0.01705,0.0431 0.03729,0.0431 0.02221,0 0.02741,-0.0308 0.01308,-0.0777 z m 0.465574,-0.0329 c -0.01743,-0.0608 -0.05684,-0.13449 -0.08759,-0.16387 -0.05152,-0.0492 -0.05156,-0.0447 -4.07e-4,0.057 0.03052,0.0607 0.05551,0.13449 0.05551,0.16387 0,0.0294 0.01444,0.0534 0.03208,0.0534 0.01969,0 0.01987,-0.0427 4.09e-4,-0.11054 z m 0.121274,-10e-4 c -0.02521,-0.11688 -0.150357,-0.38643 -0.169682,-0.36559 -0.006,0.006 0.02195,0.11673 0.06233,0.24484 0.07497,0.2378 0.151099,0.32342 0.107362,0.12072 z m 0.173983,-0.0172 c 0.01129,-0.0712 0.05693,-0.24579 0.101597,-0.38811 0.04466,-0.14231 0.07521,-0.26498 0.06791,-0.27261 -0.02598,-0.0272 -0.184517,0.36221 -0.233945,0.57448 -0.04209,0.18075 -0.04259,0.2156 -0.003,0.2156 0.02784,0 0.05548,-0.053 0.06752,-0.12939 z m 0.204369,-0.35012 c -0.02804,-0.0288 -0.151064,0.29442 -0.149703,0.39325 10e-4,0.0778 0.02148,0.0436 0.08228,-0.138 0.04446,-0.13285 0.0748,-0.24768 0.06742,-0.25525 z m -0.881079,0.2035 -0.0029,-0.0863 -0.02762,0.0863 c -0.0152,0.0475 -0.02894,0.10957 -0.03053,0.138 -0.0026,0.046 7.96e-4,0.046 0.03053,0 0.01839,-0.0285 0.03213,-0.0906 0.03053,-0.138 z m 0.488618,-0.32957 c -0.123766,-0.2514 -0.179002,-0.28629 -0.07381,-0.0466 0.03668,0.0835 0.07809,0.21381 0.09202,0.28944 0.02321,0.12595 0.02821,0.13105 0.05949,0.061 0.02719,-0.0609 0.01129,-0.12293 -0.0777,-0.30377 z m 0.153988,-0.12582 c -0.04104,-0.0882 -0.04904,-0.0944 -0.03575,-0.0276 0.0095,0.0475 0.01783,0.12513 0.01866,0.17249 0.0012,0.0738 0.0065,0.0777 0.03575,0.0276 0.02415,-0.0415 0.01864,-0.0922 -0.01867,-0.17249 z m -7.803943,-1.16479 0.01893,-0.22302 -0.460092,-0.46771 c -0.3798481,-0.38614 -0.4644091,-0.49071 -0.4848417,-0.59964 -0.052695,-0.28089 0.1229396,-0.56436 0.4013463,-0.64777 0.2380898,-0.0713 0.379525,-6.2e-4 0.7742615,0.38762 l 0.3462207,0.34043 0.4293175,-0.43035 c 0.2361246,-0.2367 0.4785423,-0.45371 0.5387036,-0.48226 0.1289278,-0.0611 0.3655674,-0.0679 0.4720833,-0.0138 0.110276,0.0565 0.3322276,0.27479 0.3886827,0.38232 0.066733,0.12706 0.062402,0.40597 -0.00797,0.51151 -0.031277,0.047 -0.3086005,0.34145 -0.6162788,0.65453 -0.5468583,0.55645 -0.5590576,0.57207 -0.543374,0.69612 l 0.016053,0.12692 0.1667377,-0.10257 c 0.2231787,-0.13739 0.5227388,-0.46656 0.636999,-0.70009 0.051111,-0.1045 0.1108255,-0.20448 0.1327126,-0.22226 0.021893,-0.0178 0.1456618,-0.0486 0.2750625,-0.0685 0.429506,-0.0661 0.7258866,-0.26927 0.9228425,-0.63252 0.111198,-0.20511 0.118315,-0.23797 0.118163,-0.54599 -1.37e-4,-0.29298 -0.01056,-0.34783 -0.09869,-0.51746 -0.2280192,-0.43917 -0.613557,-0.66639 -1.1235676,-0.66222 -0.1600255,10e-4 -0.3176387,-0.0124 -0.350249,-0.0293 -0.032613,-0.0174 -0.093097,-0.10159 -0.1344063,-0.18689 -0.1270833,-0.26251 -0.3576691,-0.48662 -0.6484873,-0.63029 -0.2513901,-0.12416 -0.2782806,-0.12995 -0.609642,-0.12981 -0.3180901,7e-5 -0.3658152,0.01 -0.5791983,0.11012 -0.4327457,0.20484 -0.755265,0.63902 -0.8056824,1.08466 -0.027096,0.23949 -0.1032999,0.32264 -0.3246967,0.35427 -0.3467195,0.0496 -0.7572786,0.33559 -0.9474774,0.66015 -0.2192053,0.37404 -0.2408102,0.84944 -0.056509,1.24331 0.1433432,0.30632 0.3427882,0.50819 0.6538688,0.66183 0.2541676,0.12555 0.2710945,0.12885 0.6592148,0.13146 0.3806713,0.003 0.4067591,0.006 0.5879025,0.11054 0.1042588,0.0595 0.1993544,0.0971 0.2113318,0.0837 0.01198,-0.0138 0.030296,-0.12472 0.040704,-0.24735 z"
       id="path5848"
       inkscape:connector-curvature="0"
       sodipodi:nodetypes="ccccccccscccccccccccccccccssscscccccccccccccccccsccccccccscccscccccccccccscccccccccscccsccccccsccccccsccccccccccsscccccccccccccsccccsccsssccccccccsccccccccsccccccccccccccccccssssssccccccccccccccccccccccsccccccscccccccccsccccccsccccccscccccscccccsscccccccccccccccccccccccccccccccccccccccccccccccccccccsccccscsccccccscccccsscccccccscccccccccccccccccscccsccscccccccccccccccccccccccccccccccsccccsccccsccccccccssscsccssccccccscccccsscccccccccccsccccccccccccccccccccccccccccccccccccccccccccccccccccccccccccccccc" />
  </g>
</svg>
