<?xml version="1.0" encoding="UTF-8" standalone="no"?>
<!-- Created with Inkscape (http://www.inkscape.org/) -->

<svg
   xmlns:dc="http://purl.org/dc/elements/1.1/"
   xmlns:cc="http://creativecommons.org/ns#"
   xmlns:rdf="http://www.w3.org/1999/02/22-rdf-syntax-ns#"
   xmlns:svg="http://www.w3.org/2000/svg"
   xmlns="http://www.w3.org/2000/svg"
   xmlns:sodipodi="http://sodipodi.sourceforge.net/DTD/sodipodi-0.dtd"
   xmlns:inkscape="http://www.inkscape.org/namespaces/inkscape"
   width="64"
   height="64"
   viewBox="0 0 16.933333 16.933334"
   version="1.1"
   id="svg8"
   inkscape:version="0.92.4 (5da689c313, 2019-01-14)"
   sodipodi:docname="bdd.svg">
  <defs
     id="defs2" />
  <sodipodi:namedview
     id="base"
     pagecolor="#ffffff"
     bordercolor="#666666"
     borderopacity="1.0"
     inkscape:pageopacity="0.0"
     inkscape:pageshadow="2"
     inkscape:zoom="4"
     inkscape:cx="-29.672544"
     inkscape:cy="28.689539"
     inkscape:document-units="mm"
     inkscape:current-layer="layer1"
     showgrid="true"
     units="px"
     showguides="true"
     inkscape:guide-bbox="true"
     inkscape:window-width="1920"
     inkscape:window-height="1017"
     inkscape:window-x="862"
     inkscape:window-y="2152"
     inkscape:window-maximized="1"
     inkscape:snap-global="true">
    <inkscape:grid
       type="xygrid"
       id="grid828" />
    <sodipodi:guide
       position="0,6.6145836"
       orientation="1,0"
       id="guide4533"
       inkscape:locked="false" />
    <sodipodi:guide
       position="15.875,0"
       orientation="0,1"
       id="guide4535"
       inkscape:locked="false" />
  </sodipodi:namedview>
  <metadata
     id="metadata5">
    <rdf:RDF>
      <cc:Work
         rdf:about="">
        <dc:format>image/svg+xml</dc:format>
        <dc:type
           rdf:resource="http://purl.org/dc/dcmitype/StillImage" />
        <dc:title></dc:title>
      </cc:Work>
    </rdf:RDF>
  </metadata>
  <g
     inkscape:label="Calque 1"
     inkscape:groupmode="layer"
     id="layer1"
     transform="translate(0,-280.06665)">
    <g
       id="g1753"
       transform="matrix(0.0142891,0,0,0.01787247,-20.646981,277.66445)"
       inkscape:export-xdpi="479.06857"
       inkscape:export-ydpi="479.06857">
      <path
         id="path1751"
         d="m 2355.5781,580.13267 c 8.2828,-8.59896 12.4242,-8.19225 12.4242,1.27822 v 64.72459 c 0,31.89748 -30.7419,61.06422 -92.2256,87.3259 -61.5635,26.37788 -134.2768,39.50872 -218.2196,39.50872 -82.7483,0 -155.2227,-13.13084 -217.2639,-39.45062 -62.1209,-26.31978 -93.1017,-55.42842 -93.1017,-87.3259 V 581.469 c 0,-3.42797 1.1946,-5.63581 3.5839,-6.44922 2.3892,-0.81342 5.336,0.87151 8.8402,5.17099 18.9549,22.42701 55.9089,40.96125 110.862,55.66082 54.9531,14.64147 117.3926,22.0203 187.1591,22.0203 69.7666,0 132.1264,-7.32073 187.1591,-22.0203 54.8735,-14.69957 91.8275,-33.29191 110.7823,-55.71892 v 0 m 1.7522,-129.99001 c 4.6988,-6.91403 8.2827,-6.91403 10.672,0 v 75.06657 c 0,29.34104 -30.1844,53.91779 -90.4735,73.78835 -60.2892,19.87056 -133.6396,29.74775 -219.9717,29.74775 -85.1375,0 -158.1694,-9.93529 -219.0957,-29.74775 -60.9263,-19.87056 -91.3496,-44.44731 -91.3496,-73.78835 v -75.06657 c 0,-8.59896 4.1414,-8.59896 12.4242,0 17.7602,19.87056 54.3956,36.02266 109.9859,48.51439 55.5902,12.49172 118.2686,18.76664 188.0352,18.76664 69.7665,0 132.4449,-6.27492 188.0352,-18.76664 55.5902,-12.49173 92.8628,-28.70193 111.738,-48.51439 v 0 M 2055.9889,267.64329 c 85.1375,0 158.1694,8.42466 219.0957,25.21586 60.9263,16.84931 91.3496,36.89418 91.3496,60.1927 v 41.42606 c 0,25.04156 -30.4233,46.36465 -91.3496,64.08547 -60.9263,17.66273 -133.9582,26.49409 -219.0957,26.49409 -85.1375,0 -158.1694,-8.83136 -219.0956,-26.55219 -60.9263,-17.66272 -91.3496,-39.04391 -91.3496,-64.08547 v -41.36796 c 0,-23.29852 30.4233,-43.34339 91.3496,-60.1927 60.9262,-16.7912 133.9581,-25.21586 219.0956,-25.21586 v 0"
         inkscape:connector-curvature="0"
         sodipodi:nodetypes="csscscsssccscccccssscsscsssccccsscscssccc"
         style="stroke-width:0.6802423" />
    </g>
    <ellipse
       style="fill:none;fill-opacity:0.73728811;stroke:#000000;stroke-width:0.34999999;stroke-miterlimit:4;stroke-dasharray:none;stroke-opacity:1"
       id="path4539-8"
       cx="8.6410456"
       cy="288.58755"
       rx="8.2020826"
       ry="8.2020922"
       inkscape:export-xdpi="479.06857"
       inkscape:export-ydpi="479.06857" />
    <path
       style="fill:#ffffff;fill-opacity:1;stroke:#000000;stroke-width:0.16409478;stroke-miterlimit:4;stroke-dasharray:none;stroke-opacity:1"
       d="m 4.9508605,294.61022 c -0.0053,-0.021 0.0031,-0.0482 0.02968,-0.0957 0.06188,-0.11054 0.07756,-0.15524 0.05736,-0.16365 -0.0098,-0.005 -0.02611,0.003 -0.03572,0.0134 -0.0097,0.011 -0.02152,0.0193 -0.02637,0.0175 -0.0049,-0.002 -0.03915,0.007 -0.07631,0.0192 -0.05607,0.0186 -0.106783,0.0259 -0.147883,0.0204 -0.04613,-0.005 -0.175182,-0.0378 -0.247373,-0.0613 -0.109681,-0.0357 -0.427565,-0.12175 -0.458169,-0.12218 -0.0133,-8.2e-4 -0.05907,-0.0631 -0.118916,-0.1622 -0.104422,-0.1727 -0.278279,-0.42463 -0.344462,-0.49898 -0.039,-0.0438 -0.115048,-0.0801 -0.198088,-0.0928 -0.04898,-0.009 -0.216252,0.16501 -0.228993,0.23753 -0.0064,0.0363 -0.02381,0.0472 -0.0704,0.0441 -0.05396,-0.003 -0.106982,-0.21691 -0.07435,-0.29865 0.0085,-0.0213 0.0099,-0.0378 0.0031,-0.0371 -0.0215,0.003 0.0016,-0.036 0.03445,-0.0575 0.01746,-0.012 0.03589,-0.0273 0.04117,-0.0352 0.01975,-0.0295 0.07023,-0.0742 0.09731,-0.0866 0.02305,-0.0104 0.02917,-0.0226 0.03514,-0.0701 0.0039,-0.0315 0.02668,-0.11586 0.05054,-0.18742 0.09308,-0.27972 0.189926,-0.71618 0.212056,-0.95543 0.0335,-0.36235 0.0385,-0.62379 0.01547,-0.80823 -0.0015,-0.015 -0.0067,-0.0686 -0.0108,-0.12107 -0.0067,-0.084 -0.02896,-0.21023 -0.07911,-0.4484 -0.02751,-0.13093 -0.09336,-0.33451 -0.146435,-0.45314 -0.02862,-0.0644 -0.04967,-0.12376 -0.04657,-0.1324 0.0032,-0.009 -7.94e-4,-0.017 -0.0085,-0.0187 -0.0079,-0.002 -0.03957,-0.0564 -0.07086,-0.12118 -0.03122,-0.065 -0.07735,-0.14261 -0.102616,-0.17224 -0.02527,-0.0296 -0.04426,-0.0581 -0.04243,-0.0627 0.0025,-0.007 -0.02444,-0.0361 -0.05159,-0.0549 -0.07463,-0.0525 -0.166848,-0.13415 -0.162499,-0.14496 0.0066,-0.0166 -0.08794,-0.0913 -0.1374529,-0.10841 -0.02651,-0.01 -0.05551,-0.0284 -0.06417,-0.0408 -0.0085,-0.013 -0.03401,-0.0281 -0.05666,-0.0347 -0.04014,-0.0116 -0.04199,-0.0124 -0.0427,-0.10031 -0.0014,-0.1452 0.02013,-0.22772 0.1172141,-0.44985 0.04877,-0.11153 0.1291079,-0.29813 0.1785688,-0.41468 0.04951,-0.11667 0.0956,-0.21583 0.102547,-0.2207 0.0073,-0.006 0.0091,-0.0136 0.0049,-0.0191 -0.005,-0.004 -6.35e-4,-0.0316 0.0081,-0.0578 0.0087,-0.0261 0.0202,-0.074 0.0256,-0.10661 0.0054,-0.0326 0.02134,-0.11488 0.03541,-0.18272 0.01411,-0.0679 0.02749,-0.17014 0.02985,-0.22738 0.0046,-0.11179 0.01509,-0.1732 0.05847,-0.34237 0.01524,-0.0594 0.02792,-0.11756 0.0281,-0.12872 -7.8e-5,-0.011 0.06463,-0.20571 0.143134,-0.43221 0.07855,-0.22651 0.141889,-0.41663 0.140756,-0.42248 -6.88e-4,-0.008 0.0049,-0.0391 0.01335,-0.0738 0.0086,-0.0348 0.01479,-0.0674 0.01377,-0.0724 -9.79e-4,-0.006 0.009,-0.0392 0.02208,-0.0755 0.01307,-0.0363 0.02215,-0.0764 0.02023,-0.0885 -0.0019,-0.0122 -2.58e-4,-0.0784 0.0037,-0.14662 0.0078,-0.13494 -3.44e-4,-0.28936 -0.01554,-0.2957 -0.0052,-0.002 -0.0064,-0.0218 -0.0026,-0.0434 0.0038,-0.0216 -3.17e-4,-0.0423 -0.009,-0.0464 -0.0087,-0.003 -0.01763,-0.0313 -0.01972,-0.061 -0.0064,-0.0939 -0.0287,-0.21608 -0.05234,-0.28675 -0.01253,-0.0375 -0.01704,-0.0703 -0.0099,-0.0731 0.0074,-0.003 0.0041,-0.006 -0.007,-0.007 -0.0099,-0.004 -0.02114,-0.018 -0.02324,-0.0355 -0.0048,-0.0406 -0.05763,-0.13552 -0.141532,-0.25454 -0.03608,-0.051 -0.06252,-0.10056 -0.0588,-0.10989 0.0118,-0.0296 0.08476,-0.0247 0.150304,0.01 0.03355,0.0173 0.116421,0.0456 0.184627,0.0621 0.175793,0.0415 0.271357,0.0827 0.290742,0.12743 0.0086,0.0188 0.02093,0.0369 0.02749,0.0397 0.0066,0.003 0.01334,0.0148 0.01553,0.0255 0.0043,0.0242 0.10263,0.20502 0.17211,0.31604 0.04948,0.079 0.07979,0.13548 0.138387,0.25745 0.01728,0.0359 0.04058,0.0789 0.05196,0.0949 0.299096,0.43372 0.390798,0.57902 0.566815,0.89789 0.0092,0.0175 0.06334,0.11363 0.119945,0.21472 0.05658,0.10109 0.108728,0.19572 0.115864,0.21031 0.007,0.0149 0.02062,0.0393 0.03,0.0548 0.0092,0.016 0.03452,0.0587 0.05602,0.0952 0.02139,0.037 0.05842,0.0928 0.08231,0.12396 0.02388,0.0312 0.05937,0.0947 0.0789,0.1411 0.0196,0.0461 0.04376,0.0872 0.05367,0.0914 0.0098,0.005 0.02212,0.0246 0.0266,0.0464 0.0121,0.0553 0.08606,0.084 0.191454,0.0742 0.0442,-0.004 0.104504,-0.002 0.134112,0.006 0.04888,0.0114 0.0535,0.0159 0.05,0.0439 -0.0048,0.0382 -0.05601,0.11291 -0.0842,0.12268 -0.01622,0.006 -0.01666,0.003 -0.004,-0.005 0.01411,-0.0121 0.01289,-0.0121 -0.0056,-0.007 -0.03117,0.0115 -0.04545,0.003 -0.02852,-0.0137 0.01348,-0.0142 8.47e-4,-0.0635 -0.01812,-0.0714 -0.0048,-0.002 -0.04018,0.008 -0.07868,0.0238 l -0.06997,0.0273 -0.03375,0.10907 c -0.347538,1.12381 -0.40914,1.86662 -0.194842,2.34963 0.05663,0.12791 0.07316,0.15287 0.116925,0.17953 0.111888,0.0673 0.176018,0.0189 0.261776,-0.19896 0.07672,-0.19491 0.162416,-0.3229 0.302692,-0.45196 0.02894,-0.0266 0.07526,-0.0695 0.102828,-0.0952 0.0323,-0.0302 0.06308,-0.0461 0.08668,-0.045 0.04071,0.002 0.06193,0.0205 0.04115,0.0344 -0.0081,0.006 -0.0059,0.008 0.0036,0.006 0.0177,-0.003 0.06027,0.0779 0.05214,0.0982 -0.0025,0.007 0.0014,0.0254 0.0089,0.0422 0.0075,0.0166 0.01561,0.0486 0.01823,0.0706 0.0027,0.022 0.0098,0.0536 0.01593,0.0704 0.02037,0.0547 0.0388,0.20593 0.02949,0.24108 -0.003,0.0111 -0.0052,0.0287 -0.0053,0.0403 -2.13e-4,0.0127 -0.0022,0.0478 -0.0046,0.0798 -0.0052,0.0684 0.03968,0.16737 0.07665,0.16868 0.05973,0.002 0.176371,0.0369 0.243658,0.0725 0.119497,0.0634 0.12814,0.0687 0.124116,0.0788 -0.0063,0.0155 0.119005,0.0437 0.158241,0.035 0.01959,-0.004 0.05,-0.0239 0.0675,-0.0438 0.06776,-0.0768 0.220505,-0.18267 0.342765,-0.23742 0.02468,-0.0118 0.05042,-0.0289 0.05729,-0.0396 0.03415,-0.0535 0.05573,-0.0648 0.08793,-0.0475 0.01779,0.009 0.03448,0.0196 0.03573,0.0256 0.009,0.019 -0.07406,0.22165 -0.190828,0.46611 -0.150529,0.31494 -0.18237,0.40548 -0.174502,0.49632 0.009,0.10249 0.07089,0.13814 0.233847,0.13453 0.109299,-0.003 0.245291,-0.0484 0.356946,-0.11968 0.03198,-0.0204 0.08987,-0.0544 0.128815,-0.076 0.03892,-0.0214 0.07282,-0.0442 0.0755,-0.0509 0.0025,-0.007 0.02108,-0.022 0.04096,-0.0347 0.04431,-0.0274 0.1542,-0.11819 0.222968,-0.18413 0.02825,-0.0271 0.07031,-0.0665 0.09358,-0.0878 0.02326,-0.0213 0.139078,-0.13157 0.257343,-0.24519 0.240216,-0.23064 0.387408,-0.36026 0.434617,-0.38275 0.01731,-0.008 0.04126,-0.027 0.05309,-0.0413 0.02093,-0.0255 0.06468,-0.0519 0.154791,-0.0937 l 0.04378,-0.0204 -0.0073,-0.0725 c -0.008,-0.0785 -0.02325,-0.10068 -0.07479,-0.1089 -0.02677,-0.004 -0.03167,-0.009 -0.02426,-0.0272 0.01404,-0.0336 0.0736,-0.0579 0.118509,-0.0489 0.03461,0.008 0.04267,0.0179 0.0654,0.0846 0.02861,0.0852 0.07992,0.14398 0.134556,0.15371 0.01975,0.004 0.07057,0.003 0.112491,-8e-5 0.04195,-0.004 0.107115,-0.0101 0.144813,-0.0131 0.251486,-0.0219 0.9682675,-0.0165 1.2890855,0.01 0.08211,0.007 0.178709,0.0134 0.214564,0.0147 0.03584,10e-4 0.07116,0.004 0.07861,0.005 0.03088,0.009 0.08911,0.0171 0.200456,0.0316 0.06533,0.008 0.143795,0.0191 0.174429,0.0231 0.108514,0.015 0.15385,0.0203 0.182526,0.0212 0.03183,10e-4 0.279221,0.0398 0.504862,0.0788 0.509516,0.0882 0.525268,0.0929 0.601712,0.17789 0.04714,0.0525 0.09515,0.0943 0.157542,0.13722 0.04445,0.0303 0.09257,0.12764 0.0795,0.16038 -0.01074,0.0274 -0.04581,0.035 -0.112773,0.0248 -0.04365,-0.006 -0.237811,-0.006 -0.250541,0.002 -0.0046,0.002 -0.02409,0.003 -0.04216,0.001 -0.05672,-0.006 -0.31362,0.063 -0.442948,0.11908 -0.117977,0.051 -0.344483,0.19061 -0.355923,0.21926 -0.0032,0.008 -0.01986,0.0272 -0.03755,0.0443 -0.06375,0.0613 -0.140088,0.14443 -0.260134,0.28305 -0.197841,0.2285 -0.361665,0.35768 -0.891204,0.70271 -0.550786,0.35889 -0.6304555,0.43602 -1.0198405,0.98734 -0.119624,0.16937 -0.271007,0.34863 -0.341736,0.40463 -0.06735,0.0534 -0.137662,0.0828 -0.156237,0.0658 -0.008,-0.005 -0.01764,-0.008 -0.02327,-0.002 -0.0067,0.007 -0.03351,-0.007 -0.08866,-0.0476 -0.06278,-0.046 -0.09182,-0.0615 -0.142372,-0.0714 -0.04398,-0.008 -0.06598,-0.0188 -0.07192,-0.0307 -0.0077,-0.0183 -0.04412,-0.0235 -0.355431,-0.0566 -0.04774,-0.005 -0.120506,-0.003 -0.161636,0.004 -0.04124,0.008 -0.129296,0.0182 -0.195623,0.0236 -0.06646,0.006 -0.16046,0.0169 -0.209126,0.0255 -0.04855,0.008 -0.09955,0.0174 -0.113148,0.0194 -0.01394,0.003 -0.02872,0.006 -0.03354,0.007 -0.0043,7.9e-4 -0.06416,0.0181 -0.131887,0.0359 -0.464937,0.12266 -1.049257,0.32767 -1.423172,0.49937 -0.119432,0.0549 -0.232008,0.10631 -0.250122,0.11417 -0.09558,0.0419 -0.355218,0.20225 -0.410266,0.25337 -0.05857,0.0544 -0.108759,0.12053 -0.125102,0.16489 -0.0052,0.0142 -0.04841,0.19639 -0.05482,0.23102 -4.77e-4,0.003 -0.01792,0.0263 -0.03813,0.0504 -0.0444,0.0525 -0.124588,0.0841 -0.196601,0.0769 -0.02881,-0.003 -0.05476,-8.2e-4 -0.05694,0.005 -0.0087,0.0218 -0.05972,6e-4 -0.06688,-0.0282 z"
       id="path5776"
       inkscape:connector-curvature="0"
       inkscape:export-xdpi="479.06857"
       inkscape:export-ydpi="479.06857" />
  </g>
</svg>
