<?xml version="1.0" encoding="UTF-8" standalone="no"?>
<svg
   xmlns:dc="http://purl.org/dc/elements/1.1/"
   xmlns:cc="http://creativecommons.org/ns#"
   xmlns:rdf="http://www.w3.org/1999/02/22-rdf-syntax-ns#"
   xmlns:svg="http://www.w3.org/2000/svg"
   xmlns="http://www.w3.org/2000/svg"
   xmlns:sodipodi="http://sodipodi.sourceforge.net/DTD/sodipodi-0.dtd"
   xmlns:inkscape="http://www.inkscape.org/namespaces/inkscape"
   sodipodi:docname="bdd_basic.svg"
   inkscape:version="1.0 (4035a4fb49, 2020-05-01)"
   id="svg8"
   version="1.1"
   viewBox="0 0 16.933333 16.933334"
   height="64"
   width="64">
  <defs
     id="defs2" />
  <sodipodi:namedview
     inkscape:document-rotation="0"
     inkscape:snap-global="true"
     inkscape:window-maximized="1"
     inkscape:window-y="2152"
     inkscape:window-x="862"
     inkscape:window-height="1017"
     inkscape:window-width="1920"
     inkscape:guide-bbox="true"
     showguides="true"
     units="px"
     showgrid="true"
     inkscape:current-layer="layer1"
     inkscape:document-units="mm"
     inkscape:cy="28.689539"
     inkscape:cx="-29.672544"
     inkscape:zoom="4"
     inkscape:pageshadow="2"
     inkscape:pageopacity="0.0"
     borderopacity="1.0"
     bordercolor="#666666"
     pagecolor="#ffffff"
     id="base">
    <inkscape:grid
       id="grid828"
       type="xygrid" />
    <sodipodi:guide
       inkscape:locked="false"
       id="guide4533"
       orientation="1,0"
       position="0,6.6145836" />
    <sodipodi:guide
       inkscape:locked="false"
       id="guide4535"
       orientation="0,1"
       position="15.875,0" />
  </sodipodi:namedview>
  <metadata
     id="metadata5">
    <rdf:RDF>
      <cc:Work
         rdf:about="">
        <dc:format>image/svg+xml</dc:format>
        <dc:type
           rdf:resource="http://purl.org/dc/dcmitype/StillImage" />
        <dc:title></dc:title>
      </cc:Work>
    </rdf:RDF>
  </metadata>
  <g
     transform="translate(0,-280.06665)"
     id="layer1"
     inkscape:groupmode="layer"
     inkscape:label="Calque 1">
    <g
       inkscape:export-ydpi="479.06857"
       inkscape:export-xdpi="479.06857"
       transform="matrix(0.0142891,0,0,0.01787247,-20.74839,279.28839)"
       id="g1753">
      <path
         style="stroke-width:0.680242"
         sodipodi:nodetypes="csscscsssccscccccssscsscsssccccsscscssccc"
         inkscape:connector-curvature="0"
         d="m 2355.5781,580.13267 c 8.2828,-8.59896 12.4242,-8.19225 12.4242,1.27822 v 64.72459 c 0,31.89748 -30.7419,61.06422 -92.2256,87.3259 -61.5635,26.37788 -134.2768,39.50872 -218.2196,39.50872 -82.7483,0 -155.2227,-13.13084 -217.2639,-39.45062 -62.1209,-26.31978 -93.1017,-55.42842 -93.1017,-87.3259 V 581.469 c 0,-3.42797 1.1946,-5.63581 3.5839,-6.44922 2.3892,-0.81342 5.336,0.87151 8.8402,5.17099 18.9549,22.42701 55.9089,40.96125 110.862,55.66082 54.9531,14.64147 117.3926,22.0203 187.1591,22.0203 69.7666,0 132.1264,-7.32073 187.1591,-22.0203 54.8735,-14.69957 91.8275,-33.29191 110.7823,-55.71892 v 0 m 1.7522,-129.99001 c 4.6988,-6.91403 8.2827,-6.91403 10.672,0 v 75.06657 c 0,29.34104 -30.1844,53.91779 -90.4735,73.78835 -60.2892,19.87056 -133.6396,29.74775 -219.9717,29.74775 -85.1375,0 -158.1694,-9.93529 -219.0957,-29.74775 -60.9263,-19.87056 -91.3496,-44.44731 -91.3496,-73.78835 v -75.06657 c 0,-8.59896 4.1414,-8.59896 12.4242,0 17.7602,19.87056 54.3956,36.02266 109.9859,48.51439 55.5902,12.49172 118.2686,18.76664 188.0352,18.76664 69.7665,0 132.4449,-6.27492 188.0352,-18.76664 55.5902,-12.49173 92.8628,-28.70193 111.738,-48.51439 v 0 M 2055.9889,267.64329 c 85.1375,0 158.1694,8.42466 219.0957,25.21586 60.9263,16.84931 91.3496,36.89418 91.3496,60.1927 v 41.42606 c 0,25.04156 -30.4233,46.36465 -91.3496,64.08547 -60.9263,17.66273 -133.9582,26.49409 -219.0957,26.49409 -85.1375,0 -158.1694,-8.83136 -219.0956,-26.55219 -60.9263,-17.66272 -91.3496,-39.04391 -91.3496,-64.08547 v -41.36796 c 0,-23.29852 30.4233,-43.34339 91.3496,-60.1927 60.9262,-16.7912 133.9581,-25.21586 219.0956,-25.21586 v 0"
         id="path1751" />
    </g>
    <ellipse
       inkscape:export-ydpi="479.06857"
       inkscape:export-xdpi="479.06857"
       ry="8.2020922"
       rx="8.2020826"
       cy="288.58755"
       cx="8.6410456"
       id="path4539-8"
       style="fill:none;fill-opacity:0.73728811;stroke:#000000;stroke-width:0.34999999;stroke-miterlimit:4;stroke-dasharray:none;stroke-opacity:1" />
  </g>
</svg>
