<?xml version="1.0" encoding="UTF-8" standalone="no"?>
<!-- Created with Inkscape (http://www.inkscape.org/) -->

<svg
   xmlns:dc="http://purl.org/dc/elements/1.1/"
   xmlns:cc="http://creativecommons.org/ns#"
   xmlns:rdf="http://www.w3.org/1999/02/22-rdf-syntax-ns#"
   xmlns:svg="http://www.w3.org/2000/svg"
   xmlns="http://www.w3.org/2000/svg"
   xmlns:sodipodi="http://sodipodi.sourceforge.net/DTD/sodipodi-0.dtd"
   xmlns:inkscape="http://www.inkscape.org/namespaces/inkscape"
   width="64"
   height="64"
   viewBox="0 0 16.933333 16.933334"
   version="1.1"
   id="svg8"
   inkscape:version="0.92.4 (5da689c313, 2019-01-14)"
   sodipodi:docname="books.svg">
  <defs
     id="defs2" />
  <sodipodi:namedview
     id="base"
     pagecolor="#ffffff"
     bordercolor="#666666"
     borderopacity="1.0"
     inkscape:pageopacity="0.0"
     inkscape:pageshadow="2"
     inkscape:zoom="7.9999996"
     inkscape:cx="53.654787"
     inkscape:cy="42.664913"
     inkscape:document-units="mm"
     inkscape:current-layer="layer1"
     showgrid="true"
     units="px"
     showguides="true"
     inkscape:guide-bbox="true"
     inkscape:window-width="1920"
     inkscape:window-height="1017"
     inkscape:window-x="862"
     inkscape:window-y="2152"
     inkscape:window-maximized="1"
     inkscape:snap-global="false">
    <inkscape:grid
       type="xygrid"
       id="grid828" />
    <sodipodi:guide
       position="0,6.6145836"
       orientation="1,0"
       id="guide4533"
       inkscape:locked="false" />
    <sodipodi:guide
       position="15.875,0"
       orientation="0,1"
       id="guide4535"
       inkscape:locked="false" />
  </sodipodi:namedview>
  <metadata
     id="metadata5">
    <rdf:RDF>
      <cc:Work
         rdf:about="">
        <dc:format>image/svg+xml</dc:format>
        <dc:type
           rdf:resource="http://purl.org/dc/dcmitype/StillImage" />
        <dc:title></dc:title>
      </cc:Work>
    </rdf:RDF>
  </metadata>
  <g
     inkscape:label="Calque 1"
     inkscape:groupmode="layer"
     id="layer1"
     transform="translate(0,-280.06665)">
    <ellipse
       style="fill:none;fill-opacity:0.73728811;stroke:#000000;stroke-width:0.35;stroke-miterlimit:4;stroke-dasharray:none;stroke-opacity:1"
       id="path4539"
       cx="8.4666662"
       cy="288.53333"
       rx="8.2020826"
       ry="8.2020922" />
    <path
       style="fill:#000000;stroke-width:0.05456159"
       d="m 3.8824594,293.58551 c -0.3204467,-0.0677 -0.6954584,-0.30808 -0.8796247,-0.58634 -0.2727506,-0.46911 -0.090067,-3.13004 -0.094493,-4.40421 l -0.014622,-4.20846 0.1278975,-0.24232 c 0.2740438,-0.51921 0.8118399,-0.74447 1.65251,-0.69215 0.6629734,0.0413 1.0589841,0.28059 1.2840311,0.77599 0.093637,0.20613 0.099766,0.46471 0.1008919,4.25737 6.185e-4,2.46901 -0.019508,4.11014 -0.052107,4.22378 -0.086555,0.3018 -0.3144891,0.57952 -0.6056987,0.73802 -0.2277461,0.12396 -0.355161,0.1517 -0.7752378,0.16878 -0.2764834,0.0113 -0.6110828,-0.002 -0.7435568,-0.0305 z m 1.3491158,-0.59184 c 0.3540148,-0.25208 0.3376244,-0.0359 0.3376244,-4.45408 0,-4.4216 0.016806,-4.20148 -0.3401863,-4.4561 -0.1598075,-0.11399 -0.2381105,-0.12706 -0.7605221,-0.12706 -0.6330802,0 -0.7485738,0.0435 -0.9965414,0.37566 -0.1110958,0.1488 -0.1125475,0.19969 -0.1166451,4.08874 -0.00233,2.23496 0.017549,4.02066 0.046005,4.12904 0.062376,0.2375 0.2834108,0.47769 0.5017119,0.54519 0.091154,0.0281 0.3878614,0.045 0.6593524,0.0374 0.413467,-0.0116 0.5221271,-0.0341 0.6692012,-0.13883 z m -1.0382064,-0.53861 c -0.4396461,-0.27265 -0.2444825,-0.94186 0.2746788,-0.94186 0.4680515,0 0.6783842,0.54029 0.3414856,0.87718 -0.183183,0.18319 -0.3900637,0.20491 -0.6161644,0.0647 z m -0.2501039,-4.28103 c -0.1002382,-0.10023 -0.077907,-0.30596 0.04006,-0.3691 0.1732592,-0.0927 0.9084106,-0.0714 1.0090774,0.0293 0.1005437,0.10054 0.1059961,0.15639 0.029259,0.29978 -0.049248,0.092 -0.1177417,0.10553 -0.5347043,0.10553 -0.2992021,0 -0.5027319,-0.0245 -0.5436951,-0.0654 z m 0.03001,-1.57574 c -0.1096066,-0.0639 -0.1264939,-0.27016 -0.03001,-0.36665 0.040773,-0.0408 0.2424949,-0.0654 0.5347021,-0.0654 0.4783453,0 0.6001786,0.0448 0.6001786,0.2207 0,0.1904 -0.180053,0.27043 -0.6044744,0.26869 -0.2227035,-7.5e-4 -0.4478825,-0.0267 -0.5003976,-0.0573 z m -0.03001,-1.64339 c -0.1002382,-0.10024 -0.077907,-0.30597 0.04006,-0.3691 0.058045,-0.0311 0.2874895,-0.0564 0.5098778,-0.0564 0.335323,0 0.4212335,0.0187 0.5032994,0.10935 0.081763,0.0904 0.088177,0.133 0.036908,0.24552 -0.059336,0.13022 -0.083118,0.13618 -0.5433611,0.13618 -0.3016048,0 -0.5057577,-0.0245 -0.5467846,-0.0654 z m 3.6838607,8.62631 c -0.3011837,-0.0704 -0.4921101,-0.1824 -0.684335,-0.40133 -0.3444422,-0.3923 -0.3419449,-0.35555 -0.3249819,-4.78286 0.015343,-4.00191 0.015403,-4.00422 0.134891,-4.22752 0.1495736,-0.27952 0.4351671,-0.53377 0.7078359,-0.63015 0.128597,-0.0455 0.4406774,-0.0736 0.8094612,-0.0728 0.5071396,7.5e-4 0.634011,0.0192 0.8184243,0.11776 0.3562321,0.19034 0.6820194,0.61286 0.6820194,0.88454 0,0.0597 0.024553,0.12378 0.054562,0.14233 0.03001,0.0185 0.05456,-0.005 0.05456,-0.0535 0,-0.13525 0.1907865,-0.47703 0.3616705,-0.64792 0.232133,-0.23213 0.396988,-0.29805 0.98453,-0.39366 0.692847,-0.11274 0.994173,-0.0564 1.343359,0.2509 0.425875,0.37487 0.323928,-0.13571 1.155094,5.78504 0.196122,1.39707 0.356587,2.64391 0.356587,2.77076 0,0.28778 -0.100394,0.53316 -0.320877,0.78428 -0.23527,0.26796 -0.473342,0.36736 -1.10404,0.46099 -0.487839,0.0724 -0.570646,0.0717 -0.842397,-0.008 -0.364398,-0.10593 -0.67985,-0.39737 -0.805743,-0.74439 -0.04772,-0.13155 -0.321097,-1.92105 -0.607495,-3.97666 -0.2864,-2.05561 -0.5263745,-3.76202 -0.5332785,-3.79203 -0.0069,-0.03 -0.02531,1.67641 -0.0409,3.79203 -0.02808,3.81015 -0.02947,3.84866 -0.1461168,4.06484 -0.1396618,0.25883 -0.3559919,0.46948 -0.6188141,0.6026 -0.2177442,0.11028 -1.0871943,0.1552 -1.4340145,0.0741 z m 1.3182259,-0.58165 c 0.074979,-0.056 0.1869504,-0.16958 0.2488218,-0.25246 0.1112579,-0.14901 0.1124957,-0.19524 0.1124957,-4.20751 0,-4.01226 -0.0012,-4.05849 -0.1124957,-4.2075 -0.2465324,-0.33021 -0.3649715,-0.37566 -0.978737,-0.37566 -0.6137497,0 -0.7321677,0.0454 -0.9787369,0.37563 -0.1108421,0.14842 -0.1127164,0.20836 -0.1275312,4.07772 -0.00965,2.52013 0.00473,4.0004 0.040053,4.13168 0.068133,0.25304 0.3161742,0.49847 0.5571199,0.55127 0.341704,0.0748 1.089224,0.0187 1.2390108,-0.0932 z m -1.0887616,-0.60918 c -0.118078,-0.11808 -0.1594885,-0.21124 -0.1594885,-0.35884 0,-0.45385 0.5730853,-0.69423 0.8928249,-0.37449 0.3197396,0.31974 0.079363,0.89282 -0.37449,0.89282 -0.1475958,0 -0.2407707,-0.0414 -0.3588464,-0.15949 z m -0.136188,-4.19263 c -0.1066184,-0.073 -0.1253117,-0.21693 -0.04337,-0.33391 0.071226,-0.10169 0.1344886,-0.11539 0.5330447,-0.11539 0.3832354,0 0.4673181,0.0167 0.5511787,0.10935 0.081763,0.0904 0.088174,0.133 0.036908,0.24552 -0.059343,0.13024 -0.082933,0.13615 -0.5406334,0.13535 -0.2632215,-4.1e-4 -0.504926,-0.0188 -0.537125,-0.0409 z m 0.044271,-1.57687 c -0.1233015,-0.0497 -0.185826,-0.22659 -0.1221381,-0.34559 0.0521,-0.0973 0.1142424,-0.10912 0.5759865,-0.10912 0.4989196,0 0.5198234,0.005 0.5796351,0.13618 0.051267,0.11253 0.044857,0.15518 -0.036908,0.24553 -0.083277,0.092 -0.1646189,0.10866 -0.5133524,0.10504 -0.2279172,-0.002 -0.4453687,-0.0168 -0.4832243,-0.0321 z m -0.1187048,-1.72327 c -0.031466,-0.0811 -0.02405,-0.15977 0.021865,-0.23188 0.058991,-0.0926 0.1390358,-0.11149 0.5301819,-0.12475 0.4059338,-0.0137 0.4726805,-0.002 0.5614463,0.0957 0.083479,0.0922 0.090111,0.13465 0.038694,0.2475 -0.059854,0.13137 -0.080472,0.13618 -0.5833139,0.13618 -0.490085,0 -0.5241087,-0.007 -0.5688737,-0.12276 z m 5.0401259,8.17287 c 0.431511,-0.07 0.509159,-0.10065 0.674317,-0.2658 0.139906,-0.13991 0.193103,-0.24643 0.212424,-0.42534 0.01524,-0.14109 -0.144273,-1.44329 -0.390142,-3.185 -0.228754,-1.62048 -0.465163,-3.31462 -0.52535,-3.76475 -0.136295,-1.01933 -0.229627,-1.24725 -0.572925,-1.39911 -0.238313,-0.10541 -0.269484,-0.10655 -0.765982,-0.028 -0.605259,0.0958 -0.75745,0.17984 -0.897139,0.49563 l -0.102795,0.23239 0.348628,2.47744 c 0.191746,1.3626 0.441326,3.13745 0.554625,3.9441 0.225315,1.60418 0.263895,1.72198 0.623109,1.90245 0.229181,0.11514 0.230268,0.11516 0.84123,0.016 z m -0.588823,-0.70897 c -0.209594,-0.19425 -0.202859,-0.5254 0.01512,-0.74338 0.362562,-0.36256 0.962297,-0.0165 0.850839,0.49098 -0.08127,0.37003 -0.581658,0.51588 -0.865955,0.2524 z m -0.739056,-4.14267 c -0.102155,-0.12309 -0.03196,-0.35323 0.118102,-0.38721 0.06707,-0.0152 0.280237,-0.0518 0.47372,-0.0814 0.301827,-0.0462 0.366092,-0.0408 0.452535,0.0374 0.133424,0.12075 0.10159,0.29884 -0.06774,0.37898 -0.07502,0.0355 -0.309198,0.0814 -0.52039,0.1019 -0.316353,0.0308 -0.396712,0.022 -0.456227,-0.0497 z m -0.210098,-1.56857 c -0.03751,-0.0382 -0.0682,-0.1229 -0.0682,-0.18825 0,-0.17375 0.0908,-0.22292 0.53871,-0.29171 0.450588,-0.0692 0.586254,-0.0466 0.634595,0.10571 0.05116,0.16119 -0.06079,0.31079 -0.257921,0.34469 -0.506172,0.087 -0.781293,0.0966 -0.847182,0.0296 z m -0.190965,-1.57777 c -0.111525,-0.0672 -0.126545,-0.28579 -0.02541,-0.36972 0.06488,-0.0538 0.657498,-0.1721 0.867217,-0.17305 0.05037,-2e-4 0.13017,0.0382 0.177325,0.0853 0.191578,0.19158 0.04835,0.3752 -0.334409,0.42875 -0.144028,0.0201 -0.335529,0.0478 -0.425555,0.0615 -0.09003,0.0137 -0.206652,-7.5e-4 -0.259167,-0.0327 z"
       id="path826"
       inkscape:connector-curvature="0"
       sodipodi:nodetypes="ccccsccccsccccscscccccccsscccccscccssccscsccsscccccccscssccssccccscscsccccscscsccccsssccssccccccscsccccccssccccscccccsccccsscsccccccccscsccccccccc" />
  </g>
</svg>
