<?xml version="1.0" encoding="UTF-8" standalone="no"?>
<!-- Created with Inkscape (http://www.inkscape.org/) -->

<svg
   xmlns:dc="http://purl.org/dc/elements/1.1/"
   xmlns:cc="http://creativecommons.org/ns#"
   xmlns:rdf="http://www.w3.org/1999/02/22-rdf-syntax-ns#"
   xmlns:svg="http://www.w3.org/2000/svg"
   xmlns="http://www.w3.org/2000/svg"
   xmlns:sodipodi="http://sodipodi.sourceforge.net/DTD/sodipodi-0.dtd"
   xmlns:inkscape="http://www.inkscape.org/namespaces/inkscape"
   width="64"
   height="64"
   viewBox="0 0 16.933333 16.933334"
   version="1.1"
   id="svg8"
   inkscape:version="0.92.4 (5da689c313, 2019-01-14)"
   sodipodi:docname="calepin.svg">
  <defs
     id="defs2" />
  <sodipodi:namedview
     id="base"
     pagecolor="#ffffff"
     bordercolor="#666666"
     borderopacity="1.0"
     inkscape:pageopacity="0.0"
     inkscape:pageshadow="2"
     inkscape:zoom="8"
     inkscape:cx="85.818386"
     inkscape:cy="33.130147"
     inkscape:document-units="mm"
     inkscape:current-layer="layer1"
     showgrid="true"
     units="px"
     showguides="true"
     inkscape:guide-bbox="true"
     inkscape:window-width="2560"
     inkscape:window-height="1377"
     inkscape:window-x="-8"
     inkscape:window-y="-8"
     inkscape:window-maximized="1"
     inkscape:snap-global="false">
    <inkscape:grid
       type="xygrid"
       id="grid828" />
    <sodipodi:guide
       position="0,6.6145836"
       orientation="1,0"
       id="guide4533"
       inkscape:locked="false" />
    <sodipodi:guide
       position="15.875,0"
       orientation="0,1"
       id="guide4535"
       inkscape:locked="false" />
  </sodipodi:namedview>
  <metadata
     id="metadata5">
    <rdf:RDF>
      <cc:Work
         rdf:about="">
        <dc:format>image/svg+xml</dc:format>
        <dc:type
           rdf:resource="http://purl.org/dc/dcmitype/StillImage" />
        <dc:title></dc:title>
      </cc:Work>
    </rdf:RDF>
  </metadata>
  <g
     inkscape:label="Calque 1"
     inkscape:groupmode="layer"
     id="layer1"
     transform="translate(0,-280.06665)">
    <ellipse
       style="fill:none;fill-opacity:0.73728811;stroke:#000000;stroke-width:0.35;stroke-miterlimit:4;stroke-dasharray:none;stroke-opacity:1"
       id="path4539"
       cx="8.4666662"
       cy="288.53333"
       rx="8.2020826"
       ry="8.2020922" />
    <path
       style="fill:#000000;stroke-width:0.01468657"
       d="m 4.5277203,294.1804 c -0.0259,-0.0158 -0.0573,-0.0485 -0.0698,-0.0727 -0.0204,-0.0394 -0.0227,-0.55165 -0.0227,-4.97262 v -4.92864 l 0.0577,-0.0618 0.0577,-0.0618 0.61056,-0.004 0.61056,-0.004 v -0.14423 c 0,-0.17076 0.0249,-0.2231 0.13174,-0.27708 0.0648,-0.0327 0.0716,-0.033 0.6864705,-0.033 0.52221,0 0.62107,-0.003 0.62107,-0.0205 0,-0.0113 0.0305,-0.0815 0.0679,-0.15611 0.0547,-0.10919 0.0925,-0.16045 0.19459,-0.26351 0.10992,-0.11098 0.1472,-0.13796 0.28094,-0.20335 0.21743,-0.10631 0.30226,-0.12025 0.73004,-0.11994 0.44784,3.4e-4 0.57765,0.0266 0.80756,0.16343 0.17761,0.10571 0.37576,0.34533 0.43897,0.53084 l 0.0236,0.0692 h 0.6058002 c 0.60568,0 0.60582,1e-5 0.67053,0.0342 0.10016,0.0528 0.13028,0.11865 0.13058,0.28528 l 2.5e-4,0.13585 0.59113,6e-5 c 0.56396,6e-5 0.59334,10e-4 0.639,0.0292 0.0263,0.016 0.061,0.0507 0.077,0.077 0.029,0.0475 0.0292,0.0844 0.0292,4.9583 5e-5,4.47911 -0.002,4.91481 -0.0235,4.96016 -0.013,0.0274 -0.0452,0.063 -0.0715,0.0793 -0.0477,0.0295 -0.0633,0.0296 -3.9381102,0.0296 -3.8324505,-6e-5 -3.8909005,-5e-4 -3.9372305,-0.0287 z m 7.5555507,-5.03442 -0.004,-4.65197 -0.45896,-0.004 -0.45895,-0.004 v 0.74261 c 0,0.61974 -0.004,0.74942 -0.0213,0.78376 -0.0356,0.0689 -0.11803,0.13075 -0.18739,0.14062 -0.0347,0.005 -1.1766502,0.007 -2.5377202,0.005 -2.3161705,-0.004 -2.4776705,-0.006 -2.5212605,-0.0298 -0.0256,-0.014 -0.062,-0.0471 -0.0808,-0.0734 l -0.0342,-0.048 -0.007,-0.75636 -0.007,-0.75636 -0.45896,-0.004 -0.45895,-0.004 v 4.65585 4.65585 h 3.6202605 3.6202602 z m -4.2260802,2.33581 c -0.0121,-0.004 -0.0375,-0.0221 -0.0565,-0.0392 -0.0742,-0.0672 -0.0757,-0.0785 -0.0757,-0.57327 v -0.46278 l -0.47626,-0.004 c -0.4546,-0.004 -0.47811,-0.006 -0.5168,-0.0345 -0.0223,-0.0167 -0.0541,-0.0485 -0.0708,-0.0708 -0.0294,-0.0394 -0.0303,-0.0576 -0.0303,-0.63062 0,-0.56671 0.001,-0.59209 0.0299,-0.64146 0.0579,-0.0997 0.0757,-0.10276 0.59798,-0.10278 l 0.4663,-3e-5 v -0.46652 c 0,-0.52192 0.003,-0.53825 0.10447,-0.59825 0.0475,-0.0281 0.0761,-0.0294 0.6398,-0.0294 0.57304,0 0.59122,8.8e-4 0.63061,0.0303 0.0223,0.0167 0.0542,0.0485 0.0708,0.0708 0.0289,0.0387 0.0305,0.0622 0.0345,0.51622 l 0.004,0.4757 0.48386,0.004 0.4838502,0.004 0.0553,0.0553 0.0553,0.0553 0.004,0.6064 0.004,0.6064 -0.0338,0.0506 c -0.0663,0.0992 -0.0821,0.10194 -0.5949702,0.10197 l -0.45896,2e-5 -3e-5,0.45896 c -3e-5,0.51232 -0.003,0.52873 -0.10128,0.59451 -0.0499,0.0333 -0.0501,0.0333 -0.63887,0.0322 -0.32392,-6.7e-4 -0.59887,-0.005 -0.61098,-0.009 z m 0.92835,-0.87711 c 0.004,-0.4546 0.006,-0.47811 0.0345,-0.5168 0.0166,-0.0223 0.0485,-0.0541 0.0708,-0.0708 0.0387,-0.0289 0.0622,-0.0305 0.51679,-0.0345 l 0.47627,-0.004 v -0.32253 -0.32252 l -0.47364,-6e-5 c -0.67031,-8e-5 -0.61875,0.0505 -0.62494,-0.61243 l -0.004,-0.47432 h -0.32235 -0.32236 l -5e-5,0.47364 c -6e-5,0.44386 -0.002,0.4766 -0.0287,0.52066 -0.0553,0.0906 -0.0672,0.0925 -0.58732,0.0925 h -0.4707 v 0.3231 0.32311 l 0.44427,8e-5 c 0.24729,4e-5 0.46743,0.007 0.4965,0.0146 0.0287,0.008 0.0717,0.0348 0.0955,0.0596 l 0.0432,0.0451 0.004,0.4727 c 0.002,0.25998 0.007,0.48096 0.0106,0.49105 0.005,0.0139 0.0831,0.0184 0.32228,0.0184 h 0.31565 l 0.004,-0.47626 z m 1.8767902,-5.71413 v -0.77104 l -0.57645,-3.4e-4 c -0.5304002,-3.3e-4 -0.5812602,-0.003 -0.6366502,-0.0277 -0.0823,-0.0374 -0.11949,-0.096 -0.14476,-0.22803 -0.0401,-0.2098 -0.15898,-0.36894 -0.34296,-0.45929 l -0.0836,-0.041 h -0.39654 -0.39654 l -0.084,0.0394 c -0.0975,0.0457 -0.21935,0.15421 -0.26858,0.23918 -0.0344,0.0593 -0.0702,0.17225 -0.0876,0.27619 -0.011,0.0661 -0.0837,0.15397 -0.15031,0.18178 -0.0372,0.0156 -0.17603,0.0198 -0.64277,0.0198 h -0.59528 v 0.77105 0.77104 h 2.20299 2.2029902 z"
       id="path5835"
       inkscape:connector-curvature="0"
       sodipodi:nodetypes="ccscccccscssscsccccscccccsccccccccccscccccccccccccccccsccccssccscsccccccccccccccccccccccccccccccccscccccccccscccccccsscccccccsaccccc" />
  </g>
</svg>
