<?xml version="1.0" encoding="UTF-8" standalone="no"?>
<!-- Created with Inkscape (http://www.inkscape.org/) -->

<svg
   xmlns:dc="http://purl.org/dc/elements/1.1/"
   xmlns:cc="http://creativecommons.org/ns#"
   xmlns:rdf="http://www.w3.org/1999/02/22-rdf-syntax-ns#"
   xmlns:svg="http://www.w3.org/2000/svg"
   xmlns="http://www.w3.org/2000/svg"
   xmlns:sodipodi="http://sodipodi.sourceforge.net/DTD/sodipodi-0.dtd"
   xmlns:inkscape="http://www.inkscape.org/namespaces/inkscape"
   width="64"
   height="64"
   viewBox="0 0 16.933333 16.933334"
   version="1.1"
   id="svg8"
   inkscape:version="0.92.4 (5da689c313, 2019-01-14)"
   sodipodi:docname="capture.svg">
  <defs
     id="defs2" />
  <sodipodi:namedview
     id="base"
     pagecolor="#ffffff"
     bordercolor="#666666"
     borderopacity="1.0"
     inkscape:pageopacity="0.0"
     inkscape:pageshadow="2"
     inkscape:zoom="4"
     inkscape:cx="120.13524"
     inkscape:cy="17.800311"
     inkscape:document-units="mm"
     inkscape:current-layer="layer1"
     showgrid="true"
     units="px"
     showguides="true"
     inkscape:guide-bbox="true"
     inkscape:window-width="1920"
     inkscape:window-height="1017"
     inkscape:window-x="862"
     inkscape:window-y="2152"
     inkscape:window-maximized="1"
     inkscape:snap-global="false">
    <inkscape:grid
       type="xygrid"
       id="grid828" />
    <sodipodi:guide
       position="0,6.6145836"
       orientation="1,0"
       id="guide4533"
       inkscape:locked="false" />
    <sodipodi:guide
       position="15.875,0"
       orientation="0,1"
       id="guide4535"
       inkscape:locked="false" />
  </sodipodi:namedview>
  <metadata
     id="metadata5">
    <rdf:RDF>
      <cc:Work
         rdf:about="">
        <dc:format>image/svg+xml</dc:format>
        <dc:type
           rdf:resource="http://purl.org/dc/dcmitype/StillImage" />
        <dc:title></dc:title>
      </cc:Work>
    </rdf:RDF>
  </metadata>
  <g
     inkscape:label="Calque 1"
     inkscape:groupmode="layer"
     id="layer1"
     transform="translate(0,-280.06665)">
    <ellipse
       style="fill:none;fill-opacity:0.73728811;stroke:#000000;stroke-width:0.35;stroke-miterlimit:4;stroke-dasharray:none;stroke-opacity:1"
       id="path4539"
       cx="8.4666662"
       cy="288.53333"
       rx="8.2020826"
       ry="8.2020922" />
    <path
       style="fill:#000000;stroke-width:0.0527199"
       d="m 6.373945,293.00456 c -0.1277335,-0.0194 -0.1450884,-0.0451 -0.1458953,-0.21616 -0.00151,-0.32309 -0.1423695,-0.88604 -0.3090364,-1.23519 -0.086571,-0.18135 -0.3977204,-0.69494 -0.6914521,-1.14132 -1.0133295,-1.53991 -1.3709917,-2.45398 -1.3709917,-3.5038 0,-0.81896 0.2483199,-1.44216 0.7907984,-1.98463 0.403462,-0.40346 0.8359976,-0.63743 1.474526,-0.79759 0.3783356,-0.0949 0.5433039,-0.10752 1.0807582,-0.0826 0.3488484,0.0161 0.776614,0.0686 0.9505901,0.11652 0.4521507,0.12461 1.0839695,0.43271 1.6441989,0.80177 0.5826509,0.38383 1.0073709,0.54001 1.5744429,0.57898 0.522317,0.0359 0.916317,-0.0655 1.25297,-0.3225 l 0.234472,-0.17898 0.108719,0.14705 0.108718,0.14705 -0.197406,0.1774 c -0.129235,0.11612 -0.302723,0.38916 -0.502383,0.79066 -0.392023,0.78831 -0.436538,1.10428 -0.218395,1.55015 0.07959,0.16268 0.174935,0.30738 0.211871,0.32156 0.03694,0.0142 0.156601,-0.0116 0.265924,-0.0573 0.109322,-0.0457 0.202184,-0.0768 0.206359,-0.0692 0.02622,0.0479 0.134379,0.31227 0.134379,0.32844 0,0.0108 -0.11583,0.0581 -0.257398,0.10513 -0.310366,0.10309 -0.359464,0.15451 -0.631157,0.66106 -0.263595,0.49145 -0.421917,1.05107 -0.462364,1.63431 l -0.03108,0.44813 0.188169,0.17975 c 0.186493,0.17815 0.187382,0.18108 0.09971,0.3295 -0.04865,0.0824 -0.102628,0.14974 -0.119948,0.14974 -0.01731,0 -0.101169,-0.0739 -0.186333,-0.16433 l -0.154842,-0.16433 -0.632639,0.0324 c -0.8685418,0.0445 -1.4716927,0.20208 -1.8396744,0.48066 -0.097309,0.0737 -0.096316,0.084 0.038029,0.39374 0.1226712,0.28286 0.1278991,0.31817 0.047195,0.31881 -0.049914,4e-4 -0.1382008,0.0128 -0.1961931,0.0277 -0.086775,0.0222 -0.127536,-0.0244 -0.2302325,-0.26354 -0.1479907,-0.34454 -0.2545947,-0.39289 -0.9595076,-0.43514 -0.3829356,-0.0229 -0.4832117,-0.011 -0.6589989,0.0787 -0.3321755,0.16954 -0.4139533,0.29151 -0.3979242,0.59352 0.00762,0.14388 -0.00567,0.25804 -0.029562,0.2537 -0.023894,-0.004 -0.1086896,-0.0178 -0.1884287,-0.0299 z m 0.6453751,-1.28745 c 2.595e-4,-0.0185 -0.076661,-0.14896 -0.1708958,-0.28997 -0.1616019,-0.2418 -0.1859684,-0.2573 -0.428738,-0.27273 -0.2903106,-0.0184 -0.2864483,-0.0366 -0.093175,0.43811 0.059028,0.14498 0.1190967,0.30331 0.133491,0.35184 0.023212,0.0783 0.056238,0.0724 0.2925219,-0.0527 0.1464948,-0.0775 0.2665525,-0.15608 0.2667959,-0.17455 z m 1.1602821,0.0313 c 0,-0.0158 -0.095644,-0.15808 -0.2125428,-0.31632 -0.2123728,-0.28748 -0.2127731,-0.28771 -0.5008395,-0.28771 -0.1585624,0 -0.2882966,0.0157 -0.2882966,0.0349 0,0.0192 0.05947,0.13639 0.1321608,0.26042 0.1188532,0.20281 0.1573412,0.22891 0.3822201,0.2592 0.1375312,0.0185 0.2737819,0.0418 0.3027776,0.0517 0.08642,0.0296 0.1845204,0.0284 0.1845204,-0.003 z m 0.6880682,-0.0787 c 0.082931,-0.0591 0.2230075,-0.13255 0.3112779,-0.16332 0.088271,-0.0307 0.1604914,-0.0754 0.1604914,-0.0993 0,-0.0639 -0.529139,-0.63173 -0.5886157,-0.63173 -0.1194209,0 -0.5746758,0.23103 -0.5602541,0.28431 0.029182,0.10781 0.4366521,0.71258 0.4817328,0.71499 0.024523,0.002 0.112435,-0.046 0.1953677,-0.10499 z m 1.6975066,-0.45459 c 0.195723,-0.0183 0.354934,-0.0475 0.353803,-0.0651 -0.0022,-0.0341 -0.264263,-0.23266 -0.818973,-0.62044 l -0.3430855,-0.23983 -0.2869205,0.12419 c -0.157807,0.0683 -0.2873268,0.13649 -0.287821,0.15152 -4.782e-4,0.015 0.09555,0.14405 0.2134347,0.2867 0.1178834,0.14266 0.2388879,0.30526 0.2688996,0.36133 0.046443,0.0868 0.091044,0.097 0.2996846,0.0684 0.1348151,-0.0185 0.4052551,-0.0485 0.6009781,-0.0668 z m 0.757893,-0.88784 c 0.02258,-0.17398 0.04219,-0.33478 0.04357,-0.35736 0.0028,-0.046 -0.836003,-0.35918 -0.996985,-0.3723 -0.07078,-0.006 -0.141627,0.0605 -0.225236,0.21061 l -0.121979,0.21904 0.181584,0.11222 c 0.09987,0.0617 0.367072,0.25445 0.59378,0.42827 0.469549,0.36003 0.445902,0.37085 0.525263,-0.24048 z m -5.0413844,0.41429 c 0,-0.0601 -0.7095484,-0.70096 -0.778039,-0.70263 -0.036479,-8e-4 0.044105,0.16444 0.1790747,0.36742 0.222593,0.33475 0.2618205,0.36904 0.4221799,0.36904 0.097231,0 0.1767844,-0.0152 0.1767844,-0.0338 z m 1.1071174,-0.007 c 0,-0.0225 -0.1728062,-0.21251 -0.3840144,-0.42231 l -0.3840143,-0.38146 -0.2470118,0.0338 -0.2470127,0.0338 0.3542473,0.3859 c 0.3524812,0.38399 0.355627,0.38593 0.631027,0.38846 0.1522284,0.002 0.2767789,-0.0159 0.2767789,-0.0383 z m 0.7630283,-0.1278 c 0.1312575,-0.0638 0.2378039,-0.12901 0.2367703,-0.14498 -0.00106,-0.0159 -0.2374283,-0.18984 -0.5253201,-0.38638 -0.4216955,-0.28787 -0.5494246,-0.35081 -0.6571188,-0.32378 -0.073526,0.0184 -0.1336787,0.0446 -0.1336787,0.0581 0,0.0243 0.8061384,0.91172 0.8289285,0.91252 0.00647,2e-4 0.1191614,-0.0517 0.2504188,-0.11553 z m 0.9635488,-0.43756 c 0.1232326,-0.0499 0.2239463,-0.10581 0.2238081,-0.12441 -1.585e-4,-0.0186 -0.2178965,-0.17401 -0.483907,-0.34536 l -0.4836537,-0.31156 -0.240993,0.0642 c -0.132546,0.0353 -0.2590626,0.0821 -0.2811495,0.10393 -0.022088,0.0219 0.1617233,0.17685 0.4084668,0.34444 0.2467425,0.16761 0.462936,0.3279 0.480429,0.35621 0.017491,0.0283 0.059063,0.0406 0.092373,0.0273 0.033309,-0.0133 0.1613939,-0.0649 0.2846266,-0.11476 z m 0.7350885,-0.59881 0.1156293,-0.20255 -0.4989504,-0.32668 c -0.2744222,-0.17967 -0.5162477,-0.31569 -0.5373887,-0.30225 -0.02114,0.0135 -0.084888,0.11165 -0.1416646,0.21825 -0.088431,0.16607 -0.092212,0.20034 -0.026357,0.23923 0.04228,0.025 0.2547957,0.16312 0.4722653,0.307 0.2174696,0.14388 0.4191229,0.26339 0.4481186,0.26557 0.028996,0.002 0.1047539,-0.0871 0.1683505,-0.19857 z m -3.6035823,0.005 c 0.013276,-0.0217 -0.087235,-0.16048 -0.2233653,-0.30829 -0.2327592,-0.25273 -0.2670032,-0.27096 -0.5745916,-0.30576 -0.1798957,-0.0204 -0.3270822,-0.0213 -0.3270822,-0.002 0,0.0191 0.1245514,0.17304 0.2767798,0.34193 0.2682635,0.29762 0.2851995,0.30716 0.5504475,0.31044 0.1505173,0.002 0.2845326,-0.0144 0.2978118,-0.0361 z m 5.4389737,-0.45213 0.211266,-0.43717 -0.422145,-0.0584 c -0.23218,-0.0321 -0.461356,-0.0738 -0.509281,-0.0927 -0.06665,-0.0263 -0.13122,0.0439 -0.274625,0.29837 -0.103119,0.18298 -0.169557,0.35062 -0.147643,0.37254 0.03555,0.0355 0.839298,0.34907 0.904804,0.35294 0.0145,8e-4 0.121428,-0.19517 0.237624,-0.43562 z m -4.7715355,0.34016 c 0,-0.0499 -0.5386419,-0.48089 -0.6011076,-0.48089 -0.020795,0 0.062216,0.11862 0.184462,0.2636 0.1964154,0.23294 0.4166456,0.3478 0.4166456,0.21729 z m 0.755047,-0.24861 c 0.1356466,-0.0462 0.2457312,-0.0996 0.2446303,-0.11861 -0.00106,-0.019 -0.1344563,-0.12948 -0.2963479,-0.24546 -0.1618915,-0.116 -0.3392357,-0.24364 -0.3940991,-0.28368 -0.085712,-0.0625 -0.1330508,-0.06 -0.3362909,0.0175 -0.1300964,0.0497 -0.2365392,0.10871 -0.2365392,0.13117 0,0.0437 0.6838101,0.58308 0.7391065,0.58308 0.018102,0 0.1438928,-0.0378 0.2795403,-0.084 z m 2.6898915,-0.56796 c 0.131117,-0.24377 0.150576,-0.31514 0.09183,-0.33678 -0.04101,-0.0151 -0.263172,-0.15589 -0.4937111,-0.31287 -0.2305402,-0.15697 -0.4254635,-0.27825 -0.433165,-0.2695 -0.091077,0.10351 -0.3474128,0.58239 -0.3337244,0.62346 0.0285,0.0855 0.8526565,0.63211 0.9315355,0.61784 0.03898,-0.007 0.145734,-0.15202 0.23724,-0.32215 z m -1.8388035,0.0441 0.139996,-0.23888 -0.3854065,-0.36519 c -0.2119734,-0.20084 -0.4100777,-0.36617 -0.440231,-0.36739 -0.062836,-0.003 -0.3526469,0.47172 -0.3369144,0.55135 0.010397,0.0526 0.7825504,0.64974 0.8480281,0.65579 0.018988,0.002 0.097529,-0.10429 0.1745278,-0.23568 z m -3.0822924,-0.15013 c 0,-0.011 -0.081992,-0.15612 -0.1822045,-0.32254 -0.1002123,-0.16642 -0.1896049,-0.32479 -0.1986516,-0.35193 -0.01812,-0.0544 -0.4617236,-0.16758 -0.5013514,-0.12796 -0.033406,0.0334 0.1375286,0.55557 0.2303973,0.70379 0.062358,0.0995 0.1207954,0.11862 0.3630655,0.11862 0.1588096,0 0.2887447,-0.009 0.2887447,-0.0199 z m 1.3561015,-0.32012 c 0.00647,-0.004 -0.1500081,-0.18222 -0.3477068,-0.39453 l -0.3594513,-0.38605 -0.1926727,0.0636 c -0.105969,0.035 -0.1926718,0.0819 -0.1926718,0.10431 0,0.0538 0.2951912,0.46747 0.4599718,0.64469 0.1294843,0.13927 0.1315399,0.13959 0.3754918,0.0583 0.1349116,-0.045 0.25058,-0.0856 0.257039,-0.0903 z m 5.1284454,0.0305 c 0,-0.0253 -0.04549,-0.14987 -0.101083,-0.27679 -0.05559,-0.12691 -0.117599,-0.34345 -0.137785,-0.48117 -0.03265,-0.2228 -0.05136,-0.25043 -0.16958,-0.25043 -0.07308,0 -0.224748,-0.0275 -0.337034,-0.0612 -0.112285,-0.0337 -0.217804,-0.0476 -0.234484,-0.0308 -0.01668,0.0166 -0.01353,0.245 0.007,0.50739 0.03725,0.4762 0.03761,0.47715 0.202008,0.52873 0.328344,0.10303 0.770966,0.13992 0.770966,0.0643 z m -2.8411307,-0.51758 0.1703671,-0.29777 -0.3911951,-0.35831 c -0.2151563,-0.19707 -0.4062145,-0.35912 -0.424572,-0.36011 -0.018359,-8.9e-4 -0.1176372,0.13963 -0.2206207,0.31251 l -0.1872411,0.31432 0.3971775,0.37093 c 0.2184483,0.204 0.4170999,0.35861 0.4414487,0.34356 0.024346,-0.0151 0.1209336,-0.16136 0.2146356,-0.32513 z m -1.7015968,-0.046 0.175703,-0.29028 -0.3838788,-0.39448 c -0.2111329,-0.21698 -0.4067008,-0.38689 -0.4345957,-0.37759 -0.027897,0.009 -0.1206058,0.14062 -0.2060245,0.2918 l -0.1553051,0.2749 0.3530383,0.39446 c 0.1941712,0.21695 0.3805613,0.39379 0.4141995,0.39296 0.033636,-7.9e-4 0.1402262,-0.13212 0.2368633,-0.29177 z m 3.1961095,-0.27347 c -0.03012,-0.44253 -0.05064,-0.52502 -0.147567,-0.5931 -0.06192,-0.0435 -0.261128,-0.19082 -0.4426781,-0.32738 -0.1815514,-0.13658 -0.3316596,-0.23147 -0.3335752,-0.21088 -0.0254,0.27299 0.024355,1.00073 0.072383,1.05859 0.083241,0.10031 0.7786553,0.58679 0.8387903,0.58679 0.0275,0 0.03285,-0.21727 0.01265,-0.51402 z m -5.7197261,-0.0791 c -0.00106,-0.0362 -0.036249,-0.20824 -0.078255,-0.38222 -0.042006,-0.17397 -0.076749,-0.40388 -0.077201,-0.5109 -0.00142,-0.33409 -0.093865,-0.27056 -0.1577893,0.10843 -0.08942,0.53014 -0.059807,0.75845 0.1042455,0.80371 0.1961489,0.0541 0.2110479,0.0528 0.2090021,-0.019 z m 1.0035565,-0.22283 c 0,-0.0124 -0.2342764,-0.41557 -0.4142535,-0.71294 -0.08851,-0.14626 -0.1130851,-0.0201 -0.056123,0.28802 0.095517,0.5167 0.1231105,0.5608 0.3101417,0.49559 0.08813,-0.0307 0.1602328,-0.0625 0.1602328,-0.0707 z m 2.1008556,-0.375 c 0.1728965,-0.28562 0.1745464,-0.29396 0.079078,-0.39968 -0.1362019,-0.15083 -0.7354497,-0.62362 -0.7904246,-0.62362 -0.048639,0 -0.2827835,0.41401 -0.28254,0.49959 1.577e-4,0.0534 0.7407237,0.81954 0.7896258,0.8169 0.015224,-7.9e-4 0.1071398,-0.13275 0.2042586,-0.29319 z m 1.3259376,-0.33159 v -0.46813 L 9.0626599,285.7541 c -0.2849524,-0.23327 -0.8431864,-0.62479 -0.8628351,-0.60514 -0.00824,0.008 0.041625,0.23954 0.1107869,0.51404 l 0.1257487,0.49907 0.3774049,0.35587 c 0.2075726,0.19571 0.3989036,0.35585 0.4251804,0.35585 0.026277,0 0.047771,-0.21065 0.047771,-0.46812 z m 2.4632144,0.36017 c 0.01552,-0.0593 0.1082,-0.27481 0.205944,-0.47877 0.09774,-0.20395 0.177716,-0.37483 0.177716,-0.37971 0,-0.005 -0.272826,-0.009 -0.606279,-0.009 h -0.606279 v 0.38036 c 0,0.3375 0.01302,0.38733 0.115541,0.44221 0.331145,0.17721 0.673112,0.1987 0.713357,0.0448 z m -5.4087868,-0.28139 0.1081034,-0.20481 -0.3605627,-0.36585 c -0.1983089,-0.20121 -0.42853,-0.41509 -0.5116035,-0.47527 l -0.1510416,-0.10942 0.038091,0.12653 c 0.077449,0.25726 0.3815053,0.92441 0.5236197,1.14891 0.1598918,0.25259 0.1559986,0.25391 0.3533937,-0.12009 z m 4.2103548,-0.38828 -4.78e-4,-0.30313 -0.432467,-0.21088 c -0.2378555,-0.11599 -0.4511485,-0.21879 -0.4739839,-0.22846 -0.022858,-0.01 -0.041536,0.0674 -0.041536,0.17121 0,0.17347 0.035169,0.21659 0.4335329,0.53159 0.238443,0.18855 0.451959,0.34282 0.47448,0.34282 0.02252,0 0.04072,-0.13642 0.04045,-0.30315 z m -3.7669373,-0.36903 c 0.055361,-0.10874 0.1079979,-0.21196 0.1169801,-0.22939 0.023655,-0.0459 -0.6741221,-0.34933 -0.9014134,-0.39198 -0.1061089,-0.0199 -0.1929252,-0.0246 -0.1929252,-0.0104 0,0.0353 0.8098086,0.82765 0.8469344,0.82869 0.016375,4e-4 0.075067,-0.0881 0.1304241,-0.19687 z m 1.1314378,-0.0946 c 0,-0.0158 -0.038871,-0.18347 -0.086385,-0.37261 -0.05916,-0.23553 -0.1235825,-0.36828 -0.204411,-0.42125 -0.1280204,-0.0839 -0.454402,-0.18957 -0.4864496,-0.15752 -0.010885,0.0109 0.018173,0.1469 0.064572,0.30224 0.071896,0.2407 0.1249517,0.31127 0.3589792,0.47751 0.2659688,0.18894 0.3536946,0.2315 0.3536944,0.17163 z m 1.3292109,-0.446 c -0.020547,-0.14 -0.07326,-0.18785 -0.3734292,-0.33894 -0.3322702,-0.16726 -0.7448906,-0.31106 -0.7830491,-0.2729 -0.00974,0.01 0.1382318,0.11932 0.3288339,0.2435 0.1906012,0.12418 0.4451622,0.30382 0.565691,0.3992 0.1205289,0.0954 0.2341586,0.16413 0.2525116,0.15279 0.01835,-0.0113 0.022601,-0.094 0.00944,-0.18365 z M 6.7762397,284.8309 c -0.019059,-0.0797 -0.044636,-0.16278 -0.05684,-0.18452 -0.045123,-0.0804 -0.6497688,-0.0255 -0.6478311,0.0589 6.173e-4,0.0273 0.5505121,0.23401 0.6987755,0.26277 0.0223,0.004 0.024948,-0.0574 0.00593,-0.13711 z"
       id="path5789"
       inkscape:connector-curvature="0"
       sodipodi:nodetypes="ccccsccccccccccccccscsccscccsccccccccccccccccccccccccsscccccccssccccccccccccccccccccccsccsscccccccccccccsccccccccccccccccccccsccccscsccccccccccccsssscccccssccccccccccccccccsscccsssccccscccccccscccccccccccccccccccccccccccccsccscccccccccccccscccccccccccsccccsscscccccccccscccscscscccccscccsccccsscccccccccccccc" />
  </g>
</svg>
