<?xml version="1.0" encoding="UTF-8" standalone="no"?>
<!-- Created with Inkscape (http://www.inkscape.org/) -->

<svg
   xmlns:dc="http://purl.org/dc/elements/1.1/"
   xmlns:cc="http://creativecommons.org/ns#"
   xmlns:rdf="http://www.w3.org/1999/02/22-rdf-syntax-ns#"
   xmlns:svg="http://www.w3.org/2000/svg"
   xmlns="http://www.w3.org/2000/svg"
   xmlns:sodipodi="http://sodipodi.sourceforge.net/DTD/sodipodi-0.dtd"
   xmlns:inkscape="http://www.inkscape.org/namespaces/inkscape"
   width="64"
   height="64"
   viewBox="0 0 16.933333 16.933334"
   version="1.1"
   id="svg8"
   inkscape:version="0.92.4 (5da689c313, 2019-01-14)"
   sodipodi:docname="cavernicoles.svg">
  <defs
     id="defs2" />
  <sodipodi:namedview
     id="base"
     pagecolor="#ffffff"
     bordercolor="#666666"
     borderopacity="1.0"
     inkscape:pageopacity="0.0"
     inkscape:pageshadow="2"
     inkscape:zoom="11.313708"
     inkscape:cx="27.420362"
     inkscape:cy="38.376023"
     inkscape:document-units="mm"
     inkscape:current-layer="layer1"
     showgrid="true"
     units="px"
     showguides="true"
     inkscape:guide-bbox="true"
     inkscape:window-width="1920"
     inkscape:window-height="1017"
     inkscape:window-x="1037"
     inkscape:window-y="2152"
     inkscape:window-maximized="1"
     inkscape:snap-global="false">
    <inkscape:grid
       type="xygrid"
       id="grid828" />
    <sodipodi:guide
       position="0,6.6145836"
       orientation="1,0"
       id="guide4533"
       inkscape:locked="false" />
    <sodipodi:guide
       position="15.875,0"
       orientation="0,1"
       id="guide4535"
       inkscape:locked="false" />
  </sodipodi:namedview>
  <metadata
     id="metadata5">
    <rdf:RDF>
      <cc:Work
         rdf:about="">
        <dc:format>image/svg+xml</dc:format>
        <dc:type
           rdf:resource="http://purl.org/dc/dcmitype/StillImage" />
        <dc:title></dc:title>
      </cc:Work>
    </rdf:RDF>
  </metadata>
  <g
     inkscape:label="Calque 1"
     inkscape:groupmode="layer"
     id="layer1"
     transform="translate(0,-280.06665)">
    <ellipse
       style="fill:none;fill-opacity:0.73728811;stroke:#100000;stroke-width:0.35;stroke-miterlimit:4;stroke-dasharray:none;stroke-opacity:1"
       id="path4539"
       cx="8.4666662"
       cy="288.53333"
       rx="8.2020826"
       ry="8.2020922" />
    <path
       style="fill:#000000;stroke-width:0.05813502"
       d="m 7.2659594,296.74095 c -1.8510172,-0.32208 -3.312359,-1.051 -4.5844409,-2.28674 -1.3605182,-1.32164 -2.11143135,-2.7289 -2.42034285,-4.53584 -0.524315,-3.06691 0.7340642,-6.18184 3.25138935,-8.04832 0.6691254,-0.49613 1.7996414,-1.02581 2.7984216,-1.31117 1.2295578,-0.35128 3.1220598,-0.35128 4.3516164,0 0.987301,0.28207 2.128225,0.81426 2.777091,1.29536 1.816847,1.34711 3.006078,3.36421 3.334114,5.65514 0.08983,0.62735 0.04122,2.06306 -0.09032,2.66777 -0.362081,1.66453 -1.059775,2.95717 -2.212143,4.0985 -1.3897,1.37639 -2.859908,2.14815 -4.6517086,2.4418 -0.567361,0.093 -2.074643,0.10685 -2.553687,0.0235 z m 2.8049356,-2.54233 c 0.301002,-0.35806 0.374379,-0.6498 0.594739,-2.36463 0.08197,-0.63792 0.165903,-1.19188 0.233412,-1.54059 0.02785,-0.14388 0.09334,-0.51013 0.145536,-0.81388 0.138457,-0.80585 0.140679,-0.8139 0.225197,-0.8139 0.05583,0 0.08787,0.14218 0.114619,0.50869 0.116267,1.59284 0.20792,2.26109 0.375256,2.73603 0.09365,0.2658 0.196249,0.50926 0.227991,0.541 0.03819,0.0382 0.122987,-0.0735 0.250705,-0.33039 0.175407,-0.35274 0.200047,-0.37847 0.270383,-0.28227 0.08685,0.11878 0.267038,0.69834 0.372473,1.19804 0.078,0.36969 0.08329,0.37344 0.750539,0.53151 0.670081,0.15874 0.684516,0.15994 0.77974,0.0648 0.301655,-0.30165 0.846469,-1.12338 1.154187,-1.74083 0.391215,-0.78498 0.730729,-2.14991 0.745136,-2.99563 0.0081,-0.47457 -0.0015,-0.51409 -0.23075,-0.95192 l -0.239183,-0.4568 v -0.66563 -0.66565 l -0.209867,-0.24241 c -0.369639,-0.42695 -0.711005,-1.07338 -0.873903,-1.65486 -0.115134,-0.41098 -0.09928,-0.39278 -0.565424,-0.64922 -0.282738,-0.15555 -0.353385,-0.17427 -0.412561,-0.10943 -0.09671,0.10597 -0.290821,0.77829 -0.408654,1.41535 -0.129438,0.6998 -0.19866,0.95923 -0.255953,0.95923 -0.06343,0 -0.150144,-0.57694 -0.378242,-2.51644 -0.04057,-0.34486 -0.09766,-0.65009 -0.126885,-0.67826 -0.03081,-0.0297 -0.160174,-0.0146 -0.307891,0.0359 -0.211831,0.0725 -0.266557,0.0741 -0.324815,0.01 -0.08864,-0.098 -0.321526,-0.67341 -0.321526,-0.79444 0,-0.0598 -0.01966,-0.0714 -0.05728,-0.0338 -0.05699,0.057 -0.158644,0.5926 -0.291452,1.53562 -0.08324,0.5911 -0.160825,0.824 -0.231947,0.69635 -0.04519,-0.0811 -0.15566,-0.57345 -0.214945,-0.95797 -0.08865,-0.57496 -0.184419,-0.3385 -0.252991,0.62467 -0.07234,1.01605 -0.160664,2.12907 -0.207809,2.61863 -0.04574,0.47496 -0.150817,0.49367 -0.205734,0.0366 -0.02082,-0.17327 -0.06564,-0.53741 -0.09958,-0.80918 -0.03395,-0.27179 -0.1024836,-0.83425 -0.1522996,-1.24992 -0.04982,-0.41566 -0.116234,-0.96503 -0.147599,-1.22083 -0.03136,-0.25579 -0.0842,-0.68745 -0.117422,-0.95923 -0.03322,-0.27177 -0.07931,-0.59825 -0.102421,-0.72548 l -0.04202,-0.23135 -0.260815,0.0176 c -0.14345,0.01 -0.36546,0.0412 -0.493356,0.07 -0.127899,0.0288 -0.396743,0.0531 -0.597434,0.0539 -0.320563,9.9e-4 -0.387659,0.022 -0.552283,0.17107 -0.103064,0.0933 -0.322958,0.27724 -0.488653,0.40875 l -0.3012633,0.2391 -0.1262942,-0.13261 c -0.069457,-0.0729 -0.1653425,-0.19076 -0.2130695,-0.26184 -0.076908,-0.11452 -0.1268233,-0.12677 -0.4388672,-0.10761 -0.2457258,0.0152 -0.3678287,0.0497 -0.4041825,0.1147 -0.028653,0.0512 -0.1015687,0.0931 -0.1620411,0.0931 -0.060476,0 -0.1261182,0.0262 -0.1458803,0.0581 -0.019762,0.032 -0.080169,0.0582 -0.1342342,0.0582 -0.054066,4e-5 -0.285794,0.17662 -0.5149442,0.39242 l -0.4166398,0.39233 -0.0943,0.84296 c -0.051866,0.46362 -0.1187334,1.02607 -0.1485906,1.2499 -0.029853,0.22383 -0.069687,0.53121 -0.088499,0.68308 -0.023003,0.18562 -0.061637,0.27615 -0.1178565,0.27615 -0.047965,0 -0.083658,-0.0558 -0.083689,-0.13081 -2.59e-5,-0.0719 -0.036034,-0.31393 -0.080018,-0.53775 -0.043985,-0.22382 -0.1124998,-0.60315 -0.15225,-0.84296 -0.09606,-0.57948 -0.1700599,-0.87208 -0.2204662,-0.87173 -0.069708,3.4e-4 -0.5643954,0.77178 -0.6336827,0.988 -0.09748,0.30419 -0.1274385,0.52904 -0.1921732,1.44219 l -0.058966,0.83175 -0.5200128,0.53442 c -0.5236571,0.53815 -0.91252805,1.07356 -1.12277725,1.54586 -0.1350412,0.30335 -0.114358,0.6103 0.1008616,1.49679 0.18676475,0.76928 0.43556395,1.40189 0.80553895,2.04818 0.3675807,0.64211 0.5292537,0.82354 0.8300003,0.93145 0.1246492,0.0447 0.3051181,0.13865 0.4010412,0.20871 0.09592,0.0701 0.265967,0.16195 0.3778778,0.20416 0.1119088,0.0422 0.2283251,0.0987 0.2587003,0.12555 0.080589,0.0712 1.4336099,0.0598 1.6656133,-0.0141 0.1086874,-0.0346 0.2527556,-0.0893 0.3201497,-0.12166 0.1263723,-0.0606 0.4339507,0.0595 0.7842036,0.30607 0.09338,0.0659 0.3927974,0.14177 0.7848228,0.19924 0.348611,0.0511 0.70936,0.11193 0.801663,0.13516 0.0923,0.0232 0.589357,0.0329 1.104565,0.0214 0.933059,-0.0208 0.937256,-0.0215 1.0674666,-0.1764 z m -3.7605216,-4.7568 c -0.09992,-0.0708 -0.1484835,-0.08 -0.1647163,-0.0313 -0.048705,0.14613 -0.1007555,0.0585 -0.105765,-0.17804 -0.0029,-0.13588 -0.038734,-0.34858 -0.079689,-0.47266 -0.090849,-0.27528 -0.4406455,-0.67548 -0.5904003,-0.67548 -0.09088,0 -0.1095055,-0.0441 -0.1095055,-0.25923 0,-0.45671 -0.1286105,-1.15963 -0.2416744,-1.32086 -0.2031344,-0.2897 0.0013,-0.23554 0.4650229,0.12316 0.2505205,0.19379 0.4793385,0.35258 0.5084836,0.35284 0.029143,2.6e-4 0.056946,0.14043 0.061766,0.3115 0.0086,0.30399 0.1460443,0.67632 0.2497033,0.67632 0.028613,0 0.069257,-0.0785 0.090329,-0.17441 0.043785,-0.19935 0.1417199,-0.22985 0.1866276,-0.0581 0.038344,0.14662 0.2784294,0.15628 0.3609991,0.0145 0.049246,-0.0845 0.059556,-0.0704 0.061027,0.0838 0.0035,0.36845 0.165811,0.27334 0.428545,-0.25109 0.08215,-0.16397 0.130909,-0.3186 0.108363,-0.3436 -0.02254,-0.0249 -0.01114,-0.0284 0.02536,-0.008 0.03649,0.0208 0.182014,-0.0133 0.323381,-0.0759 0.391694,-0.17326 0.919915,-0.29717 1.022381,-0.23983 0.07505,0.042 0.06983,0.0561 -0.03275,0.0887 -0.134306,0.0426 -0.667566,0.98299 -0.737186,1.29997 -0.03076,0.14009 -0.07248,0.18671 -0.167182,0.18688 -0.273058,3.3e-4 -0.9993023,0.61559 -1.0369271,0.87827 -0.065928,0.33723 -0.046124,0.0816 -0.1425262,0.10059 -0.030904,0.006 -0.062664,0.0497 -0.1094314,0.0535 -0.151742,0.012 -0.2817746,-0.0164 -0.3742364,-0.0819 z"
       id="path825"
       inkscape:connector-curvature="0"
       sodipodi:nodetypes="ccsccccscscccccccsccccccccccscccccccssccccscccccccccccccccccccccccscccccccscccccccccccccccccccccccccccssccscscccccccccccccsccc" />
  </g>
</svg>
