<?xml version="1.0" encoding="UTF-8" standalone="no"?>
<!-- Created with Inkscape (http://www.inkscape.org/) -->

<svg
   xmlns:dc="http://purl.org/dc/elements/1.1/"
   xmlns:cc="http://creativecommons.org/ns#"
   xmlns:rdf="http://www.w3.org/1999/02/22-rdf-syntax-ns#"
   xmlns:svg="http://www.w3.org/2000/svg"
   xmlns="http://www.w3.org/2000/svg"
   xmlns:sodipodi="http://sodipodi.sourceforge.net/DTD/sodipodi-0.dtd"
   xmlns:inkscape="http://www.inkscape.org/namespaces/inkscape"
   width="64"
   height="64"
   viewBox="0 0 16.933333 16.933334"
   version="1.1"
   id="svg8"
   inkscape:version="0.92.4 (5da689c313, 2019-01-14)"
   sodipodi:docname="chauve_souris.svg">
  <defs
     id="defs2" />
  <sodipodi:namedview
     id="base"
     pagecolor="#ffffff"
     bordercolor="#666666"
     borderopacity="1.0"
     inkscape:pageopacity="0.0"
     inkscape:pageshadow="2"
     inkscape:zoom="4"
     inkscape:cx="34.0105"
     inkscape:cy="42.649986"
     inkscape:document-units="mm"
     inkscape:current-layer="layer1"
     showgrid="true"
     units="px"
     showguides="true"
     inkscape:guide-bbox="true"
     inkscape:window-width="1920"
     inkscape:window-height="1017"
     inkscape:window-x="862"
     inkscape:window-y="2152"
     inkscape:window-maximized="1"
     inkscape:snap-global="false">
    <inkscape:grid
       type="xygrid"
       id="grid828" />
    <sodipodi:guide
       position="0,6.6145836"
       orientation="1,0"
       id="guide4533"
       inkscape:locked="false" />
    <sodipodi:guide
       position="15.875,0"
       orientation="0,1"
       id="guide4535"
       inkscape:locked="false" />
  </sodipodi:namedview>
  <metadata
     id="metadata5">
    <rdf:RDF>
      <cc:Work
         rdf:about="">
        <dc:format>image/svg+xml</dc:format>
        <dc:type
           rdf:resource="http://purl.org/dc/dcmitype/StillImage" />
        <dc:title></dc:title>
      </cc:Work>
    </rdf:RDF>
  </metadata>
  <g
     inkscape:label="Calque 1"
     inkscape:groupmode="layer"
     id="layer1"
     transform="translate(0,-280.06665)">
    <ellipse
       style="fill:none;fill-opacity:0.73728811;stroke:#000000;stroke-width:0.35;stroke-miterlimit:4;stroke-dasharray:none;stroke-opacity:1"
       id="path4539"
       cx="8.4666662"
       cy="288.53333"
       rx="8.2020826"
       ry="8.2020922" />
    <path
       style="fill:#000000;stroke-width:0.01396282"
       d="m 8.286463,292.63476 c -0.012039,-0.0187 -0.011676,-0.0474 0.00134,-0.10081 0.03038,-0.12432 0.0329,-0.17191 0.0092,-0.17424 -0.011749,-0.002 -0.026468,0.01 -0.033185,0.0231 -0.00677,0.0133 -0.016528,0.0248 -0.022129,0.0244 -0.00557,-1.3e-4 -0.038769,0.0179 -0.073852,0.0404 -0.052835,0.034 -0.1036234,0.0555 -0.1482857,0.0621 -0.049901,0.008 -0.1949327,0.0137 -0.2776921,0.0117 -0.1257754,-0.003 -0.4848986,0.005 -0.5170345,0.0134 -0.014164,0.003 -0.081359,-0.0439 -0.1747123,-0.12236 -0.1628152,-0.13665 -0.4228417,-0.32982 -0.5151318,-0.38256 -0.054387,-0.031 -0.1451642,-0.0442 -0.2359606,-0.0328 -0.054121,0.005 -0.1748923,0.22106 -0.1656974,0.29464 0.0046,0.0368 -0.01025,0.0523 -0.05993,0.0627 -0.057417,0.0123 -0.1792196,-0.17854 -0.1704785,-0.26672 0.00226,-0.023 -0.00148,-0.0393 -0.00834,-0.0366 -0.02154,0.009 -0.00945,-0.0352 0.018165,-0.0653 0.014515,-0.0166 0.029042,-0.0366 0.032123,-0.0458 0.011488,-0.0341 0.050403,-0.0917 0.074863,-0.11138 0.020876,-0.0166 0.023473,-0.0302 0.014979,-0.0777 -0.00568,-0.0315 -0.00812,-0.11937 -0.00543,-0.19522 0.010461,-0.2964 -0.023774,-0.74504 -0.074932,-0.9821 -0.077481,-0.35904 -0.1534353,-0.61259 -0.2347877,-0.78386 -0.00623,-0.0141 -0.028337,-0.0642 -0.048888,-0.11366 -0.03307,-0.0791 -0.095573,-0.19445 -0.2219523,-0.40977 -0.069416,-0.11839 -0.2014899,-0.29586 -0.2938283,-0.39507 -0.049934,-0.0539 -0.090357,-0.10512 -0.089808,-0.11434 4.146e-4,-0.01 -0.0061,-0.0162 -0.014691,-0.0156 -0.00865,9.1e-4 -0.058889,-0.043 -0.1117247,-0.0966 -0.052818,-0.0537 -0.1251671,-0.11537 -0.160784,-0.13671 -0.035617,-0.0213 -0.064316,-0.0433 -0.06382,-0.0483 5.144e-4,-0.007 -0.036753,-0.0277 -0.070971,-0.0381 -0.094341,-0.0293 -0.2161246,-0.0816 -0.2149318,-0.0933 0.00177,-0.0179 -0.1203089,-0.0629 -0.1773953,-0.0652 -0.030805,-0.002 -0.066857,-0.0115 -0.079747,-0.0209 -0.01295,-0.01 -0.04431,-0.0174 -0.070006,-0.0172 -0.045571,4.6e-4 -0.047757,5e-5 -0.075803,-0.0845 -0.046497,-0.13965 -0.049655,-0.22538 -0.017123,-0.4674 0.016363,-0.12152 0.042427,-0.32448 0.057965,-0.45103 0.01554,-0.12669 0.032952,-0.23553 0.038698,-0.2422 0.00575,-0.008 0.00534,-0.0158 -8.612e-4,-0.0198 -0.00628,-0.002 -0.010515,-0.0303 -0.00952,-0.058 0.00101,-0.0277 -0.00188,-0.0771 -0.00637,-0.11013 -0.00446,-0.033 -0.013356,-0.11691 -0.019714,-0.18635 -0.00638,-0.0695 -0.024091,-0.17196 -0.039389,-0.22783 -0.029946,-0.10912 -0.038011,-0.17135 -0.045173,-0.34692 -0.00254,-0.0617 -0.00728,-0.12136 -0.010586,-0.13218 -0.00351,-0.0106 0.00366,-0.21689 0.015458,-0.4578 0.011797,-0.24093 0.018996,-0.44241 0.016002,-0.44772 -0.00306,-0.007 -0.00698,-0.0391 -0.00886,-0.075 -0.00188,-0.036 -0.00548,-0.0692 -0.00807,-0.0737 -0.00285,-0.005 -0.00273,-0.0404 -3.694e-4,-0.0792 0.00239,-0.0387 -5.288e-4,-0.08 -0.00636,-0.0911 -0.00585,-0.0112 -0.02461,-0.0755 -0.041672,-0.14246 -0.033777,-0.13235 -0.09021,-0.27895 -0.1080693,-0.28071 -0.006,-1.3e-4 -0.013437,-0.0192 -0.016216,-0.0411 -0.00277,-0.0219 -0.013493,-0.0408 -0.023844,-0.0421 -0.01015,-9e-4 -0.02817,-0.0252 -0.039578,-0.0533 -0.035888,-0.0887 -0.097101,-0.20016 -0.1437688,-0.26153 -0.024753,-0.0326 -0.039617,-0.0629 -0.033069,-0.0677 0.00676,-0.005 0.00239,-0.007 -0.00955,-0.005 -0.011564,-9.2e-4 -0.027683,-0.0113 -0.035317,-0.0276 -0.017637,-0.0378 -0.1023423,-0.11419 -0.2270328,-0.20493 -0.053559,-0.0389 -0.096604,-0.0791 -0.095614,-0.0891 0.00319,-0.0319 0.080965,-0.0481 0.1601435,-0.0338 0.040441,0.007 0.1359067,0.0107 0.212352,0.007 0.1966948,-0.0103 0.3094191,0.002 0.3435912,0.0396 0.014879,0.0157 0.033332,0.0296 0.041072,0.0304 0.00779,9.1e-4 0.018539,0.0105 0.024149,0.0201 0.012022,0.0221 0.1709766,0.16832 0.2781015,0.25548 0.076261,0.062 0.1255028,0.10781 0.224647,0.20865 0.029231,0.0297 0.06694,0.0645 0.083811,0.0767 0.4474293,0.33261 0.5884384,0.44648 0.8715061,0.70357 0.015039,0.0143 0.1015233,0.0914 0.1920939,0.17271 0.090556,0.0813 0.1744702,0.15763 0.186461,0.16965 0.01199,0.0123 0.033759,0.032 0.048395,0.0443 0.014583,0.0127 0.054314,0.0466 0.088143,0.0757 0.033865,0.0295 0.089886,0.0727 0.1245625,0.096 0.034658,0.0233 0.0915,0.0743 0.1263109,0.11348 0.034795,0.0389 0.072822,0.0715 0.084475,0.0727 0.011753,0.002 0.030778,0.0174 0.042219,0.0371 0.029838,0.0499 0.1160607,0.0564 0.2232286,0.0166 0.044919,-0.0166 0.1087092,-0.0317 0.1419795,-0.033 0.054655,-0.003 0.060881,0 0.065935,0.028 0.00689,0.0383 -0.023505,0.12492 -0.049963,0.14241 -0.015213,0.0101 -0.016372,0.008 -0.0059,-0.004 0.011006,-0.0157 0.00975,-0.0154 -0.00788,-0.005 -0.029025,0.0199 -0.046729,0.0155 -0.034079,-0.005 0.00966,-0.0175 -0.018832,-0.0615 -0.041134,-0.0637 -0.0055,-1.3e-4 -0.039404,0.0196 -0.074892,0.0455 l -0.064677,0.0464 -0.00138,0.11485 c -0.014473,1.18329 0.1517695,1.91728 0.5258339,2.3217 0.098931,0.10713 0.1239664,0.12647 0.1780103,0.13964 0.1379076,0.0329 0.1899238,-0.0322 0.2119569,-0.26682 0.019698,-0.20994 0.069571,-0.3579 0.1761789,-0.52254 0.022017,-0.0339 0.057108,-0.0886 0.077946,-0.1213 0.024409,-0.0383 0.051656,-0.0625 0.076673,-0.0682 0.043078,-0.01 0.071124,0.002 0.053723,0.0215 -0.00675,0.008 -0.00395,0.009 0.00574,0.005 0.017554,-0.008 0.08721,0.0578 0.085021,0.0798 -5.146e-4,0.007 0.00937,0.0241 0.022357,0.0381 0.013009,0.0139 0.031438,0.0425 0.041002,0.0629 0.00957,0.0204 0.026904,0.0489 0.038539,0.0634 0.038279,0.0469 0.1045158,0.18748 0.1056957,0.22405 3.199e-4,0.0116 0.00352,0.0291 0.00702,0.0403 0.00358,0.0123 0.012495,0.0466 0.019962,0.0783 0.015818,0.0674 0.093459,0.15003 0.1325314,0.14072 0.063201,-0.0148 0.1958949,-0.0149 0.2772976,1.3e-4 0.1446544,0.027 0.1553316,0.0295 0.1542506,0.0405 -0.00167,0.0167 0.1380055,0.008 0.1763348,-0.0115 0.019365,-0.009 0.044867,-0.0374 0.056993,-0.0616 0.047008,-0.0935 0.1738533,-0.23932 0.2847,-0.32712 0.022154,-0.0185 0.043731,-0.0424 0.047606,-0.0546 0.019103,-0.0613 0.038139,-0.0785 0.077176,-0.071 0.021539,0.004 0.042153,0.009 0.045324,0.0145 0.015295,0.0157 -0.00861,0.23497 -0.054813,0.50415 -0.059619,0.34682 -0.064789,0.44326 -0.028358,0.5286 0.041196,0.0963 0.1170175,0.11293 0.2863019,0.0628 0.1133222,-0.0343 0.2414571,-0.11695 0.3360865,-0.21764 0.027097,-0.0288 0.077102,-0.0782 0.1110983,-0.11018 0.03405,-0.0318 0.06243,-0.0635 0.06314,-0.0707 5.16e-4,-0.007 0.0152,-0.0273 0.03206,-0.0451 0.03782,-0.0392 0.124542,-0.15814 0.175979,-0.24142 0.02113,-0.0342 0.05286,-0.0843 0.0706,-0.11146 0.01772,-0.0271 0.104576,-0.16672 0.192966,-0.31015 0.179571,-0.2912 0.293237,-0.45836 0.335621,-0.49356 0.01569,-0.0125 0.03477,-0.0378 0.0427,-0.055 0.01397,-0.0306 0.0515,-0.0686 0.132765,-0.1347 l 0.03945,-0.0322 -0.03013,-0.0678 c -0.03271,-0.0735 -0.05558,-0.0904 -0.112025,-0.0836 -0.02917,0.004 -0.03595,2.7e-4 -0.03382,-0.0193 0.0043,-0.0364 0.05897,-0.077 0.108742,-0.0811 0.03873,-0.002 0.05017,0.005 0.09466,0.0629 0.05636,0.074 0.128271,0.11596 0.18843,0.1097 0.02182,-0.002 0.07486,-0.0169 0.117605,-0.0323 0.04262,-0.0159 0.108863,-0.0404 0.147353,-0.0541 0.256166,-0.0931 1.007363,-0.29322 1.351064,-0.35953 0.08808,-0.0166 0.191042,-0.0382 0.228925,-0.0473 0.03786,-0.009 0.07563,-0.0166 0.08391,-0.0172 0.03502,-4.3e-4 0.09848,-0.009 0.219414,-0.027 0.07077,-0.0111 0.156301,-0.0228 0.189571,-0.0277 0.118131,-0.0166 0.167192,-0.0245 0.197459,-0.0318 0.03364,-0.008 0.304342,-0.0416 0.552382,-0.0686 0.56017,-0.0609 0.578095,-0.0609 0.684434,-7.9e-4 0.06559,0.0371 0.128772,0.0637 0.207347,0.0872 0.05589,0.0165 0.136431,0.0966 0.132927,0.13189 -0.0028,0.0294 -0.03704,0.0469 -0.110216,0.0562 -0.04739,0.007 -0.250454,0.0625 -0.261343,0.0738 -0.0043,0.003 -0.02419,0.0101 -0.04366,0.0134 -0.06127,0.0102 -0.30838,0.15057 -0.4262,0.24169 -0.107524,0.083 -0.301034,0.28246 -0.304102,0.31336 -7.82e-4,0.009 -0.01232,0.0319 -0.0255,0.0536 -0.04763,0.0773 -0.101646,0.17938 -0.184129,0.34745 -0.135927,0.27701 -0.26712,0.4485 -0.713715,0.93287 -0.464507,0.50383 -0.523864,0.60102 -0.759848,1.2442 -0.07249,0.19759 -0.175133,0.41381 -0.231702,0.48807 -0.05383,0.0708 -0.118226,0.11932 -0.142938,0.10822 -0.01,-0.003 -0.02105,-0.003 -0.02486,0.005 -0.0047,0.009 -0.03716,0.003 -0.107483,-0.0205 -0.07992,-0.0264 -0.115104,-0.033 -0.171039,-0.0281 -0.04842,0.005 -0.07484,9.1e-4 -0.08476,-0.009 -0.01375,-0.0155 -0.05344,-0.01 -0.389247,0.0472 -0.05141,0.009 -0.126918,0.0317 -0.167825,0.05 -0.04062,0.0197 -0.129534,0.0546 -0.197232,0.0788 -0.06758,0.0249 -0.162535,0.0623 -0.210751,0.0845 -0.04828,0.0216 -0.0987,0.0453 -0.112296,0.0511 -0.01359,0.007 -0.02818,0.014 -0.03278,0.0166 -0.0043,0.002 -0.06148,0.0358 -0.126751,0.0724 -0.448087,0.25142 -0.9954377,0.61646 -1.3331199,0.88912 -0.107846,0.0871 -0.2095933,0.16896 -0.2260946,0.18173 -0.08693,0.0678 -0.3086416,0.29676 -0.3503314,0.36182 -0.044356,0.0692 -0.076299,0.14737 -0.079622,0.19483 -0.00104,0.0152 0.010309,0.20327 0.014411,0.2385 4.134e-4,0.003 -0.010545,0.0304 -0.024222,0.0595 -0.030121,0.0634 -0.1041664,0.1168 -0.1817131,0.13042 -0.031169,0.005 -0.057524,0.0149 -0.057995,0.0211 -0.00232,0.0235 -0.06226,0.0177 -0.078685,-0.008 z"
       id="path5776"
       inkscape:connector-curvature="0" />
  </g>
</svg>
