<?xml version="1.0" encoding="UTF-8" standalone="no"?>
<!-- Created with Inkscape (http://www.inkscape.org/) -->

<svg
   xmlns:dc="http://purl.org/dc/elements/1.1/"
   xmlns:cc="http://creativecommons.org/ns#"
   xmlns:rdf="http://www.w3.org/1999/02/22-rdf-syntax-ns#"
   xmlns:svg="http://www.w3.org/2000/svg"
   xmlns="http://www.w3.org/2000/svg"
   xmlns:sodipodi="http://sodipodi.sourceforge.net/DTD/sodipodi-0.dtd"
   xmlns:inkscape="http://www.inkscape.org/namespaces/inkscape"
   width="64"
   height="64"
   viewBox="0 0 16.933333 16.933334"
   version="1.1"
   id="svg8"
   inkscape:version="0.92.4 (5da689c313, 2019-01-14)"
   sodipodi:docname="echo_location.svg">
  <defs
     id="defs2" />
  <sodipodi:namedview
     id="base"
     pagecolor="#ffffff"
     bordercolor="#666666"
     borderopacity="1.0"
     inkscape:pageopacity="0.0"
     inkscape:pageshadow="2"
     inkscape:zoom="5.6568542"
     inkscape:cx="38.255097"
     inkscape:cy="14.456696"
     inkscape:document-units="mm"
     inkscape:current-layer="layer1"
     showgrid="true"
     units="px"
     showguides="true"
     inkscape:guide-bbox="true"
     inkscape:window-width="1920"
     inkscape:window-height="1017"
     inkscape:window-x="862"
     inkscape:window-y="2152"
     inkscape:window-maximized="1"
     inkscape:snap-global="false">
    <inkscape:grid
       type="xygrid"
       id="grid828" />
    <sodipodi:guide
       position="0,6.6145836"
       orientation="1,0"
       id="guide4533"
       inkscape:locked="false" />
    <sodipodi:guide
       position="15.875,0"
       orientation="0,1"
       id="guide4535"
       inkscape:locked="false" />
  </sodipodi:namedview>
  <metadata
     id="metadata5">
    <rdf:RDF>
      <cc:Work
         rdf:about="">
        <dc:format>image/svg+xml</dc:format>
        <dc:type
           rdf:resource="http://purl.org/dc/dcmitype/StillImage" />
        <dc:title></dc:title>
      </cc:Work>
    </rdf:RDF>
  </metadata>
  <g
     inkscape:label="Calque 1"
     inkscape:groupmode="layer"
     id="layer1"
     transform="translate(0,-280.06665)">
    <ellipse
       style="fill:none;fill-opacity:0.73728811;stroke:#000000;stroke-width:0.35;stroke-miterlimit:4;stroke-dasharray:none;stroke-opacity:1"
       id="path4539"
       cx="8.4666662"
       cy="288.53333"
       rx="8.2020826"
       ry="8.2020922" />
    <path
       style="fill:#000000;stroke-width:0.0612178"
       d="m 13.209806,292.26772 c -0.160958,-0.16096 -0.117587,-0.43058 0.110049,-0.68415 0.450601,-0.50193 0.849745,-1.27069 1.025142,-1.97446 0.109826,-0.44065 0.109297,-1.70646 -9.02e-4,-2.13823 -0.183324,-0.71833 -0.554706,-1.43927 -1.02495,-1.98969 -0.226287,-0.26485 -0.254575,-0.42738 -0.110249,-0.63344 0.193999,-0.27697 0.453841,-0.16509 0.854587,0.36795 1.407433,1.87205 1.467959,4.49923 0.147762,6.4136 -0.476107,0.69038 -0.76519,0.87467 -1.001447,0.63842 z m -1.21924,-0.99521 c -0.166048,-0.18347 -0.113968,-0.38602 0.207327,-0.80632 0.828202,-1.08338 0.882732,-2.58165 0.133426,-3.66604 -0.405998,-0.58756 -0.441418,-0.64825 -0.441746,-0.75694 -4.4e-4,-0.14832 0.217355,-0.352 0.376388,-0.352 0.280522,0 0.912078,0.92311 1.127232,1.6476 0.32084,1.08039 0.173493,2.3186 -0.384739,3.23309 -0.463755,0.75972 -0.772237,0.97206 -1.017888,0.70061 z m -1.230374,-1.00359 c -0.139418,-0.19905 -0.119397,-0.30266 0.117149,-0.60628 0.523192,-0.67153 0.5355,-1.5775 0.02999,-2.20783 -0.208167,-0.25957 -0.235816,-0.53209 -0.06928,-0.6828 0.168507,-0.1525 0.332848,-0.12306 0.545191,0.0976 0.456351,0.47432 0.710279,1.37488 0.582066,2.06431 -0.192403,1.0346 -0.881134,1.79753 -1.205129,1.33496 z"
       id="path5763"
       inkscape:connector-curvature="0"
       sodipodi:nodetypes="cscccsccccsscssssscsscsccc" />
    <path
       style="fill:#000000;stroke-width:0.00989806"
       d="m 6.6295641,291.15735 c -0.010822,-0.0114 -0.014339,-0.0315 -0.012253,-0.0704 0.0049,-0.0906 4.277e-4,-0.12408 -0.016388,-0.12261 -0.00839,4.5e-4 -0.017214,0.01 -0.020091,0.0205 -0.00298,0.0101 -0.00826,0.0195 -0.012222,0.0199 -0.0039,6.4e-4 -0.024656,0.0176 -0.046169,0.0378 -0.032362,0.0306 -0.06494,0.0522 -0.095186,0.0627 -0.033775,0.0118 -0.1340145,0.0351 -0.1919357,0.0445 -0.087964,0.0147 -0.3369942,0.0679 -0.3584648,0.077 -0.00943,0.004 -0.062435,-0.02 -0.1377335,-0.0624 -0.1313134,-0.0739 -0.3377516,-0.17446 -0.4089491,-0.19912 -0.041957,-0.0145 -0.1069084,-0.0117 -0.1686848,0.008 -0.036976,0.011 -0.092924,0.1769 -0.076892,0.22695 0.00802,0.025 -2.945e-4,0.0378 -0.033556,0.0515 -0.038409,0.016 -0.1482247,-0.10094 -0.1536723,-0.16352 -0.00143,-0.0163 -0.00617,-0.0272 -0.010603,-0.0244 -0.013843,0.009 -0.011184,-0.0233 0.0041,-0.0479 0.00795,-0.0134 0.01545,-0.0293 0.016386,-0.0361 0.00355,-0.0252 0.023116,-0.0705 0.037585,-0.0874 0.012368,-0.0143 0.012403,-0.0241 2.686e-4,-0.0561 -0.00807,-0.0212 -0.021273,-0.0821 -0.029329,-0.1353 -0.031493,-0.20787 -0.1140462,-0.51596 -0.1807065,-0.67443 -0.1009593,-0.24001 -0.1870535,-0.40672 -0.2661396,-0.51539 -0.00618,-0.009 -0.028154,-0.0411 -0.048934,-0.0728 -0.033392,-0.0508 -0.092029,-0.12297 -0.2082516,-0.25645 -0.063854,-0.0734 -0.1790896,-0.17976 -0.2564047,-0.2368 -0.041842,-0.031 -0.076706,-0.0614 -0.07753,-0.0679 -0.00101,-0.007 -0.00637,-0.0105 -0.012289,-0.009 -0.00584,0.002 -0.046648,-0.0222 -0.090478,-0.0527 -0.04383,-0.0305 -0.1022994,-0.064 -0.1299061,-0.0742 -0.027606,-0.0102 -0.05047,-0.0217 -0.050781,-0.0253 -5.473e-4,-0.005 -0.029225,-0.0145 -0.054418,-0.0172 -0.069555,-0.008 -0.1612528,-0.0286 -0.1619539,-0.0369 -0.00111,-0.0127 -0.092051,-0.0281 -0.1321241,-0.0222 -0.021694,0.003 -0.048091,10e-4 -0.058307,-0.004 -0.010259,-0.005 -0.033141,-0.006 -0.051019,-0.003 -0.031689,0.006 -0.033265,0.006 -0.063873,-0.049 -0.050666,-0.0912 -0.064084,-0.15052 -0.073085,-0.32339 -0.0045,-0.0868 -0.012897,-0.23162 -0.018628,-0.32182 -0.00575,-0.0903 -0.00786,-0.16841 -0.00473,-0.17381 0.00296,-0.006 0.00165,-0.0117 -0.00319,-0.0137 -0.00466,-0.001 -0.011285,-0.0197 -0.014213,-0.0391 -0.00292,-0.0194 -0.011412,-0.0535 -0.018843,-0.0759 -0.00743,-0.0224 -0.024601,-0.0797 -0.038117,-0.12725 -0.013532,-0.0476 -0.039285,-0.11666 -0.057253,-0.15358 -0.035141,-0.0721 -0.048901,-0.1144 -0.076865,-0.23579 -0.00985,-0.0427 -0.020954,-0.0836 -0.024669,-0.0907 -0.00384,-0.007 -0.025828,-0.15159 -0.049131,-0.32098 -0.023305,-0.1694 -0.044651,-0.31071 -0.047434,-0.31403 -0.00299,-0.004 -0.00997,-0.0263 -0.015982,-0.0511 -0.00601,-0.0248 -0.012876,-0.0475 -0.015273,-0.0503 -0.00258,-0.003 -0.00719,-0.0278 -0.010619,-0.0551 -0.00341,-0.0273 -0.010826,-0.0556 -0.016355,-0.0627 -0.00553,-0.007 -0.027027,-0.0494 -0.047673,-0.0938 -0.040851,-0.0878 -0.099349,-0.18254 -0.1120234,-0.18144 -0.0042,7.8e-4 -0.01187,-0.0116 -0.016669,-0.0265 -0.00479,-0.0149 -0.014744,-0.0267 -0.022119,-0.0262 -0.00719,10e-4 -0.022929,-0.0139 -0.034556,-0.032 -0.036605,-0.0571 -0.093841,-0.12675 -0.1343836,-0.16339 -0.021501,-0.0194 -0.035844,-0.0387 -0.031896,-0.0428 0.00409,-0.004 8.007e-4,-0.005 -0.00741,-0.003 -0.00821,10e-4 -0.020754,-0.004 -0.028216,-0.0146 -0.017221,-0.024 -0.086243,-0.0662 -0.1849893,-0.11307 -0.04241,-0.0201 -0.077656,-0.0425 -0.078267,-0.0495 -0.00195,-0.0226 0.050119,-0.0441 0.1071502,-0.0445 0.029079,-4.8e-4 0.096098,-0.0103 0.148796,-0.0233 0.1356789,-0.033 0.2158957,-0.0388 0.2445714,-0.0173 0.012425,0.009 0.027099,0.0163 0.03259,0.0158 0.00557,-3e-4 0.014291,0.005 0.019451,0.0108 0.011282,0.0139 0.1411442,0.0949 0.2271839,0.14161 0.061238,0.0332 0.1015443,0.0587 0.1838129,0.11597 0.024259,0.0169 0.055066,0.0361 0.068429,0.0425 0.3552487,0.1732 0.4683894,0.23408 0.6992419,0.37615 0.012343,0.008 0.082687,0.0504 0.1564321,0.0952 0.073727,0.0448 0.1421815,0.087 0.1521069,0.0938 0.00996,0.007 0.027708,0.0179 0.039512,0.0245 0.011831,0.007 0.043925,0.0253 0.071317,0.0412 0.027444,0.0161 0.072141,0.0389 0.099344,0.0506 0.027203,0.0117 0.073476,0.0398 0.1028488,0.0625 0.029322,0.0225 0.060096,0.0403 0.06837,0.0396 0.00839,-4.6e-4 0.023708,0.008 0.03427,0.0203 0.027308,0.0308 0.088239,0.0241 0.1576907,-0.0177 0.029132,-0.0174 0.071587,-0.0363 0.0946,-0.0416 0.037729,-0.009 0.042417,-0.008 0.049604,0.0109 0.00981,0.0258 -3.3e-5,0.0901 -0.016177,0.10575 -0.00928,0.009 -0.010313,0.008 -0.00465,-0.002 0.0056,-0.0124 0.00477,-0.012 -0.00607,-0.002 -0.017615,0.0177 -0.030529,0.0169 -0.024578,1e-5 0.00445,-0.0134 -0.021167,-0.0404 -0.036991,-0.039 -0.00385,6.3e-4 -0.024892,0.0188 -0.046237,0.0414 l -0.038988,0.0408 0.014063,0.0802 c 0.144741,0.82629 0.3566016,1.31592 0.6701311,1.54874 0.082943,0.0617 0.1029173,0.0719 0.142293,0.074 0.1003885,0.005 0.1281053,-0.0473 0.1127604,-0.21363 -0.013746,-0.14885 0.00164,-0.25845 0.054374,-0.38711 0.010908,-0.0265 0.028202,-0.0692 0.038436,-0.0947 0.01199,-0.0299 0.027811,-0.0503 0.044491,-0.0576 0.028722,-0.0125 0.049791,-0.008 0.040245,0.008 -0.00369,0.006 -0.00154,0.007 0.00466,0.003 0.011153,-0.008 0.068335,0.0289 0.069669,0.0444 5.472e-4,0.005 0.00967,0.0155 0.020573,0.0237 0.010879,0.008 0.027465,0.0255 0.036803,0.0385 0.00934,0.013 0.025152,0.0306 0.035145,0.0391 0.032806,0.0277 0.097347,0.11694 0.1029544,0.14227 0.00174,0.008 0.00625,0.0198 0.010151,0.0271 0.00409,0.008 0.014799,0.0308 0.02416,0.052 0.019846,0.0449 0.084744,0.0923 0.1107482,0.0807 0.042096,-0.0186 0.1345378,-0.036 0.1932126,-0.0362 0.1043193,-9e-5 0.11209,2.8e-4 0.1127667,0.008 0.00102,0.0119 0.097192,-0.0125 0.1213481,-0.0311 0.012275,-0.009 0.026365,-0.0319 0.031648,-0.0504 0.020516,-0.0713 0.089809,-0.1895 0.1555491,-0.26517 0.013027,-0.0157 0.024929,-0.0352 0.026019,-0.0443 0.00529,-0.0452 0.016303,-0.0597 0.044486,-0.0595 0.015474,-3.3e-4 0.030535,0.001 0.033478,0.004 0.012725,0.009 0.024752,0.16484 0.027777,0.35842 0.00384,0.24944 0.012857,0.3173 0.049406,0.37199 0.0413,0.0617 0.096303,0.0634 0.2076846,0.006 0.074468,-0.0387 0.1529246,-0.11306 0.205678,-0.1956 0.015111,-0.0236 0.043477,-0.0646 0.062987,-0.0913 0.01956,-0.0266 0.035186,-0.0524 0.034742,-0.0575 -5.472e-4,-0.005 0.007,-0.0211 0.016432,-0.0356 0.021232,-0.0322 0.066078,-0.12647 0.091018,-0.19122 0.01024,-0.0266 0.025789,-0.0657 0.034597,-0.0869 0.0088,-0.0212 0.051043,-0.12984 0.09386,-0.24133 0.087006,-0.22638 0.1443254,-0.35771 0.1692488,-0.38778 0.00931,-0.0107 0.019285,-0.0309 0.02256,-0.0439 0.0057,-0.0231 0.026898,-0.0546 0.074874,-0.11122 l 0.023264,-0.0276 -0.029875,-0.0433 c -0.032397,-0.0469 -0.050551,-0.0557 -0.088988,-0.0436 -0.019862,0.006 -0.02501,0.005 -0.026089,-0.009 -0.00174,-0.0259 0.030999,-0.0614 0.065156,-0.0707 0.026762,-0.006 0.035661,-0.003 0.074193,0.0315 0.048965,0.0442 0.104539,0.064 0.1456334,0.0518 0.014952,-0.004 0.049937,-0.0216 0.077702,-0.0379 0.027611,-0.0167 0.070556,-0.0424 0.095576,-0.057 0.1662871,-0.0984 0.6634727,-0.33609 0.8942552,-0.42726 0.059193,-0.0231 0.128098,-0.0516 0.153311,-0.0629 0.025211,-0.0112 0.050513,-0.0215 0.056223,-0.0229 0.02434,-0.005 0.06745,-0.0191 0.149337,-0.0475 0.047857,-0.017 0.1059135,-0.0363 0.1284543,-0.0441 0.080141,-0.027 0.1132704,-0.039 0.1334084,-0.048 0.022388,-0.01 0.2065921,-0.0688 0.3758762,-0.12006 0.382309,-0.1157 0.39479,-0.11809 0.476746,-0.0901 0.05056,0.0173 0.09805,0.0275 0.155866,0.0336 0.0411,0.004 0.107695,0.0495 0.109869,0.0745 0.0018,0.0208 -0.01967,0.0375 -0.06943,0.0536 -0.03212,0.011 -0.166319,0.0763 -0.172426,0.0856 -0.0026,0.003 -0.01553,0.0102 -0.02867,0.015 -0.04134,0.0152 -0.19515,0.14525 -0.265312,0.22416 -0.06405,0.0719 -0.172776,0.23617 -0.17087,0.2581 6.17e-4,0.006 -0.0044,0.0239 -0.01075,0.0407 -0.02306,0.0601 -0.04735,0.13827 -0.082823,0.26616 -0.058457,0.21078 -0.1274226,0.34742 -0.3751902,0.74332 -0.2577042,0.4118 -0.2863413,0.48728 -0.3665958,0.96627 -0.024657,0.14714 -0.067875,0.31121 -0.09757,0.37035 -0.02825,0.0563 -0.06676,0.0986 -0.085426,0.0941 -0.00734,-10e-4 -0.015053,0.001 -0.016617,0.007 -0.00206,0.007 -0.025496,0.007 -0.077569,-2.3e-4 -0.059145,-0.008 -0.084517,-0.008 -0.122842,0.003 -0.032999,0.0103 -0.051985,0.0106 -0.060218,0.005 -0.011614,-0.009 -0.038493,3e-4 -0.2650173,0.0838 -0.034599,0.0132 -0.084287,0.0386 -0.1103678,0.0569 -0.025712,0.0191 -0.083105,0.055 -0.1271039,0.0807 -0.043838,0.0261 -0.1050834,0.0647 -0.1357656,0.0865 -0.030812,0.0214 -0.062845,0.0444 -0.071549,0.0503 -0.00862,0.006 -0.017801,0.0134 -0.020681,0.0158 -0.00271,0.002 -0.038156,0.033 -0.078839,0.067 -0.2792905,0.23379 -0.6128695,0.55974 -0.8124607,0.79388 -0.06374,0.0748 -0.1239179,0.14514 -0.1337429,0.1562 -0.051692,0.0586 -0.176203,0.24714 -0.1967367,0.29792 -0.021851,0.054 -0.033875,0.11266 -0.029981,0.14616 0.00125,0.0107 0.033779,0.14027 0.041247,0.16428 6.919e-4,0.002 -0.00338,0.0225 -0.0091,0.0446 -0.012698,0.0481 -0.057291,0.095 -0.1095359,0.11464 -0.020973,0.008 -0.038132,0.0179 -0.037645,0.0223 0.00146,0.0167 -0.041062,0.0205 -0.055836,0.005 z"
       id="path5776"
       inkscape:connector-curvature="0" />
  </g>
</svg>
