<?xml version="1.0" encoding="UTF-8" standalone="no"?>
<!-- Created with Inkscape (http://www.inkscape.org/) -->

<svg
   xmlns:dc="http://purl.org/dc/elements/1.1/"
   xmlns:cc="http://creativecommons.org/ns#"
   xmlns:rdf="http://www.w3.org/1999/02/22-rdf-syntax-ns#"
   xmlns:svg="http://www.w3.org/2000/svg"
   xmlns="http://www.w3.org/2000/svg"
   xmlns:sodipodi="http://sodipodi.sourceforge.net/DTD/sodipodi-0.dtd"
   xmlns:inkscape="http://www.inkscape.org/namespaces/inkscape"
   width="64"
   height="64"
   viewBox="0 0 16.933333 16.933334"
   version="1.1"
   id="svg8"
   inkscape:version="0.92.4 (5da689c313, 2019-01-14)"
   sodipodi:docname="eolienne.svg">
  <defs
     id="defs2" />
  <sodipodi:namedview
     id="base"
     pagecolor="#ffffff"
     bordercolor="#666666"
     borderopacity="1.0"
     inkscape:pageopacity="0.0"
     inkscape:pageshadow="2"
     inkscape:zoom="4"
     inkscape:cx="47.472653"
     inkscape:cy="13.273968"
     inkscape:document-units="mm"
     inkscape:current-layer="layer1"
     showgrid="true"
     units="px"
     showguides="true"
     inkscape:guide-bbox="true"
     inkscape:window-width="1920"
     inkscape:window-height="1017"
     inkscape:window-x="862"
     inkscape:window-y="2152"
     inkscape:window-maximized="1"
     inkscape:snap-global="false">
    <inkscape:grid
       type="xygrid"
       id="grid828" />
    <sodipodi:guide
       position="0,6.6145836"
       orientation="1,0"
       id="guide4533"
       inkscape:locked="false" />
    <sodipodi:guide
       position="15.875,0"
       orientation="0,1"
       id="guide4535"
       inkscape:locked="false" />
  </sodipodi:namedview>
  <metadata
     id="metadata5">
    <rdf:RDF>
      <cc:Work
         rdf:about="">
        <dc:format>image/svg+xml</dc:format>
        <dc:type
           rdf:resource="http://purl.org/dc/dcmitype/StillImage" />
        <dc:title></dc:title>
      </cc:Work>
    </rdf:RDF>
  </metadata>
  <g
     inkscape:label="Calque 1"
     inkscape:groupmode="layer"
     id="layer1"
     transform="translate(0,-280.06665)">
    <ellipse
       style="fill:none;fill-opacity:0.73728811;stroke:#000000;stroke-width:0.35;stroke-miterlimit:4;stroke-dasharray:none;stroke-opacity:1"
       id="path4539"
       cx="8.4666662"
       cy="288.53333"
       rx="8.2020826"
       ry="8.2020922" />
    <path
       style="fill:#000000;stroke-width:0.0547858"
       d="m 7.2733157,294.6453 c -0.063146,-0.0649 -0.035015,-0.49829 0.1861063,-2.8684 0.1432678,-1.53559 0.2476795,-2.80513 0.232026,-2.82122 -0.015658,-0.0161 -0.9463208,0.32908 -2.0681508,0.76704 -1.1218299,0.43796 -2.1126551,0.79852 -2.2018355,0.80126 -0.1256437,0.005 -0.1658059,-0.0214 -0.1784058,-0.11204 -0.013731,-0.0988 0.3272879,-0.34439 2.1889612,-1.57636 1.2128726,-0.80262 2.2120491,-1.46501 2.2203931,-1.47199 0.00835,-0.007 0.1564716,-1.11795 0.3291749,-2.46883 0.3042817,-2.38006 0.3381751,-2.55228 0.5030576,-2.5561 0.146147,-0.004 0.2015726,0.281 0.4719764,2.42176 0.1576979,1.24847 0.3036374,2.34493 0.3243105,2.43655 0.033042,0.14645 0.3019669,0.34221 2.2236614,1.61872 1.85221,1.23035 2.186076,1.47196 2.186076,1.58194 0,0.0765 -0.03663,0.13705 -0.08908,0.14744 -0.04899,0.01 -1.024075,-0.34608 -2.166848,-0.79059 -1.142769,-0.44451 -2.1061685,-0.80821 -2.140887,-0.80821 -0.044111,0 -0.053665,0.0878 -0.03172,0.29154 0.211306,1.96143 0.4896078,5.35679 0.4437992,5.4145 -0.083568,0.10526 -2.3296472,0.0988 -2.4326197,-0.007 z m 2.0366355,-0.30767 c 0.016833,-0.028 -0.084201,-1.2921 -0.2245402,-2.80912 l -0.2551515,-2.75825 -0.1539191,-0.0818 c -0.1232904,-0.0655 -0.1909047,-0.0692 -0.3397785,-0.0188 -0.1022236,0.0347 -0.1877814,0.0673 -0.1901282,0.0725 -0.028948,0.065 -0.5235793,5.56675 -0.5034808,5.60017 0.038007,0.0632 1.6288599,0.0586 1.6669983,-0.005 z m -2.4564767,-5.47304 c 0.6093609,-0.23498 1.1155125,-0.43504 1.1247807,-0.44456 0.00927,-0.01 -0.044432,-0.0803 -0.1193474,-0.15726 -0.074904,-0.077 -0.1523487,-0.20606 -0.1720893,-0.28687 -0.020256,-0.083 -0.06444,-0.13567 -0.1014416,-0.12108 -0.1125913,0.0444 -2.3502331,1.54123 -2.3813583,1.59298 -0.035465,0.0589 0.2018745,-0.0249 1.6494559,-0.58321 z m 4.7746525,0.49226 c -0.228022,-0.18622 -2.2467452,-1.52125 -2.3003186,-1.52125 -0.023148,0 -0.042091,0.0473 -0.042091,0.10519 0,0.0578 -0.073674,0.18624 -0.1637344,0.28529 -0.090057,0.0991 -0.1569397,0.18549 -0.1486343,0.19208 0.00835,0.007 0.5866659,0.23047 1.2852413,0.4975 0.698576,0.26703 1.318782,0.50642 1.378235,0.53197 0.174204,0.0749 0.172514,0.0572 -0.0087,-0.0908 z M 8.7649692,288.0537 c 0.3887812,-0.31421 -0.046185,-0.87899 -0.4938005,-0.64117 -0.3879,0.2061 -0.2396246,0.75627 0.2038231,0.75627 0.081163,0 0.2116521,-0.0518 0.2899774,-0.1151 z m 0.087882,-1.05109 c -2.644e-4,-0.0153 -0.073224,-0.58922 -0.1621447,-1.27543 -0.088919,-0.68621 -0.1616674,-1.27222 -0.1616674,-1.30225 0,-0.0344 -0.018623,-0.0352 -0.050499,-0.002 -0.027764,0.029 -0.1136679,0.55255 -0.1908799,1.16342 -0.077207,0.61087 -0.15334,1.18563 -0.169178,1.27727 l -0.028792,0.16659 h 0.3818213 c 0.2100009,0 0.3816056,-0.0125 0.3813422,-0.0278 z"
       id="path5750"
       inkscape:connector-curvature="0"
       sodipodi:nodetypes="cccsccccccsccsccscccccccccccccccccccccssccscccccscccsccccscc" />
  </g>
</svg>
