<?xml version="1.0" encoding="UTF-8" standalone="no"?>
<!-- Created with Inkscape (http://www.inkscape.org/) -->

<svg
   xmlns:dc="http://purl.org/dc/elements/1.1/"
   xmlns:cc="http://creativecommons.org/ns#"
   xmlns:rdf="http://www.w3.org/1999/02/22-rdf-syntax-ns#"
   xmlns:svg="http://www.w3.org/2000/svg"
   xmlns="http://www.w3.org/2000/svg"
   xmlns:sodipodi="http://sodipodi.sourceforge.net/DTD/sodipodi-0.dtd"
   xmlns:inkscape="http://www.inkscape.org/namespaces/inkscape"
   width="64"
   height="64"
   viewBox="0 0 16.933333 16.933334"
   version="1.1"
   id="svg8"
   inkscape:version="0.92.4 (5da689c313, 2019-01-14)"
   sodipodi:docname="foret.svg">
  <defs
     id="defs2" />
  <sodipodi:namedview
     id="base"
     pagecolor="#ffffff"
     bordercolor="#666666"
     borderopacity="1.0"
     inkscape:pageopacity="0.0"
     inkscape:pageshadow="2"
     inkscape:zoom="4"
     inkscape:cx="58.265023"
     inkscape:cy="65.320343"
     inkscape:document-units="mm"
     inkscape:current-layer="layer1"
     showgrid="true"
     units="px"
     showguides="true"
     inkscape:guide-bbox="true"
     inkscape:window-width="1920"
     inkscape:window-height="1017"
     inkscape:window-x="862"
     inkscape:window-y="2152"
     inkscape:window-maximized="1"
     inkscape:snap-global="false">
    <inkscape:grid
       type="xygrid"
       id="grid828" />
    <sodipodi:guide
       position="0,6.6145836"
       orientation="1,0"
       id="guide4533"
       inkscape:locked="false" />
    <sodipodi:guide
       position="15.875,0"
       orientation="0,1"
       id="guide4535"
       inkscape:locked="false" />
  </sodipodi:namedview>
  <metadata
     id="metadata5">
    <rdf:RDF>
      <cc:Work
         rdf:about="">
        <dc:format>image/svg+xml</dc:format>
        <dc:type
           rdf:resource="http://purl.org/dc/dcmitype/StillImage" />
        <dc:title></dc:title>
      </cc:Work>
    </rdf:RDF>
  </metadata>
  <g
     inkscape:label="Calque 1"
     inkscape:groupmode="layer"
     id="layer1"
     transform="translate(0,-280.06665)">
    <ellipse
       style="fill:none;fill-opacity:0.73728811;stroke:#000000;stroke-width:0.35;stroke-miterlimit:4;stroke-dasharray:none;stroke-opacity:1"
       id="path4539"
       cx="8.4666662"
       cy="288.53333"
       rx="8.2020826"
       ry="8.2020922" />
    <path
       style="fill:#000000;stroke-width:0.0586467"
       d="m 7.5005561,293.66913 c -0.197545,-0.19754 -0.19528,-0.16096 -0.09227,-1.49048 l 0.07196,-0.92882 -0.236838,-0.11923 c -0.343071,-0.1727 -0.720854,-0.49518 -0.944036,-0.80583 -0.189563,-0.26387 -0.203164,-0.27111 -0.534637,-0.28498 -0.444258,-0.0186 -0.735224,-0.0992 -1.148758,-0.31844 -0.97911,-0.51897 -1.580325,-1.71335 -1.402532,-2.7863 0.140349,-0.84697 0.734664,-1.68148 1.445334,-2.02946 0.345704,-0.16928 0.97556,-0.32842 1.306813,-0.33019 0.10483,-6.7e-4 0.1906,-0.0229 0.1906,-0.0497 0,-0.0268 0.143002,-0.20667 0.317781,-0.39981 0.510092,-0.56367 1.254243,-0.89825 2.001105,-0.89972 1.147541,-0.002 2.2301159,0.74008 2.5809809,1.76981 l 0.0895,0.26267 0.393669,0.0722 c 0.890092,0.16338 1.609404,0.7091 1.992682,1.5118 0.2168,0.45405 0.219035,0.4662 0.219035,1.19181 0,0.69919 -0.0084,0.7507 -0.182173,1.11428 -0.337712,0.70668 -0.914166,1.21317 -1.670898,1.46809 -0.302336,0.10185 -0.480249,0.1222 -0.932726,0.10666 l -0.559127,-0.0192 -0.357342,0.23388 c -0.1965359,0.12864 -0.3988509,0.26028 -0.4495889,0.29253 -0.08324,0.0529 -0.0843,0.15605 -0.01088,1.05564 0.04475,0.54835 0.08259,1.04521 0.08408,1.10414 0.0016,0.0589 -0.07443,0.18428 -0.168712,0.27857 l -0.171429,0.17143 h -0.830076 -0.830076 z m 1.499719,-0.63496 c -0.01467,-0.0887 -0.06685,-0.76827 -0.115962,-1.51015 -0.04911,-0.74189 -0.104389,-1.46338 -0.122849,-1.60333 l -0.03356,-0.25445 0.745265,-0.75321 c 0.7439069,-0.75183 0.8219219,-0.88291 0.5806099,-0.97551 -0.06492,-0.0249 -0.2931189,0.16168 -0.7547319,0.61712 -0.460756,0.45459 -0.703102,0.65283 -0.798096,0.65283 -0.09692,0 -0.378465,-0.23999 -0.972479,-0.82894 -0.836318,-0.82919 -0.964642,-0.90941 -1.059455,-0.66233 -0.02613,0.0681 0.214249,0.3459 0.851707,0.98435 l 0.888106,0.8895 -5.8e-5,0.32187 c -6e-5,0.30808 -0.13903,2.33189 -0.204314,2.97563 l -0.03123,0.3079 h 0.526867 0.526865 l -0.02667,-0.16128 z m -1.436563,-2.84515 v -0.30868 l -0.82265,-0.82027 c -0.87363,-0.8711 -0.98849,-1.0539 -0.913472,-1.45378 0.05421,-0.28896 0.228441,-0.48455 0.536427,-0.60217 0.445422,-0.1701 0.639023,-0.0732 1.44745,0.72418 l 0.687604,0.67825 0.549002,-0.53111 c 0.371251,-0.35916 0.610569,-0.54463 0.739163,-0.57288 0.6205459,-0.13629 1.1514029,0.37668 1.0345259,0.99968 -0.03323,0.17717 -0.172715,0.35458 -0.711348,0.90482 l -0.6700059,0.68443 v 0.30311 c 0,0.38091 0.05757,0.38509 0.468855,0.034 0.2818299,-0.24056 0.3342739,-0.26392 0.4949929,-0.2205 0.09887,0.0267 0.417282,0.0488 0.707584,0.0491 0.459792,4.5e-4 0.570828,-0.0205 0.861525,-0.16329 0.43241,-0.21235 0.878359,-0.69808 1.047738,-1.14122 0.500043,-1.30823 -0.420104,-2.71957 -1.835431,-2.81521 -0.445125,-0.0301 -0.630975,-0.12269 -0.630975,-0.31442 0,-0.0583 -0.05707,-0.25855 -0.126832,-0.44499 -0.153143,-0.40931 -0.6371749,-0.91937 -1.0754259,-1.13326 -0.408933,-0.19958 -1.27009,-0.20832 -1.684171,-0.0171 -0.34039,0.1572 -0.840053,0.6158 -0.988969,0.9077 -0.061,0.11957 -0.144269,0.23846 -0.18505,0.2642 -0.04078,0.0257 -0.272079,0.0485 -0.513998,0.0506 -0.537542,0.005 -0.929287,0.13098 -1.319549,0.42552 -0.546269,0.41227 -0.812373,0.95231 -0.815469,1.65494 -0.003,0.68899 0.32177,1.32073 0.874598,1.70109 0.394443,0.27138 0.704716,0.3632 1.258813,0.37251 l 0.496888,0.008 0.214314,0.32387 c 0.239327,0.36167 0.651853,0.76109 0.786066,0.76109 0.06685,0 0.0878,-0.0737 0.0878,-0.30868 z"
       id="path5737"
       inkscape:connector-curvature="0"
       sodipodi:nodetypes="ccccccccccsccccccsccccccccccccccccccccssccccccccccacccccccccccsccccccscccscccccccssca" />
  </g>
</svg>
