<?xml version="1.0" encoding="UTF-8" standalone="no"?>
<!-- Created with Inkscape (http://www.inkscape.org/) -->

<svg
   xmlns:dc="http://purl.org/dc/elements/1.1/"
   xmlns:cc="http://creativecommons.org/ns#"
   xmlns:rdf="http://www.w3.org/1999/02/22-rdf-syntax-ns#"
   xmlns:svg="http://www.w3.org/2000/svg"
   xmlns="http://www.w3.org/2000/svg"
   xmlns:sodipodi="http://sodipodi.sourceforge.net/DTD/sodipodi-0.dtd"
   xmlns:inkscape="http://www.inkscape.org/namespaces/inkscape"
   width="64"
   height="64"
   viewBox="0 0 16.933333 16.933334"
   version="1.1"
   id="svg8"
   inkscape:version="0.92.4 (5da689c313, 2019-01-14)"
   sodipodi:docname="partenaires_no_circle.svg">
  <defs
     id="defs2" />
  <sodipodi:namedview
     id="base"
     pagecolor="#ffffff"
     bordercolor="#666666"
     borderopacity="1.0"
     inkscape:pageopacity="0.0"
     inkscape:pageshadow="2"
     inkscape:zoom="8"
     inkscape:cx="10.500983"
     inkscape:cy="25.078284"
     inkscape:document-units="mm"
     inkscape:current-layer="layer1"
     showgrid="true"
     units="px"
     showguides="true"
     inkscape:guide-bbox="true"
     inkscape:window-width="1920"
     inkscape:window-height="1017"
     inkscape:window-x="862"
     inkscape:window-y="2152"
     inkscape:window-maximized="1"
     inkscape:snap-global="false">
    <inkscape:grid
       type="xygrid"
       id="grid828" />
    <sodipodi:guide
       position="0,6.6145836"
       orientation="1,0"
       id="guide4533"
       inkscape:locked="false" />
    <sodipodi:guide
       position="15.875,0"
       orientation="0,1"
       id="guide4535"
       inkscape:locked="false" />
  </sodipodi:namedview>
  <metadata
     id="metadata5">
    <rdf:RDF>
      <cc:Work
         rdf:about="">
        <dc:format>image/svg+xml</dc:format>
        <dc:type
           rdf:resource="http://purl.org/dc/dcmitype/StillImage" />
        <dc:title></dc:title>
      </cc:Work>
    </rdf:RDF>
  </metadata>
  <g
     inkscape:label="Calque 1"
     inkscape:groupmode="layer"
     id="layer1"
     transform="translate(0,-280.06665)">
    <path
       style="fill:#000000;stroke-width:0.0243507"
       d="m 7.1763859,293.26736 c -0.2332768,-0.0455 -0.4813473,-0.23427 -0.583344,-0.4437 l -0.055719,-0.1144 -0.2029196,0.002 c -0.1691854,0.001 -0.2263629,-0.008 -0.3439243,-0.0606 -0.2006468,-0.0886 -0.3334503,-0.21182 -0.4355427,-0.40405 l -0.088302,-0.16627 -0.1610547,-0.007 c -0.2044454,-0.008 -0.3535547,-0.0705 -0.5192388,-0.21575 -0.1545595,-0.13552 -0.2649657,-0.33841 -0.287858,-0.52902 l -0.0161,-0.13405 -0.1413986,-0.0384 c -0.1830819,-0.0496 -0.3566928,-0.17232 -0.4689298,-0.33155 -0.1143014,-0.16216 -0.1617183,-0.31212 -0.1617183,-0.51143 0,-0.13452 0.013571,-0.18406 0.089637,-0.32729 L 3.8896111,289.81708 3.62284,289.49819 C 3.4761154,289.3228 3.3512908,289.1793 3.3454522,289.1793 c -0.00583,0 -0.04037,0.0553 -0.07673,0.1229 -0.1652412,0.30717 -0.279735,0.4025 -0.4834011,0.4025 -0.1487061,0 -0.2047725,-0.0268 -0.8027647,-0.38401 -0.4516691,-0.26979 -0.4796666,-0.29084 -0.5409394,-0.40666 -0.079849,-0.15094 -0.081271,-0.25553 -0.00552,-0.40828 0.032217,-0.065 0.5028763,-0.8839 1.0459087,-1.81978 0.5430314,-0.9359 1.0536123,-1.81861 1.1346224,-1.96159 0.1691541,-0.29856 0.2182852,-0.3558 0.3571772,-0.41619 0.2048707,-0.089 0.2669067,-0.067 0.9393929,0.33504 0.465463,0.27823 0.5591021,0.35678 0.6035319,0.50626 0.037466,0.12605 0.021028,0.22359 -0.062632,0.37162 -0.0345,0.061 -0.062731,0.1216 -0.062731,0.13457 0,0.0299 0.3236505,0.22856 0.4894372,0.30045 0.1116723,0.0484 0.7708421,0.17541 0.9024019,0.17384 0.032446,-3.8e-4 0.081276,-0.0429 0.1350902,-0.11765 0.108315,-0.15043 0.2612567,-0.24462 0.515326,-0.31737 0.4126533,-0.11817 0.7524143,-0.16642 1.4358781,-0.20397 0.731868,-0.0402 1.078115,-0.008 1.9328795,0.17955 0.503355,0.11047 0.700812,0.12734 0.935425,0.0799 0.06967,-0.0142 0.126683,-0.0367 0.126683,-0.0503 0,-0.0135 -0.03643,-0.0845 -0.08096,-0.15756 -0.06649,-0.10913 -0.08106,-0.1585 -0.08154,-0.2763 -9.2e-4,-0.23436 0.04531,-0.27991 0.655019,-0.64516 0.569464,-0.34114 0.673113,-0.3831 0.833927,-0.33772 0.146527,0.0413 0.237172,0.12385 0.348792,0.31743 0.05415,0.094 0.593945,1.0269 1.199525,2.07328 1.074609,1.85681 1.101048,1.90563 1.100768,2.03249 -3.8e-4,0.16993 -0.08207,0.30841 -0.235833,0.39978 -0.06284,0.0373 -0.306183,0.18287 -0.540772,0.3234 -0.414087,0.24806 -0.431279,0.25579 -0.589605,0.26451 -0.244277,0.0134 -0.309963,-0.038 -0.530742,-0.41622 l -0.04149,-0.0711 -0.272127,0.25286 c -0.14967,0.13907 -0.323511,0.28309 -0.386314,0.32006 l -0.114186,0.0672 0.04787,0.13284 c 0.129711,0.35992 -0.08147,0.82664 -0.439725,0.97182 -0.07141,0.0289 -0.194322,0.0581 -0.27315,0.0648 l -0.143323,0.0123 -0.07869,0.20722 c -0.06666,0.17552 -0.09867,0.22502 -0.209323,0.32359 -0.139751,0.12451 -0.282194,0.18793 -0.482449,0.21482 l -0.12474,0.0168 -0.06461,0.18161 c -0.07976,0.22415 -0.176642,0.35924 -0.309977,0.43214 -0.121238,0.0663 -0.371139,0.13025 -0.508945,0.13025 -0.09111,0 -0.11431,-0.0223 -0.113563,0.11545 0.0012,0.22718 -0.254948,0.48603 -0.4330088,0.54878 -0.1122684,0.0395 -0.1968987,0.0489 -0.4402487,0.0489 -0.2676737,0 -0.5468105,-0.1328 -0.8969106,-0.21579 -0.2167173,-0.0513 -0.443435,-0.10986 -0.5038165,-0.12998 -0.060378,-0.0202 -0.1133521,-0.0365 -0.1177101,-0.0365 -0.00437,0 -0.059421,0.0631 -0.1223685,0.14011 -0.1790825,0.21921 -0.454005,0.31647 -0.7378528,0.26101 z m 0.2547475,-0.44659 c 0.053482,-0.0192 0.506278,-0.57635 0.5907526,-0.72697 0.084508,-0.15067 -0.016016,-0.38607 -0.205247,-0.48064 -0.099751,-0.0499 -0.1220803,-0.0528 -0.2100847,-0.028 -0.086801,0.0245 -0.1277588,0.0663 -0.3456309,0.35243 -0.2950476,0.38754 -0.3337606,0.46617 -0.2928475,0.5948 0.037994,0.11945 0.1125205,0.20611 0.225707,0.26243 0.1043837,0.052 0.150635,0.057 0.2373505,0.026 z m 2.3686587,-0.0329 c 0.1191355,-0.0333 0.1578592,-0.32297 0.1578592,-0.37256 0,-0.0119 -0.3035399,-0.16458 -0.6745346,-0.33941 -0.7343187,-0.34604 -0.7956535,-0.38843 -0.7712324,-0.5331 0.01712,-0.10146 0.1176725,-0.18908 0.2169211,-0.18908 0.043865,0 0.3796728,0.1439 0.8410359,0.36041 l 0.7680197,0.36041 h 0.196855 c 0.159992,0 0.210136,-0.009 0.26778,-0.0492 0.07342,-0.0509 0.169515,-0.26535 0.144434,-0.32226 -0.0074,-0.0166 -0.403598,-0.24833 -0.880553,-0.5148 -0.4769547,-0.26647 -0.8828269,-0.50546 -0.9019374,-0.53111 -0.054401,-0.0729 -0.043397,-0.21306 0.022408,-0.28511 0.1155221,-0.12651 0.1467092,-0.11438 1.1450584,0.44557 l 0.913683,0.51245 h 0.160144 c 0.259278,0 0.366043,-0.0759 0.412336,-0.293 0.02625,-0.12315 0.02452,-0.13975 -0.01879,-0.17938 -0.02625,-0.024 -0.487954,-0.30033 -1.026012,-0.614 -0.538057,-0.31369 -0.9920935,-0.59374 -1.0089679,-0.62233 -0.05001,-0.0847 -0.038554,-0.19629 0.027602,-0.26874 0.1232767,-0.13499 0.1508007,-0.12357 1.2320559,0.51204 0.538171,0.31637 1.038916,0.60535 1.112763,0.64217 0.244679,0.12203 0.466887,0.0722 0.57701,-0.12917 0.07531,-0.13776 0.05759,-0.26769 -0.05263,-0.38595 -0.08314,-0.0892 -1.003431,-0.79135 -1.486606,-1.13423 -0.44734,-0.31745 -0.879815,-0.59918 -1.2240403,-0.79737 -0.405348,-0.23338 -1.4218071,-0.77138 -1.4573997,-0.77138 -0.015442,0 -0.1136701,0.0269 -0.2182936,0.0597 -0.1860123,0.0584 -0.1939077,0.0641 -0.3565112,0.25895 -0.1872231,0.22439 -0.5831623,0.53734 -0.825772,0.6527 -0.4109039,0.19539 -0.9586821,0.21902 -1.1571938,0.0499 -0.1403924,-0.11959 -0.1945705,-0.36556 -0.1315552,-0.59726 0.050102,-0.18421 0.1474395,-0.35431 0.4572572,-0.79907 0.1301245,-0.1868 0.2324744,-0.34352 0.2274458,-0.34826 -0.00506,-0.004 -0.1212704,-0.0301 -0.2583163,-0.0566 -0.3642756,-0.0702 -0.4679734,-0.10619 -0.7963683,-0.27664 -0.1629651,-0.0846 -0.2996141,-0.14999 -0.3036672,-0.14536 -0.00406,0.004 -0.3537807,0.60722 -0.7771756,1.33906 l -0.7698084,1.33063 0.187378,0.21037 c 0.1030579,0.11572 0.2346553,0.26936 0.2924382,0.34146 0.057781,0.0721 0.1101388,0.13106 0.1163444,0.13106 0.00621,0 0.062754,-0.0333 0.1256637,-0.0741 0.1261228,-0.0818 0.2987804,-0.13857 0.4209749,-0.13857 0.2260327,0 0.5161897,0.14849 0.6608873,0.33821 l 0.089161,0.1169 0.07618,-0.0917 c 0.1507968,-0.18145 0.2382579,-0.24324 0.4164798,-0.29423 0.1536911,-0.044 0.1889343,-0.0463 0.3183874,-0.0211 0.4017778,0.0782 0.6685458,0.3546 0.724298,0.75049 0.01587,0.11272 0.020499,0.11835 0.1203224,0.14644 0.2696226,0.0758 0.4542058,0.22698 0.5766478,0.47208 0.062394,0.1249 0.076548,0.18407 0.077713,0.32489 0.00115,0.13657 0.0092,0.17225 0.03906,0.17248 0.020699,2e-4 0.096283,0.0261 0.1679647,0.0575 0.4660223,0.20438 0.6647502,0.76605 0.4087237,1.15517 -0.041189,0.0626 -0.074901,0.11798 -0.074901,0.12305 0,0.0263 0.7748288,0.29283 1.0295709,0.33061 0.1446485,0.0214 0.3251387,0.0134 0.4433959,-0.0196 z m -3.392295,-0.54033 c 0.065666,-0.0282 0.8650813,-1.06366 0.9131848,-1.18284 0.062785,-0.15556 -0.1180119,-0.42283 -0.30882,-0.45655 -0.053711,-0.009 -0.1265196,-0.008 -0.1617896,0.004 -0.055911,0.0186 -0.5359483,0.61779 -0.8576248,1.07064 -0.1371578,0.19309 -0.066057,0.43855 0.1571794,0.54262 0.1230705,0.0575 0.1669462,0.0611 0.2578702,0.0222 z m -0.9799375,-0.63749 c 0.036783,-0.0158 0.1765981,-0.17797 0.3310854,-0.38405 0.1470793,-0.1962 0.379274,-0.49714 0.5159889,-0.66876 0.1367156,-0.17163 0.2590442,-0.34645 0.2718434,-0.38848 0.07188,-0.23607 -0.2502569,-0.54063 -0.4679069,-0.44237 -0.047367,0.0213 -0.2118449,0.2151 -0.4789738,0.5641 -0.6458305,0.84377 -0.6431423,0.83977 -0.6431423,0.95781 0,0.13029 0.09699,0.2751 0.2278358,0.34017 0.1101135,0.0547 0.1563994,0.0589 0.2432695,0.0216 z m -0.7436414,-0.90799 c 0.031036,-0.0204 0.1408077,-0.14942 0.2439339,-0.28656 0.1447903,-0.19253 0.187502,-0.26767 0.187502,-0.32984 0,-0.24912 -0.2899584,-0.47449 -0.4922274,-0.38258 -0.078549,0.0357 -0.3936074,0.43826 -0.4376271,0.55918 -0.039864,0.1095 -0.0098,0.2269 0.083851,0.32737 0.1308808,0.14041 0.301877,0.18679 0.4145676,0.11243 z m 8.3176258,-1.32028 c 0.08526,-0.0577 0.269789,-0.21459 0.410045,-0.3486 l 0.25501,-0.24364 -0.770759,-1.32876 c -0.423916,-0.7308 -0.775818,-1.33351 -0.782003,-1.33933 -0.0063,-0.006 -0.105619,0.0152 -0.220966,0.0467 -0.300827,0.0821 -0.521899,0.0763 -1.019449,-0.0265 -1.090423,-0.22545 -1.1912839,-0.23599 -1.9212462,-0.20093 -0.7836932,0.0376 -1.3475074,0.12472 -1.5424986,0.23823 -0.060471,0.0352 -0.2254741,0.24941 -0.5784725,0.75097 -0.271631,0.38593 -0.5145381,0.74423 -0.5397953,0.79623 -0.060723,0.12502 -0.062241,0.24706 -0.00314,0.25132 0.4637709,0.0335 0.9219308,-0.23035 1.3987467,-0.80562 l 0.1254476,-0.15135 0.3254299,-0.10207 c 0.178986,-0.0562 0.3529448,-0.10217 0.3865756,-0.10217 0.066141,0 0.8188677,0.37694 1.3453436,0.67371 0.7630272,0.43011 1.8818882,1.18753 2.6845902,1.81737 0.124194,0.0975 0.240718,0.1777 0.258946,0.17834 0.01822,6.7e-4 0.102903,-0.0461 0.18817,-0.10378 z m -9.2917485,-1.76211 c 0.4997053,-0.8644 1.0102087,-1.74517 1.1344532,-1.95727 0.124246,-0.21211 0.2219589,-0.389 0.2171418,-0.3931 -0.025734,-0.022 -0.8557244,-0.51311 -0.8847772,-0.52361 -0.024331,-0.009 -0.3670925,0.56267 -1.1723731,1.9546 -0.6258947,1.08187 -1.1404919,1.97857 -1.1435487,1.99269 -0.00813,0.0375 0.9052725,0.55506 0.9246674,0.52387 0.00874,-0.0141 0.4247321,-0.73278 0.9244366,-1.59718 z m 11.2069425,1.35757 c 0.24625,-0.15023 0.444348,-0.28474 0.440219,-0.29891 -0.0041,-0.0142 -0.516805,-0.90739 -1.139279,-1.98494 -0.89021,-1.54104 -1.140176,-1.95616 -1.171146,-1.94496 -0.05371,0.0194 -0.880994,0.51089 -0.880994,0.52337 0,0.005 0.447163,0.78328 0.993696,1.72841 0.546532,0.94513 1.062842,1.83807 1.147355,1.9843 0.08452,0.14623 0.155632,0.26587 0.158041,0.26587 0.0024,0 0.205861,-0.12291 0.452108,-0.27314 z"
       id="path837"
       inkscape:connector-curvature="0"
       sodipodi:nodetypes="cccccccccccscsccsscscccssssccscccssscsscsccscccccccccccccsccccssscscsscccccccsccccsscsscsccsccscsccsccsccccssccscscscscsccsscscccccccsccscsccccccssccccssccscccsscccccccsccsssscccccscccccscccsccsccssscssc" />
  </g>
</svg>
