<?xml version="1.0" encoding="UTF-8" standalone="no"?>
<!-- Created with Inkscape (http://www.inkscape.org/) -->

<svg
   xmlns:dc="http://purl.org/dc/elements/1.1/"
   xmlns:cc="http://creativecommons.org/ns#"
   xmlns:rdf="http://www.w3.org/1999/02/22-rdf-syntax-ns#"
   xmlns:svg="http://www.w3.org/2000/svg"
   xmlns="http://www.w3.org/2000/svg"
   xmlns:sodipodi="http://sodipodi.sourceforge.net/DTD/sodipodi-0.dtd"
   xmlns:inkscape="http://www.inkscape.org/namespaces/inkscape"
   width="64"
   height="64"
   viewBox="0 0 16.933333 16.933334"
   version="1.1"
   id="svg8"
   inkscape:version="0.92.4 (5da689c313, 2019-01-14)"
   sodipodi:docname="petits_mams.svg">
  <defs
     id="defs2" />
  <sodipodi:namedview
     id="base"
     pagecolor="#ffffff"
     bordercolor="#666666"
     borderopacity="1.0"
     inkscape:pageopacity="0.0"
     inkscape:pageshadow="2"
     inkscape:zoom="3.9999998"
     inkscape:cx="71.014371"
     inkscape:cy="34.691456"
     inkscape:document-units="mm"
     inkscape:current-layer="g1448"
     showgrid="true"
     units="px"
     showguides="true"
     inkscape:guide-bbox="true"
     inkscape:window-width="1920"
     inkscape:window-height="1017"
     inkscape:window-x="1037"
     inkscape:window-y="2152"
     inkscape:window-maximized="1"
     inkscape:snap-global="false">
    <inkscape:grid
       type="xygrid"
       id="grid828" />
    <sodipodi:guide
       position="0,6.6145836"
       orientation="1,0"
       id="guide4533"
       inkscape:locked="false" />
    <sodipodi:guide
       position="15.875,0"
       orientation="0,1"
       id="guide4535"
       inkscape:locked="false" />
  </sodipodi:namedview>
  <metadata
     id="metadata5">
    <rdf:RDF>
      <cc:Work
         rdf:about="">
        <dc:format>image/svg+xml</dc:format>
        <dc:type
           rdf:resource="http://purl.org/dc/dcmitype/StillImage" />
        <dc:title></dc:title>
      </cc:Work>
    </rdf:RDF>
  </metadata>
  <g
     inkscape:label="Calque 1"
     inkscape:groupmode="layer"
     id="layer1"
     transform="translate(0,-280.06665)">
    <ellipse
       style="fill:none;fill-opacity:0.73728811;stroke:#000000;stroke-width:0.35;stroke-miterlimit:4;stroke-dasharray:none;stroke-opacity:1"
       id="path4539"
       cx="8.4666662"
       cy="288.53333"
       rx="8.2020826"
       ry="8.2020922" />
    <g
       id="g1448"
       transform="matrix(0.03527778,0,0,-0.03527778,-89.692947,381.64964)">
      <path
         d="M 23.0039,5699.92 H 7899.07 V 11.5508 H 23.0039 v 5688.3692 0"
         style="fill:none;fill-opacity:1;fill-rule:evenodd;stroke:none"
         id="path1450"
         inkscape:connector-curvature="0" />
      <path
         style="fill:#000000;stroke-width:1.48788893"
         d="m 2751.1007,2406.0247 c -50.7241,6.929 -98.1466,30.6035 -134.5795,67.185 -73.0453,73.3435 -89.4937,184.7171 -40.9189,277.0649 21.0618,40.0414 57.7483,76.5384 97.8931,97.3873 57.2428,29.7287 120.8878,35.2645 180.7797,15.7238 91.0643,-29.7112 153.4038,-108.5967 161.9307,-204.9103 4.5481,-51.3717 -9.1096,-104.9445 -37.867,-148.5358 -49.9082,-75.652 -138.2847,-116.0662 -227.2381,-103.9149 z m 65.4692,7.4969 c 72.2347,11.6685 134.1375,55.9725 167.2483,119.7 10.2825,19.7904 15.8903,35.01 21.1531,57.4095 3.8378,16.3347 4.1725,20.1576 4.2241,48.2423 0.05,26.6847 -0.3802,32.4567 -3.4302,46.1246 -10.4675,46.907 -31.1643,84.7631 -64.2634,117.5432 -56.2667,55.7241 -137.5271,77.6429 -215.1601,58.0365 -96.9645,-24.4886 -166.6878,-110.566 -171.1612,-211.308 -3.0658,-69.0415 25.9069,-136.9087 77.635,-181.8565 11.1246,-9.6663 18.4964,-14.9959 16.6825,-12.0609 -0.4331,0.7007 -1.1803,9.7838 -1.6604,20.1845 -0.7431,16.0942 -0.3151,22.1865 2.8732,40.9073 4.4794,26.3007 8.0937,38.3996 14.9368,50.0013 2.81,4.7641 5.1091,8.9759 5.1091,9.3596 0,0.3836 1.424,2.6237 3.1645,4.9777 2.5951,3.5101 2.9513,5.3063 1.9794,9.983 -1.623,7.8103 -2.3093,13.5557 -2.4585,20.5817 -0.1479,6.9726 1.6803,27.6517 2.5724,29.0951 0.3378,0.5466 0.934,3.2628 1.3248,6.0358 0.3908,2.7732 1.1382,6.716 1.661,8.7619 0.5228,2.0458 1.1323,4.724 1.3545,5.9515 0.5176,2.8596 1.1432,6.6267 4.6527,14.4907 1.5482,3.4691 1.7627,3.6247 3.6039,7.6522 3.3737,6.1843 3.0502,5.5792 6.2534,9.5893 3.3442,6.2917 10.3679,10.9579 17.1808,15.8593 7.4013,5.2423 16.0507,9.1005 25.6661,11.9872 6.2105,2.1816 5.3181,1.8043 9.9992,3.2531 7.3267,1.467 9.6572,1.6539 16.7835,2.6353 0,0.4092 5.5267,0.9006 12.2768,1.0922 12.0768,0.3427 20.4561,2.4263 20.4561,5.0866 0,0.7447 -1.0044,1.7395 -2.2319,2.2105 -1.2274,0.471 -4.3167,5.2251 -6.865,10.5647 -3.6905,7.7326 -4.4665,10.952 -3.8135,15.8204 1.5618,11.6441 10.4129,14.265 25.5572,7.5675 4.7044,-2.0806 8.8942,-3.4422 9.3105,-3.0259 0.4164,0.4164 -1.3407,3.1463 -3.9047,6.0664 -5.3605,6.1053 -5.5635,7.0673 -2.2009,10.4298 6.1153,6.1153 28.2685,-5.2157 37.927,-19.3991 2.5643,-3.7656 4.6032,-5.1498 7.5967,-5.1572 2.2504,-0.01 3.4468,0.7866 3.1618,1.6599 -4.9286,15.1028 -2.7509,9.4669 1.2089,-0.089 1.2275,-1.0186 3.147,-1.3532 3.1618,-0.7438 0.5579,23.1138 1.02,19.7744 0.8513,-0.043 1.1332,-0.9404 10.3152,-4.2492 17.6768,-6.5571 11.9304,-3.7404 31.8522,-13.352 33.6166,-16.2188 0.3655,-0.5938 1.1405,-4.2601 1.7223,-8.1471 0.9164,-6.1235 0.7127,-7.0675 -1.5252,-7.0675 -6.6515,-1.7039 -6.0447,-1.8515 2.7965,-13.0222 -0.3891,-0.3838 -6.473,8.3309 -9.034,9.6188 -1.5696,0.7893 -2.2237,-2.2888 -0.9401,-4.4604 2.2752,-3.8494 8.157,-14.4306 -0.086,-1.8075 -2.1274,2.455 -3.8713,3.5871 -3.8754,2.516 0,-1.0713 -0.6768,-1.5339 -1.4952,-1.0281 -0.8183,0.5058 -2.6038,-0.015 3.3477,-11.2522 0.4283,-0.8085 0.2182,-1.0376 -0.6517,-0.5 -5.0546,12.4408 -8.0118,10.5832 -9.3922,9.4802 -4.1594,-3.3235 -9.486,-5.9114 -12.0535,-5.9114 -1.3329,0 -4.7277,-0.4853 -6.0678,-2.2318 -2.2325,-2.9098 -6.3791,-8.2548 -4.0174,-4.5353 2.6957,4.2455 2.697,4.3568 0.04,3.3371 -5.6609,-2.1724 -11.258,-7.9483 -14.2451,-14.7005 -3.4655,-7.8336 -3.9701,-18.5198 -1.0555,-22.356 2.4258,-3.1928 8.7183,-5.6381 14.509,-5.6381 11.9687,0 20.0431,-12.3499 14.6559,-22.4161 -0.9559,-1.7861 -2.1753,-2.6885 -4.1632,-2.7563 -0.4818,-0.017 -1.144,0.6969 -0.9836,1.2594 0.1928,0.676 -0.9609,-0.9768 -1.14,-0.753 -0.4706,0.5877 -0.9553,1.6116 -1.5285,1.7647 -0.6439,0.1718 -1.431,-1.337 -2.1809,-1.0865 -0.4263,0.1424 -0.4523,1.7854 -0.9158,1.9529 -0.6732,0.2435 -1.6717,-1.0192 -2.1679,-0.7998 -0.7074,0.3127 -0.3609,1.4506 -0.7541,1.7758 -0.3105,0.2568 -1.415,-0.3081 -1.5596,0 -0.3381,0.7123 -0.2596,1.6045 0.066,2.9032 0.6972,2.778 -0.071,4.3883 -3.3906,7.1025 -2.3607,1.9305 -5.2489,3.534 -6.4184,3.5635 -1.1694,0.03 -4.2654,0.8271 -6.88,1.7725 -2.663,0.963 -5.9815,1.2026 -7.5451,0.545 -1.5352,-0.6457 -4.7999,-1.4373 -7.2549,-1.7591 -9.0432,-1.1854 -10.4064,-1.687 -9.9963,-3.6783 0.963,-4.6757 9.908,-10.1184 20.8811,-12.7053 6.1448,-1.4486 12.5703,-3.8263 14.2787,-5.2836 3.006,-2.5641 3.0102,-2.6216 0.1305,-1.7784 -2.6191,0.767 -2.5493,0.4955 0.5828,-2.266 4.6176,-4.0714 3.1759,-5.4171 -2.6024,-2.429 -6.1901,3.201 -6.9095,2.9573 -4.0688,-1.3782 1.9338,-2.9512 2.0168,-3.7197 0.4018,-3.7197 -1.1195,0 -3.2474,1.3392 -4.7286,2.9758 -3.7239,4.1149 -5.7184,3.7258 -4.5601,-0.8895 1.4484,-5.7708 -2.3036,-3.8201 -5.4948,2.8568 -1.4386,3.0097 -3.4794,5.4721 -4.5352,5.4721 -1.0558,0 -7.3836,2.6782 -14.0618,5.9516 -6.6782,3.2733 -13.4488,5.9516 -15.0457,5.9516 -4.1473,0 -20.5729,-8.0321 -25.6177,-12.5271 -4.7329,-4.2171 -5.0169,-5.1235 -7.261,-23.1822 -1.6444,-13.2328 -5.7955,-21.3811 -14.9125,-29.2716 l -3.736,-3.2336 4.1886,-1.6021 c 5.9806,-2.2875 13.6832,-1.9833 22.837,0.9022 7.9642,2.5105 12.5412,2.2213 31.746,-2.006 l 3.7197,-0.8188 -3.5451,-1.3527 c -1.9498,-0.744 -6.8041,-0.9204 -10.7872,-0.392 -7.9792,1.0585 -8.9021,0.1667 -3.965,-3.8312 3.7546,-3.0402 3.9795,-3.0197 -10.7165,-0.9763 -4.5008,0.6257 -10.9141,0.5165 -14.2517,-0.2429 -4.5884,-1.044 -8.5429,-0.737 -16.2143,1.2589 -5.5802,1.4519 -14.2318,3.0915 -19.2258,3.6438 l -9.0798,1.004 2.9853,-3.0834 c 1.6418,-1.696 7.2271,-5.3498 12.4117,-8.1199 9.3807,-5.012 9.4622,-5.026 16.8344,-2.8649 4.0745,1.1944 7.7625,1.8171 8.1957,1.3839 1.4255,-1.4254 -1.1185,-3.9615 -3.9739,-3.9615 -2.8666,0 -5.3974,-2.5379 -3.9619,-3.9734 0.4398,-0.4399 6.2841,-1.4133 12.9873,-2.1632 6.7031,-0.75 12.8425,-1.7684 13.6431,-2.2632 3.1776,-1.9638 -2.9747,-3.3388 -11.1271,-2.4867 -5.2115,0.5446 -8.5656,0.3242 -8.5656,-0.5631 0,-0.8021 4.8099,-3.6475 10.6887,-6.3233 8.9069,-4.0541 10.2498,-5.1106 8.0561,-6.3383 -1.97,-1.1025 -4.5076,-0.5005 -10.0821,2.3917 -9.2679,4.8083 -9.5195,4.7988 -5.9992,-0.2268 1.5764,-2.2504 3.6828,-5.6516 4.6809,-7.5581 1.6639,-3.1785 1.5346,-3.4257 -1.5572,-2.9758 -2.1574,0.3139 -4.4765,2.6086 -6.4393,6.3718 -1.6871,3.2346 -5.2436,7.1461 -7.9032,8.6923 l -4.8357,2.8111 v -5.0601 c 0,-2.7831 -0.9606,-6.3599 -2.1346,-7.9484 -1.9459,-2.6328 -2.1305,-2.1769 -2.0873,5.1551 0.037,6.3145 -0.5433,8.3689 -2.7009,9.5578 -1.5117,0.8329 -5.0919,4.0114 -7.956,7.0633 -7.8053,8.3169 -25.1675,20.8415 -29.6836,21.4132 -7.3019,0.924 -16.7423,4.3083 -17.4957,6.2719 -0.4098,1.0678 -1.343,1.5718 -2.074,1.12 -0.7309,-0.4516 -3.3549,0.3755 -5.8313,1.8384 -6.0582,3.5787 -7.5755,2.3728 -16.5626,-13.1627 -14.9911,-25.9145 -22.5475,-72.9484 -17.1609,-106.8153 l 1.7665,-11.1063 13.3911,-7.0921 c 22.6439,-11.9928 46.1502,-19.9439 71.5926,-24.2166 16.4661,-2.7651 51.8329,-2.7546 69.0129,0.021 z m 55.0518,275.8522 c -0.1912,0.746 4.9861,8.0861 5.7951,8.5861 0.8434,0.5213 -3.7428,-4.8651 -4.2509,-6.1892 -1.4077,-2.2987 -1.3424,-3.1837 -1.5442,-2.3969 z m 15.9659,3.1101 c -0.588,-0.8465 0.4897,3.2547 0.9589,6.9279 0.7573,3.2244 1.6562,10.0748 1.6562,7.7185 0,-1.6367 -1.559,-11.1592 -2.2142,-13.2051 -0.7108,-3.1313 0.217,-0.5521 -0.4009,-1.4413 z m 7.9578,8.2609 c -1.4165,9.2657 -1.7006,9.0295 -0.868,8.0593 0.5229,-0.6091 2.1439,-9.5178 1.6496,-10.0122 -0.4945,-0.4944 -0.8461,0.3844 -0.7816,1.9529 z m 20.0621,20.5204 0.9298,0.1414 c 3.1461,-2.6636 15.6796,-8.8131 15.541,-9.5364 -0.3973,-0.2064 -8.6196,4.597 -16.4708,9.395 z m 3.2547,1.6364 c 1.0229,0.4127 7.1605,0.6917 8.1833,0.2789 1.023,-0.4127 -1.1948,-0.2902 -3.2407,-0.2902 -2.0458,0 -5.9656,-0.4015 -4.9426,0.012 z m 17.9477,3.2857 c 10.1527,0.01 -16.3695,-1.2829 -18.4437,-1.2708 -0.6154,0.5317 7.2618,0.3356 18.4437,1.2709 z m -18.2267,1.178 c 1.0229,0.4127 7.4395,0.6917 8.4623,0.2789 1.023,-0.4127 -0.9318,-0.2244 -2.9777,-0.2244 -2.0458,0 -6.5075,-0.4673 -5.4846,-0.054 z"
         id="path856"
         inkscape:connector-curvature="0"
         sodipodi:nodetypes="sssssssscsscsssssccscscccccccccccccccsscccccsccscscccsccscccssccsscsscssssssscsssccccccccccsccscscsssccscscccccssscscsscsscsccsccccccsscsccccccscssccsccsccsscscscscccccccccscccccccscc" />
    </g>
  </g>
</svg>
