<?xml version="1.0" encoding="UTF-8" standalone="no"?>
<!-- Created with Inkscape (http://www.inkscape.org/) -->

<svg
   xmlns:dc="http://purl.org/dc/elements/1.1/"
   xmlns:cc="http://creativecommons.org/ns#"
   xmlns:rdf="http://www.w3.org/1999/02/22-rdf-syntax-ns#"
   xmlns:svg="http://www.w3.org/2000/svg"
   xmlns="http://www.w3.org/2000/svg"
   xmlns:sodipodi="http://sodipodi.sourceforge.net/DTD/sodipodi-0.dtd"
   xmlns:inkscape="http://www.inkscape.org/namespaces/inkscape"
   width="142.32631mm"
   height="90.637527mm"
   viewBox="0 0 142.32631 90.637527"
   version="1.1"
   id="svg8"
   inkscape:version="0.92.4 (5da689c313, 2019-01-14)"
   sodipodi:docname="picto_partenaires_white_2.svg">
  <defs
     id="defs2" />
  <sodipodi:namedview
     id="base"
     pagecolor="#ffffff"
     bordercolor="#666666"
     borderopacity="1.0"
     inkscape:pageopacity="0.0"
     inkscape:pageshadow="2"
     inkscape:zoom="0.98994949"
     inkscape:cx="287.03112"
     inkscape:cy="159.92358"
     inkscape:document-units="mm"
     inkscape:current-layer="layer1"
     showgrid="false"
     fit-margin-top="0"
     fit-margin-left="0"
     fit-margin-right="0"
     fit-margin-bottom="0"
     inkscape:window-width="1920"
     inkscape:window-height="1017"
     inkscape:window-x="-8"
     inkscape:window-y="-8"
     inkscape:window-maximized="1" />
  <metadata
     id="metadata5">
    <rdf:RDF>
      <cc:Work
         rdf:about="">
        <dc:format>image/svg+xml</dc:format>
        <dc:type
           rdf:resource="http://purl.org/dc/dcmitype/StillImage" />
        <dc:title></dc:title>
      </cc:Work>
    </rdf:RDF>
  </metadata>
  <g
     inkscape:label="Calque 1"
     inkscape:groupmode="layer"
     id="layer1"
     transform="translate(-32.577641,-24.596837)">
    <path
       style="fill:#000000;stroke-width:0.26458332"
       d=""
       id="path830"
       inkscape:connector-curvature="0" />
    <path
       style="fill:#000000;stroke-width:0.26458332"
       d=""
       id="path828"
       inkscape:connector-curvature="0" />
    <path
       style="fill:#ffffff;stroke-width:0.26458332;fill-opacity:1"
       d="m 88.81828,114.71084 c -0.53258,-0.28136 -1.21724,-0.828 -1.52146,-1.21476 -0.30423,-0.38676 -0.69066,-1.1622 -0.85874,-1.72319 l -0.3056,-1.01999 0.39369,-1.00223 c 0.21653,-0.55123 1.56659,-2.63774 3.00014,-4.63667 l 2.60645,-3.63444 1.03842,-0.31111 1.03842,-0.31112 1.17703,0.62441 c 0.74532,0.39539 1.41409,1.02894 1.8234,1.72736 0.69838,1.1917 0.84002,2.70909 0.34104,3.65355 -0.16793,0.31785 -1.49364,2.22407 -2.94603,4.23603 -1.55974,2.16068 -2.90393,3.75819 -3.28377,3.9026 -0.35369,0.13447 -0.84368,0.23923 -1.08887,0.2328 -0.24518,-0.006 -0.88154,-0.24189 -1.41412,-0.52324 z m 20.67979,-1.22881 c -0.3638,-0.0573 -1.55443,-0.29229 -2.64583,-0.52221 -2.06797,-0.43564 -6.08542,-1.62991 -6.08542,-1.80902 0,-0.0568 0.35541,-0.67665 0.78982,-1.37755 0.4344,-0.70089 0.91064,-1.91563 1.05831,-2.69942 0.34713,-1.84241 -0.002,-4.03352 -0.95235,-5.97405 -0.40016,-0.81721 -1.24825,-1.965815 -1.88467,-2.552435 -1.13124,-1.04274 -3.51252,-2.34314 -4.30278,-2.3497 -0.31477,-0.003 -0.39998,-0.40208 -0.41188,-1.93098 l -0.015,-1.92767 -0.80452,-1.70964 c -0.44248,-0.94029 -1.29402,-2.21071 -1.8923,-2.82316 -1.16456,-1.19211 -2.43207,-1.93706 -4.18877,-2.46184 l -1.09477,-0.32704 -0.17408,-1.3123 c -0.28721,-2.16514 -1.18981,-4.18094 -2.49854,-5.58008 -0.66703,-0.71311 -1.75092,-1.56841 -2.40864,-1.90068 -0.65773,-0.33226 -1.88665,-0.74682 -2.73094,-0.92124 l -1.53506,-0.31712 -1.82249,0.55356 c -1.87945,0.57087 -2.80177,1.2626 -4.39201,3.29396 l -0.80334,1.02618 -0.94027,-1.30878 c -0.51715,-0.71984 -1.51619,-1.69026 -2.22009,-2.15651 -1.40256,-0.92901 -3.44465,-1.62978 -4.74931,-1.62978 -1.28861,0 -3.10938,0.63626 -4.43941,1.55135 -0.66342,0.45644 -1.25975,0.8299 -1.32519,0.8299 -0.0654,0 -0.61755,-0.66035 -1.2269,-1.46744 -0.60937,-0.80709 -1.99713,-2.52725 -3.08393,-3.82257 l -1.976,-2.35514 8.11804,-14.8967 c 4.46492,-8.19318 8.153,-14.9392 8.19573,-14.99116 0.0427,-0.052 1.48378,0.68031 3.20233,1.62726 1.71855,0.94695 3.71995,1.91027 4.44755,2.14072 0.7276,0.23044 2.50537,0.66078 3.95058,0.9563 1.44522,0.29553 2.67105,0.58071 2.72408,0.63373 0.053,0.053 -1.02631,1.80746 -2.39854,3.89873 -1.37222,2.09127 -2.92056,4.57714 -3.44074,5.52417 -1.24016,2.25777 -1.86959,4.72349 -1.6426,6.43463 0.19226,1.44933 0.87749,2.97616 1.64865,3.67352 0.95477,0.86341 2.39797,1.26686 4.53171,1.26686 1.19229,0 2.93734,-0.21854 4.08136,-0.51113 1.0992,-0.28113 2.71475,-0.87269 3.59014,-1.31458 0.87538,-0.44189 2.79828,-1.76476 4.27311,-2.93971 1.7138,-1.36533 3.31435,-2.94144 4.4351,-4.36736 l 1.75358,-2.23108 2.00602,-0.66807 c 1.10331,-0.36744 2.13922,-0.66807 2.30202,-0.66807 0.37534,0 11.09444,6.02296 15.36905,8.63573 3.63003,2.21878 8.19071,5.37274 12.90815,8.9267 5.09533,3.83866 14.80025,11.69939 15.67705,12.69801 0.4761,0.54225 0.88155,1.36674 0.99117,2.01559 0.14839,0.87831 0.0611,1.33956 -0.43615,2.30529 -0.38727,0.75209 -0.96925,1.39364 -1.54357,1.70153 -0.50705,0.27183 -1.4177,0.49424 -2.02365,0.49424 -0.70023,0 -1.61775,-0.27321 -2.51767,-0.74969 -0.77876,-0.41232 -6.05937,-3.64748 -11.73468,-7.18923 l -10.31875,-6.43954 -1.02027,-0.0147 c -0.7983,-0.0115 -1.15807,0.14555 -1.65365,0.72169 -0.69766,0.81108 -0.81848,2.05992 -0.29107,3.00866 0.17795,0.32011 4.966,3.45528 10.64011,6.96702 5.6741,3.51175 10.54302,6.60501 10.81982,6.87391 l 0.50327,0.48891 -0.30514,1.5194 c -0.16783,0.83567 -0.51308,1.74918 -0.76723,2.03001 -0.25415,0.28083 -0.78388,0.67701 -1.17718,0.88039 -0.3933,0.20339 -1.47505,0.36979 -2.40388,0.36979 h -1.6888 l -9.63528,-5.7371 -9.63529,-5.73709 -0.9186,0.024 c -1.22112,0.032 -2.1241,1.05656 -2.1241,2.41022 0,0.54158 0.16488,1.21955 0.36641,1.50659 0.20153,0.28704 4.48167,2.96268 9.51141,5.94586 5.02975,2.98317 9.2084,5.576675 9.28589,5.763325 0.0775,0.18666 -0.0652,0.95083 -0.31714,1.69816 -0.28125,0.83435 -0.74671,1.57137 -1.20599,1.90959 l -0.74795,0.5508 h -2.07593 -2.07594 l -8.09917,-4.0349 c -4.86532,-2.42383 -8.40662,-4.034885 -8.86917,-4.034885 -0.4235,0 -1.07831,0.26789 -1.45514,0.59531 -0.39336,0.34178 -0.74786,0.989745 -0.83241,1.521445 -0.11221,0.70571 -0.008,1.10266 0.43625,1.66792 0.39216,0.49856 2.91606,1.9087 7.69681,4.30034 3.91233,1.9572 7.11332,3.66706 7.11332,3.7997 0,0.13263 -0.55317,0.72807 -1.22927,1.32319 -0.72216,0.63567 -1.77888,1.24527 -2.56156,1.4777 -1.24708,0.37034 -3.15045,0.45965 -4.67584,0.2194 z m -31.69097,-5.1468 c -1.39963,-0.6928 -2.44028,-2.33425 -2.44028,-3.84911 0,-0.72988 0.24166,-1.41705 0.78274,-2.22571 0.43051,-0.64341 2.48939,-3.550005 4.57529,-6.459095 2.55693,-3.566 4.01287,-5.36672 4.46881,-5.52707 0.37195,-0.13081 1.13973,-0.15089 1.70617,-0.0446 2.01217,0.37748 3.91874,3.3697 3.25667,5.11109 -0.13893,0.36539 -2.20802,3.42398 -4.59799,6.796855 -2.70859,3.82254 -4.60403,6.25034 -5.03203,6.44535 -0.37766,0.17207 -0.8894,0.31276 -1.13722,0.31265 -0.24781,-1.2e-4 -0.95979,-0.25227 -1.58216,-0.56034 z m -10.17999,-7.13072 c -0.54606,-0.28827 -1.31005,-1.00346 -1.69775,-1.589315 -0.49287,-0.74478 -0.7049,-1.41223 -0.7049,-2.21896 v -1.15377 l 1.246,-1.80928 c 0.6853,-0.99511 3.17663,-4.48704 5.53628,-7.75985 2.81702,-3.90716 4.55152,-6.07576 5.05104,-6.31518 0.60725,-0.29104 0.96771,-0.30261 1.78643,-0.0573 2.10408,0.6304 3.68314,3.1434 3.14789,5.00971 -0.13497,0.47061 -1.425,2.4277 -2.86673,4.34909 -1.44173,1.92138 -3.89035,5.29053 -5.44138,7.48698 -1.62916,2.3071 -3.10359,4.122755 -3.49148,4.299485 -0.36928,0.16826 -0.87418,0.30066 -1.122,0.29423 -0.24781,-0.006 -0.89734,-0.24755 -1.4434,-0.53582 z m -8.00792,-9.875375 c -0.43927,-0.1914 -1.17754,-0.7795 -1.6406,-1.3069 -0.46305,-0.52739 -0.91912,-1.3704 -1.01348,-1.87335 -0.0944,-0.50295 -0.0362,-1.30917 0.12923,-1.7916 0.46421,-1.35374 3.78666,-5.86059 4.61501,-6.26017 0.45324,-0.21864 1.08863,-0.29016 1.64709,-0.18539 0.50005,0.0938 1.3411,0.54978 1.86899,1.01328 0.52788,0.46349 1.12065,1.2277 1.31726,1.69824 0.1966,0.47054 0.35746,1.26116 0.35746,1.75694 0,0.69606 -0.45042,1.53724 -1.97731,3.69271 -1.08752,1.53522 -2.24511,2.97888 -2.57241,3.20814 -0.32731,0.22925 -0.89603,0.41216 -1.26384,0.40646 -0.3678,-0.006 -1.02813,-0.16695 -1.4674,-0.35836 z m 85.72992,-15.66386 c -8.46492,-7.05116 -20.26388,-15.53074 -28.31042,-20.34589 -5.55196,-3.32237 -13.48988,-7.54236 -14.18736,-7.54236 -0.35465,0 -2.18914,0.51448 -4.07665,1.14328 l -3.43182,1.14328 -1.32292,1.6944 c -2.29087,2.93416 -4.6946,5.31146 -6.71425,6.64044 -1.07346,0.70636 -2.68081,1.50938 -3.57188,1.7845 -1.46767,0.45313 -3.23592,0.68849 -4.46439,0.59421 -0.34004,-0.0261 -0.46148,-0.26392 -0.45721,-0.89543 0.003,-0.47294 0.22373,-1.33614 0.49007,-1.91823 0.26635,-0.58208 2.82793,-4.59342 5.69242,-8.91408 3.72256,-5.61496 5.46263,-8.01304 6.1003,-8.40714 1.09717,-0.67809 4.13849,-1.44731 7.81973,-1.97778 1.52797,-0.22019 5.329,-0.5304 8.44674,-0.68937 7.69784,-0.39251 8.76147,-0.27441 20.26056,2.24951 5.24693,1.15164 7.57825,1.2161 10.75062,0.29725 1.2164,-0.35232 2.26499,-0.58722 2.33021,-0.522 0.0652,0.0652 3.77621,6.81262 8.24664,14.99422 l 8.12806,14.87564 -2.68922,2.72771 c -2.66763,2.70579 -5.63694,5.08954 -6.30851,5.06445 -0.19221,-0.007 -1.42103,-0.90566 -2.73072,-1.99661 z M 37.3405,72.007815 c -2.6516,-1.61251 -4.79473,-3.0611 -4.7625,-3.21908 0.0322,-0.15799 5.45893,-10.19685 12.05933,-22.30858 8.49211,-15.58302 12.10673,-21.98066 12.3633,-21.8822 0.30637,0.11756 9.05906,5.61647 9.33044,5.86188 0.0508,0.0459 -0.97963,2.02634 -2.28987,4.40089 -1.31023,2.37454 -6.69376,12.235 -11.96341,21.91213 -5.26965,9.67714 -9.65655,17.72349 -9.74868,17.88079 -0.10271,0.17538 -2.03238,-0.84807 -4.98861,-2.64583 z m 126.48609,0.0447 c -0.89123,-1.63711 -6.33599,-11.63374 -12.09946,-22.21473 -5.76349,-10.58098 -10.47906,-19.28844 -10.47906,-19.34991 0,-0.13987 8.72414,-5.64198 9.29055,-5.85933 0.32659,-0.12533 2.96262,4.52211 12.35035,21.77425 6.56433,12.06347 11.97077,22.06336 12.01431,22.22197 0.0435,0.15862 -2.04551,1.66447 -4.64234,3.34635 -2.59682,1.68188 -4.74229,3.05796 -4.76772,3.05796 -0.0254,0 -0.7754,-1.33945 -1.66663,-2.97656 z"
       id="path867"
       inkscape:connector-curvature="0" />
  </g>
</svg>
