<?xml version="1.0" encoding="UTF-8" standalone="no"?>
<!-- Created with Inkscape (http://www.inkscape.org/) -->

<svg
   xmlns:dc="http://purl.org/dc/elements/1.1/"
   xmlns:cc="http://creativecommons.org/ns#"
   xmlns:rdf="http://www.w3.org/1999/02/22-rdf-syntax-ns#"
   xmlns:svg="http://www.w3.org/2000/svg"
   xmlns="http://www.w3.org/2000/svg"
   xmlns:sodipodi="http://sodipodi.sourceforge.net/DTD/sodipodi-0.dtd"
   xmlns:inkscape="http://www.inkscape.org/namespaces/inkscape"
   width="67.73333mm"
   height="38.726791mm"
   viewBox="0 0 67.73333 38.726791"
   version="1.1"
   id="svg8"
   inkscape:version="0.92.4 (5da689c313, 2019-01-14)"
   sodipodi:docname="picto_partenaires_white.svg">
  <defs
     id="defs2" />
  <sodipodi:namedview
     id="base"
     pagecolor="#ffffff"
     bordercolor="#666666"
     borderopacity="1.0"
     inkscape:pageopacity="0.0"
     inkscape:pageshadow="2"
     inkscape:zoom="1.4"
     inkscape:cx="108.75787"
     inkscape:cy="80.279461"
     inkscape:document-units="mm"
     inkscape:current-layer="layer1"
     showgrid="false"
     fit-margin-top="0"
     fit-margin-left="0"
     fit-margin-right="0"
     fit-margin-bottom="0"
     inkscape:window-width="1920"
     inkscape:window-height="1017"
     inkscape:window-x="-8"
     inkscape:window-y="-8"
     inkscape:window-maximized="1" />
  <metadata
     id="metadata5">
    <rdf:RDF>
      <cc:Work
         rdf:about="">
        <dc:format>image/svg+xml</dc:format>
        <dc:type
           rdf:resource="http://purl.org/dc/dcmitype/StillImage" />
        <dc:title></dc:title>
      </cc:Work>
    </rdf:RDF>
  </metadata>
  <g
     inkscape:label="Calque 1"
     inkscape:groupmode="layer"
     id="layer1"
     transform="translate(-78.770237,-185.99681)">
    <path
       style="fill:#ffffff;stroke-width:0.26458332"
       d="m 110.78482,224.53834 c -1.54069,-0.47475 -7.80115,-3.82346 -10.47204,-5.60148 -2.02497,-1.34802 -3.859969,-2.8961 -6.133474,-5.17444 l -3.244054,-3.25096 -0.856987,0.52252 c -0.771859,0.47062 -1.34452,0.52262 -5.765007,0.52351 -3.465742,7e-4 -5.001322,-0.0923 -5.225521,-0.31651 -0.236676,-0.23668 -0.3175,-3.09437 -0.3175,-11.22589 0,-9.56395 0.05124,-10.95964 0.415774,-11.32417 0.343844,-0.34384 1.156322,-0.41552 4.696354,-0.4143 4.81996,0.002 5.976214,0.22009 6.848221,1.29368 l 0.607359,0.74776 5.820833,-2.1095 c 7.364332,-2.66888 7.504652,-2.68231 13.676592,-1.30972 l 4.68075,1.04097 1.40466,-0.48515 c 2.46598,-0.85172 3.70429,-0.68333 10.58463,1.43932 l 6.26954,1.93422 0.61166,-0.9458 c 0.884,-1.36691 1.78253,-1.57509 6.87254,-1.59232 3.67274,-0.0124 4.48261,0.0548 4.82865,0.40084 0.36453,0.36453 0.41577,1.76022 0.41577,11.32417 0,8.13152 -0.0808,10.98921 -0.3175,11.22589 -0.22387,0.22387 -1.74917,0.3175 -5.17251,0.3175 -5.48551,0 -6.18596,-0.17798 -6.83751,-1.73737 -0.41745,-0.99908 -1.32688,-1.25062 -1.61054,-0.44544 -0.5808,1.64867 -2.37225,2.97656 -4.01566,2.97656 -0.67248,0 -0.79517,0.11921 -0.94507,0.91825 -0.20517,1.09364 -1.22518,2.37901 -2.34909,2.96021 -0.59644,0.30843 -1.21171,0.37808 -2.31814,0.26244 l -1.50619,-0.15743 -0.16224,0.8112 c -0.32168,1.6084 -2.88108,3.35182 -4.35482,2.96643 -0.41189,-0.10771 -0.52264,0.0541 -0.64103,0.93675 -0.34363,2.56199 -3.00506,4.25349 -5.48845,3.48826 z m 2.93077,-2.64076 c 1.5935,-1.5935 0.98269,-2.64253 -3.10174,-5.327 -2.07231,-1.36201 -3.26861,-2.31406 -3.26861,-2.60123 0,-0.55463 0.50062,-1.08795 1.02125,-1.08795 0.21244,0 2.0265,1.07065 4.03125,2.37923 2.00475,1.30858 3.93675,2.51217 4.29335,2.67464 1.3988,0.63734 3.13026,-1.08761 2.6257,-2.61584 -0.17479,-0.52943 -1.29069,-1.4138 -4.24478,-3.36407 -2.20421,-1.45521 -4.07012,-2.80329 -4.14647,-2.99573 -0.21045,-0.53045 0.34313,-1.3699 0.90339,-1.3699 0.27298,0 2.83922,1.54781 5.70277,3.43958 5.6467,3.73044 6.25234,3.95817 7.42035,2.79015 0.77602,-0.77601 0.84969,-1.9478 0.16814,-2.67411 -0.26472,-0.2821 -2.34547,-1.74868 -4.62389,-3.25907 l -4.14258,-2.74616 0.55282,-0.77637 c 0.34383,-0.48286 0.70192,-0.71916 0.94719,-0.62504 0.2169,0.0832 2.56415,1.57907 5.21611,3.32409 3.1806,2.09287 5.06649,3.17276 5.54081,3.17276 1.39232,0 2.38402,-1.64851 1.84176,-3.06161 -0.0969,-0.25248 -3.38591,-2.57107 -7.30895,-5.15242 l -7.13279,-4.69337 -2.66491,0.89745 c -3.19001,1.07429 -4.75221,1.15105 -6.02124,0.29584 -1.34452,-0.90607 -2.09595,-2.18407 -2.09595,-3.56472 0,-2.20944 1.27071,-3.83664 3.57188,-4.57393 0.58208,-0.1865 1.47505,-0.51818 1.98437,-0.73706 l 0.92604,-0.39797 -2.77812,-0.61068 c -1.52797,-0.33588 -3.31391,-0.60938 -3.96875,-0.60779 -0.82102,0.002 -3.07971,0.6843 -7.276046,2.19793 l -6.085416,2.19504 -0.07018,7.56884 -0.07018,7.56884 1.954522,2.34834 c 2.100238,2.52341 4.820736,5.02137 7.73247,7.09994 2.37776,1.69739 10.08666,5.64395 11.04508,5.65451 0.48147,0.005 1.0235,-0.26731 1.52135,-0.76516 z M 89.192971,209.0233 c 0.08833,-0.23018 0.160599,-4.39318 0.160599,-9.25111 0,-8.46174 -0.02149,-8.84409 -0.511773,-9.10648 -0.283198,-0.15157 -2.173942,-0.2739 -4.233333,-0.2739 h -3.72156 v 9.525 9.525 h 4.072734 c 3.469725,0 4.096512,-0.062 4.233333,-0.41851 z m 55.193929,-9.10649 v -9.525 h -3.72156 c -2.05939,0 -3.95013,0.12233 -4.23333,0.2739 -0.49029,0.26239 -0.51177,0.64474 -0.51177,9.10648 0,4.85793 0.0723,9.02093 0.1606,9.25111 0.13682,0.35655 0.76361,0.41851 4.23333,0.41851 h 4.07273 z m -10.64508,-0.0313 -0.0705,-6.91045 -6.35,-1.95264 c -3.90706,-1.20143 -6.81034,-1.95282 -7.54658,-1.9531 -0.80892,-3.1e-4 -2.73762,0.55632 -5.95313,1.71809 -5.61816,2.02985 -5.80179,2.11756 -6.18252,2.95318 -0.46646,1.02376 -0.34525,1.91547 0.35562,2.61635 0.88155,0.88155 1.72425,0.83389 5.32884,-0.30137 l 3.01888,-0.95079 1.12382,0.67711 c 0.6181,0.37241 4.04085,2.61597 7.60611,4.98569 4.33246,2.87965 6.65779,4.59038 7.01146,5.15828 0.33737,0.54174 0.74653,0.8534 1.12887,0.8599 l 0.59971,0.0102 z"
       id="path826"
       inkscape:connector-curvature="0" />
  </g>
</svg>
