<?xml version="1.0" encoding="UTF-8" standalone="no"?>
<!-- Created with Inkscape (http://www.inkscape.org/) -->

<svg
   xmlns:dc="http://purl.org/dc/elements/1.1/"
   xmlns:cc="http://creativecommons.org/ns#"
   xmlns:rdf="http://www.w3.org/1999/02/22-rdf-syntax-ns#"
   xmlns:svg="http://www.w3.org/2000/svg"
   xmlns="http://www.w3.org/2000/svg"
   xmlns:sodipodi="http://sodipodi.sourceforge.net/DTD/sodipodi-0.dtd"
   xmlns:inkscape="http://www.inkscape.org/namespaces/inkscape"
   width="64"
   height="64"
   viewBox="0 0 16.933333 16.933334"
   version="1.1"
   id="svg8"
   inkscape:version="0.92.4 (5da689c313, 2019-01-14)"
   sodipodi:docname="pisciculture.svg">
  <defs
     id="defs2" />
  <sodipodi:namedview
     id="base"
     pagecolor="#ffffff"
     bordercolor="#666666"
     borderopacity="1.0"
     inkscape:pageopacity="0.0"
     inkscape:pageshadow="2"
     inkscape:zoom="5.6568542"
     inkscape:cx="64.991164"
     inkscape:cy="33.912744"
     inkscape:document-units="mm"
     inkscape:current-layer="layer1"
     showgrid="true"
     units="px"
     showguides="true"
     inkscape:guide-bbox="true"
     inkscape:window-width="2560"
     inkscape:window-height="1377"
     inkscape:window-x="-8"
     inkscape:window-y="-8"
     inkscape:window-maximized="1"
     inkscape:snap-global="false">
    <inkscape:grid
       type="xygrid"
       id="grid828" />
    <sodipodi:guide
       position="0,6.6145836"
       orientation="1,0"
       id="guide4533"
       inkscape:locked="false" />
    <sodipodi:guide
       position="15.875,0"
       orientation="0,1"
       id="guide4535"
       inkscape:locked="false" />
  </sodipodi:namedview>
  <metadata
     id="metadata5">
    <rdf:RDF>
      <cc:Work
         rdf:about="">
        <dc:format>image/svg+xml</dc:format>
        <dc:type
           rdf:resource="http://purl.org/dc/dcmitype/StillImage" />
        <dc:title></dc:title>
      </cc:Work>
    </rdf:RDF>
  </metadata>
  <g
     inkscape:label="Calque 1"
     inkscape:groupmode="layer"
     id="layer1"
     transform="translate(0,-280.06665)">
    <ellipse
       style="fill:none;fill-opacity:0.73728811;stroke:#000000;stroke-width:0.35;stroke-miterlimit:4;stroke-dasharray:none;stroke-opacity:1"
       id="path4539"
       cx="8.4666662"
       cy="288.53333"
       rx="8.2020826"
       ry="8.2020922" />
    <path
       style="fill:#000000;stroke-width:0.03414263"
       d="m 4.5827402,294.06133 c -0.5300429,-0.13833 -0.9540124,-0.53809 -1.1132353,-1.04967 -0.052083,-0.16735 -0.064688,-0.31383 -0.064688,-0.75193 v -0.54408 l -0.093742,-0.0357 c -0.2574863,-0.0979 -0.4855972,-0.41483 -0.4863505,-0.67571 -8.339e-4,-0.29199 0.1841259,-0.58692 0.4406255,-0.70259 l 0.1394661,-0.0629 v -2.19623 -2.19623 l 0.085357,-0.056 c 0.07907,-0.0518 0.091643,-0.0518 0.170713,0 l 0.085357,0.056 v 2.19623 2.19623 l 0.1394662,0.0629 c 0.2564996,0.11567 0.4414685,0.4106 0.4406255,0.70259 -7.644e-4,0.26275 -0.2288822,0.57781 -0.4903427,0.67722 l -0.097733,0.0371 0.01344,0.55671 c 0.013203,0.54689 0.015399,0.56069 0.1245356,0.78239 0.21386,0.43441 0.5965927,0.67428 1.0748192,0.67364 0.6245623,-6.9e-4 1.0161432,-0.46713 1.0134499,-1.20681 l -0.00104,-0.27807 -0.2242932,0.24754 c -0.2375017,0.2621 -0.3291241,0.30117 -0.4341712,0.18509 -0.031076,-0.0343 -0.056503,-0.0882 -0.056503,-0.11972 0,-0.0315 0.1855818,-0.2646 0.4124009,-0.51799 0.4449991,-0.49711 0.5222982,-0.54291 0.6325126,-0.3747 0.084049,0.12827 0.051422,1.13744 -0.046572,1.44067 -0.1368324,0.42337 -0.3897122,0.72337 -0.7480548,0.88742 -0.2281401,0.10445 -0.6525501,0.13524 -0.9160702,0.0664 z M 3.7458689,291.3249 c 0.1420887,-0.0734 0.2052328,-0.18198 0.2052328,-0.35264 0,-0.12445 -0.019422,-0.16888 -0.116085,-0.26555 -0.095166,-0.0951 -0.141926,-0.11607 -0.2594841,-0.11607 -0.1175581,0 -0.1643185,0.0209 -0.2594842,0.11607 -0.094863,0.0949 -0.1160849,0.14209 -0.1160849,0.25832 0,0.17808 0.04316,0.25999 0.1814283,0.34429 0.1306117,0.0797 0.2321843,0.0839 0.3644771,0.0156 z m 6.0977178,1.64377 -0.7080592,-0.55823 -0.4668335,-0.0394 c -0.9388386,-0.0793 -1.687109,-0.34588 -2.3295135,-0.82995 -0.4132014,-0.31135 -0.9540874,-0.92759 -0.9540874,-1.087 0,-0.0793 0.2148563,-0.3814 0.4500739,-0.63285 0.6878878,-0.73535 1.6990875,-1.19375 2.8105474,-1.27407 l 0.3414259,-0.0247 0.7797379,-0.57616 c 0.7140738,-0.52763 0.7873948,-0.57348 0.8706378,-0.54439 0.137958,0.0482 0.130635,0.1729 -0.04555,0.77573 -0.08627,0.29517 -0.147566,0.55169 -0.136219,0.57004 0.01135,0.0184 0.04047,0.0334 0.06471,0.0334 0.102399,0 0.948742,0.46031 1.227232,0.66746 0.170685,0.12696 0.323343,0.21677 0.350663,0.20629 0.02661,-0.0102 0.364014,-0.20406 0.749783,-0.43076 0.385766,-0.22669 0.741039,-0.42726 0.789493,-0.44568 0.188186,-0.0716 0.453322,0.1201 0.453708,0.32795 6.6e-5,0.038 -0.115484,0.35769 -0.256783,0.71032 l -0.256911,0.64113 0.262265,0.64959 c 0.235784,0.58399 0.259138,0.6621 0.231304,0.77373 -0.03387,0.13582 -0.207447,0.2801 -0.336976,0.2801 -0.0407,0 -0.430229,-0.20742 -0.865639,-0.46093 -0.435409,-0.25351 -0.799121,-0.46093 -0.808247,-0.46093 -0.0091,0 -0.151224,0.10064 -0.31577,0.22364 -0.271887,0.20324 -1.122398,0.66408 -1.225596,0.66408 -0.02344,0 -0.05126,0.014 -0.06185,0.0311 -0.01059,0.0171 0.05766,0.27646 0.151625,0.57632 0.09397,0.29985 0.170863,0.57667 0.170863,0.61514 0,0.086 -0.08638,0.17727 -0.167643,0.17727 -0.03318,0 -0.378967,-0.2512 -0.7683979,-0.55823 z m 0.3027153,-0.51524 c -0.06479,-0.20419 -0.117811,-0.39921 -0.117811,-0.43338 0,-0.0732 0.100587,-0.14246 0.290211,-0.19992 0.253231,-0.0768 0.885786,-0.40904 1.154675,-0.60658 0.146832,-0.10788 0.314269,-0.2307 0.372082,-0.27296 0.05781,-0.0423 0.149433,-0.0768 0.203597,-0.0768 0.06476,0 0.368197,0.15775 0.88624,0.46074 0.476016,0.27842 0.778729,0.43717 0.764938,0.40118 -0.01256,-0.0328 -0.132334,-0.33183 -0.266185,-0.6646 l -0.243363,-0.60505 0.249203,-0.62409 c 0.137063,-0.34325 0.256712,-0.64286 0.265888,-0.6658 0.0092,-0.0229 -0.349163,0.17295 -0.796309,0.43531 -0.447145,0.26237 -0.844531,0.47704 -0.883081,0.47704 -0.03856,0 -0.146629,-0.0633 -0.240177,-0.14076 -0.45261,-0.37456 -0.968405,-0.67344 -1.41042,-0.8173 -0.125292,-0.0408 -0.258328,-0.10331 -0.295639,-0.13897 -0.06766,-0.0647 -0.06764,-0.0655 0.0079,-0.346 0.04169,-0.15465 0.09867,-0.35514 0.126614,-0.44555 l 0.05081,-0.16437 -0.178274,0.12979 c -0.098052,0.0713 -0.3577572,0.26209 -0.5771245,0.4238 l -0.3988498,0.29401 -0.3522892,0.0241 c -0.1937587,0.0132 -0.4521553,0.0429 -0.5742156,0.0658 -0.2586989,0.0485 -0.2577957,0.0455 -0.1247545,0.42153 0.1264805,0.35746 0.1690243,0.62751 0.1684899,1.06947 -6.051e-4,0.44163 -0.065953,0.80494 -0.2135923,1.18616 l -0.095746,0.24723 0.1242659,0.0325 c 0.2119677,0.0553 0.6463363,0.10475 0.920553,0.10478 l 0.2621353,3e-5 0.5121398,0.40587 c 0.281676,0.22323 0.515219,0.40322 0.518985,0.39999 0.0038,-0.004 -0.04617,-0.17294 -0.110963,-0.37712 z m -2.4907452,-0.87927 c 0.1659619,-0.40792 0.2046727,-0.62966 0.2015033,-1.15424 -0.00264,-0.43378 -0.014315,-0.53246 -0.09448,-0.79702 -0.050317,-0.16607 -0.114415,-0.34628 -0.1424375,-0.40047 l -0.050951,-0.0985 -0.1787341,0.0698 c -0.4571335,0.17861 -0.9706462,0.52905 -1.3059786,0.89125 -0.3112638,0.3362 -0.3151191,0.34575 -0.2041438,0.5059 0.1293936,0.18671 0.5739508,0.60476 0.8068177,0.75871 0.2249115,0.1487 0.8149812,0.44165 0.8596054,0.42677 0.016879,-0.005 0.065842,-0.0966 0.1087976,-0.20221 z m -0.9771337,-0.96425 c -0.2889723,-0.19636 -0.2811671,-0.65651 0.014272,-0.84209 0.1558255,-0.0979 0.4650991,-0.0771 0.5900794,0.0397 0.1248233,0.11662 0.185028,0.24601 0.1848806,0.39733 -4.03e-4,0.38622 -0.4656036,0.625 -0.7892437,0.40508 z m 0.3985389,-0.32856 c 0.06851,-0.0757 0.047517,-0.14723 -0.06384,-0.21748 -0.1316582,-0.0831 -0.265855,0.15081 -0.1395418,0.24317 0.084388,0.0617 0.129436,0.0561 0.2033818,-0.0257 z m -2.8697902,-4.6582 c -0.1126709,-0.0249 -0.3660302,-0.11064 -0.5630208,-0.19022 -0.2646535,-0.10692 -0.4206499,-0.14879 -0.597496,-0.16036 -0.1316326,-0.009 -0.2739012,-0.0374 -0.3161525,-0.0639 -0.096211,-0.0604 -0.09946,-0.18633 -0.00697,-0.27003 0.064862,-0.0587 0.09319,-0.0602 0.3964938,-0.0219 0.2349153,0.0297 0.4163576,0.0787 0.6461222,0.17474 0.4431654,0.18517 0.6227759,0.21909 1.0601722,0.20023 0.3374213,-0.0146 0.4005152,-0.0284 0.6973849,-0.15323 0.4508322,-0.18955 0.6414331,-0.23127 1.0563766,-0.23127 0.4180913,0 0.6100813,0.0425 1.0563766,0.23418 l 0.3264008,0.14015 0.4950693,-2.1e-4 0.4950673,-2e-4 0.3755698,-0.15863 c 0.4379004,-0.18495 0.796322,-0.25188 1.177921,-0.21993 0.319534,0.0268 0.514362,0.0792 0.904778,0.24348 0.27569,0.11601 0.345427,0.13098 0.67827,0.14552 0.439029,0.0192 0.616352,-0.0146 1.068079,-0.20333 0.424825,-0.17751 0.924355,-0.24935 1.035347,-0.1489 0.172486,0.15611 0.03211,0.32475 -0.271275,0.32592 -0.122893,4.1e-4 -0.289951,0.037 -0.478935,0.10511 -0.159616,0.0573 -0.397046,0.14301 -0.527626,0.19021 -0.29285,0.10587 -0.757709,0.14056 -1.096219,0.0818 -0.130312,-0.0226 -0.413617,-0.11168 -0.629568,-0.19793 -0.369765,-0.14769 -0.415624,-0.15772 -0.787147,-0.17234 -0.378111,-0.0148 -0.4071966,-0.0109 -0.6999221,0.0947 -0.1679801,0.0606 -0.4122545,0.14836 -0.5428315,0.1949 -0.2929019,0.10441 -0.7605276,0.13892 -1.0942993,0.0807 -0.1292532,-0.0225 -0.4125585,-0.11284 -0.629569,-0.20074 L 7.0410079,285.28196 H 6.5800824 6.1191568 l -0.3926392,0.15884 c -0.2159516,0.0874 -0.4838072,0.17561 -0.5952314,0.1961 -0.2662581,0.049 -0.6689511,0.043 -0.9241158,-0.0136 z m 0.1184892,-1.3486 c -0.1038373,-0.0165 -0.2958899,-0.0713 -0.4267831,-0.12152 -0.5579987,-0.21429 -0.6893185,-0.25265 -0.8696274,-0.25397 -0.2256697,-0.002 -0.3545087,-0.0596 -0.3697771,-0.16623 -0.041541,-0.29015 0.4744066,-0.27565 1.2233427,0.0343 l 0.3584982,0.14839 c 0,0 0.3059924,0.0599 0.4609255,0.0599 0.1549443,-3e-5 0.4609256,-0.0602 0.4609256,-0.0602 l 0.3926392,-0.15883 c 0.7857795,-0.31789 1.2627809,-0.31789 2.0485583,0 l 0.392642,0.15883 0.4609256,1.4e-4 0.4609256,1.4e-4 0.3584975,-0.14839 c 0.7907654,-0.3273 1.2936764,-0.32988 2.0827004,-0.0106 l 0.392638,0.15883 0.460927,1.4e-4 0.460925,1.4e-4 0.353964,-0.14635 c 0.590219,-0.244 1.056684,-0.31679 1.177163,-0.18367 0.06831,0.0755 0.07165,0.1428 0.0112,0.22549 -0.03432,0.047 -0.115194,0.0685 -0.33338,0.0883 -0.220567,0.0201 -0.381169,0.0631 -0.685459,0.18343 -0.768723,0.30403 -1.284226,0.29601 -2.059893,-0.032 -0.289047,-0.12226 -0.332609,-0.13085 -0.734066,-0.1447 -0.4672017,-0.0162 -0.361683,-0.0397 -1.2291339,0.27486 -0.2660301,0.0965 -0.3257746,0.10525 -0.7169949,0.10525 -0.4567361,0 -0.4401058,0.005 -1.2462068,-0.29679 -0.2066629,-0.0771 -0.2921215,-0.0891 -0.6316399,-0.0891 -0.3395185,0 -0.4249751,0.0121 -0.6316372,0.0891 -0.6865661,0.25615 -0.7997749,0.28665 -1.1174185,0.30105 -0.1741152,0.008 -0.4015305,6.8e-4 -0.5053678,-0.0158 z"
       id="path5822"
       inkscape:connector-curvature="0"
       sodipodi:nodetypes="ccscccsccccccccsccccccccccscccccccscscsccscccscscscccscccccccccssscsccssscssccsccccsccscccccccccccsccccccccccscccccccccccccccccccccccsssccscccccscccccccccccccccccccccccccccaccccccccccccccccsccscscccc" />
  </g>
</svg>
