<?xml version="1.0" encoding="UTF-8" standalone="no"?>
<!-- Created with Inkscape (http://www.inkscape.org/) -->

<svg
   xmlns:dc="http://purl.org/dc/elements/1.1/"
   xmlns:cc="http://creativecommons.org/ns#"
   xmlns:rdf="http://www.w3.org/1999/02/22-rdf-syntax-ns#"
   xmlns:svg="http://www.w3.org/2000/svg"
   xmlns="http://www.w3.org/2000/svg"
   xmlns:sodipodi="http://sodipodi.sourceforge.net/DTD/sodipodi-0.dtd"
   xmlns:inkscape="http://www.inkscape.org/namespaces/inkscape"
   width="64"
   height="64"
   viewBox="0 0 16.933333 16.933334"
   version="1.1"
   id="svg8"
   inkscape:version="0.92.4 (5da689c313, 2019-01-14)"
   sodipodi:docname="routes.svg">
  <defs
     id="defs2" />
  <sodipodi:namedview
     id="base"
     pagecolor="#ffffff"
     bordercolor="#666666"
     borderopacity="1.0"
     inkscape:pageopacity="0.0"
     inkscape:pageshadow="2"
     inkscape:zoom="5.6568542"
     inkscape:cx="53.862259"
     inkscape:cy="36.945597"
     inkscape:document-units="mm"
     inkscape:current-layer="layer1"
     showgrid="true"
     units="px"
     showguides="true"
     inkscape:guide-bbox="true"
     inkscape:window-width="1920"
     inkscape:window-height="1017"
     inkscape:window-x="862"
     inkscape:window-y="2152"
     inkscape:window-maximized="1"
     inkscape:snap-global="false">
    <inkscape:grid
       type="xygrid"
       id="grid828" />
    <sodipodi:guide
       position="0,6.6145836"
       orientation="1,0"
       id="guide4533"
       inkscape:locked="false" />
    <sodipodi:guide
       position="15.875,0"
       orientation="0,1"
       id="guide4535"
       inkscape:locked="false" />
  </sodipodi:namedview>
  <metadata
     id="metadata5">
    <rdf:RDF>
      <cc:Work
         rdf:about="">
        <dc:format>image/svg+xml</dc:format>
        <dc:type
           rdf:resource="http://purl.org/dc/dcmitype/StillImage" />
        <dc:title></dc:title>
      </cc:Work>
    </rdf:RDF>
  </metadata>
  <g
     inkscape:label="Calque 1"
     inkscape:groupmode="layer"
     id="layer1"
     transform="translate(0,-280.06665)">
    <ellipse
       style="fill:none;fill-opacity:0.73728811;stroke:#000000;stroke-width:0.35;stroke-miterlimit:4;stroke-dasharray:none;stroke-opacity:1"
       id="path4539"
       cx="8.4666662"
       cy="288.53333"
       rx="8.2020826"
       ry="8.2020922" />
    <path
       style="fill:#000000;stroke-width:0.05306674"
       d="m 2.707659,293.25095 c -0.1193494,-0.14381 -0.040132,-0.26413 0.2364048,-0.35907 1.9639134,-0.6742 3.0967182,-1.10099 4.5100237,-1.69918 1.119071,-0.47366 1.4111261,-0.64612 1.5137605,-0.89391 0.1486603,-0.35889 -0.1984765,-0.6776 -1.5910988,-1.4608 -1.402888,-0.78899 -2.0744675,-1.30135 -2.3728072,-1.81028 -0.1895113,-0.32329 -0.2211668,-0.73939 -0.078644,-1.0338 0.3320207,-0.68586 1.3106262,-1.2436 3.39641,-1.93574 0.7587697,-0.25179 0.911893,-0.28595 1.2205356,-0.27234 l 0.3529174,0.0156 -0.4372492,0.1501 c -0.2404861,0.0826 -0.4508457,0.17211 -0.4674653,0.19901 -0.07194,0.1164 0.4254172,0.0334 0.8842261,-0.14757 0.4752254,-0.18744 0.5318284,-0.19731 1.2331324,-0.21513 0.582005,-0.0147 0.730304,-0.005 0.712279,0.0496 -0.01253,0.0376 -0.438811,0.23675 -0.94731,0.44263 -2.175129,0.88068 -3.0214035,1.56892 -2.595279,2.11065 0.2226357,0.28304 0.5018911,0.38894 2.2014,0.83485 3.125102,0.81995 4.531876,1.72041 4.536041,2.90347 0.0027,0.77712 -0.553363,1.55773 -1.742051,2.44537 -0.272882,0.20377 -0.653698,0.45047 -0.846258,0.54821 l -0.350109,0.17773 -4.6519895,0.0143 c -4.0446016,0.0125 -4.6604609,0.004 -4.7168666,-0.0638 z m 7.506282,-0.91399 c 0.335436,-0.22341 0.609884,-0.42639 0.609884,-0.45107 0,-0.0247 -0.145383,-0.0449 -0.323075,-0.0449 -0.311041,0 -0.347565,0.0153 -0.9805453,0.41127 -0.3616091,0.22619 -0.6580052,0.42918 -0.6586595,0.45107 -6.615e-4,0.0219 0.1661435,0.0398 0.3706602,0.0398 h 0.3718492 z m 1.649429,-1.2618 c 0.289709,-0.30236 0.479738,-0.63469 0.525493,-0.91902 l 0.03629,-0.22553 h -0.216932 c -0.187654,0 -0.216931,0.0156 -0.216931,0.11591 0,0.22625 -0.226552,0.57973 -0.560832,0.87503 -0.185801,0.16414 -0.325254,0.31876 -0.309897,0.34361 0.01535,0.0249 0.138068,0.0452 0.272689,0.0452 0.220259,0 0.267327,-0.0236 0.470115,-0.23518 z m -0.03128,-1.88475 c 0,-0.0277 -0.240962,-0.17096 -0.535471,-0.3184 -0.476343,-0.23847 -0.57303,-0.26807 -0.875602,-0.26807 -0.191374,0 -0.340129,0.0232 -0.340129,0.0531 0,0.0292 0.006,0.0531 0.01342,0.0531 0.0074,0 0.276034,0.11843 0.597001,0.26318 0.455102,0.20525 0.644906,0.26367 0.862174,0.26534 0.15323,8e-4 0.2786,-0.0205 0.2786,-0.0482 z m -2.2409441,-1.02089 c -0.012276,-0.0368 -0.2712811,-0.16797 -0.5755601,-0.2914 -0.4295138,-0.17424 -0.6240132,-0.22498 -0.8697392,-0.2269 -0.2753681,-0.002 -0.3064054,0.007 -0.2387998,0.0734 0.042738,0.0418 0.2888533,0.16828 0.5469227,0.28113 0.3613413,0.15801 0.5485697,0.20811 0.81436,0.21793 0.2585473,0.01 0.3395402,-0.004 0.3228164,-0.0542 z m -2.1105282,-0.94423 c 0,-0.0286 -0.08955,-0.0982 -0.1990001,-0.15457 -0.3605282,-0.18584 -0.6414498,-0.47133 -0.7417966,-0.75387 -0.07453,-0.20985 -0.115588,-0.26092 -0.2000257,-0.24881 -0.087044,0.0125 -0.1055611,0.054 -0.102454,0.2301 0.00457,0.25799 0.1538875,0.47956 0.5205409,0.77233 0.212017,0.16929 0.3010596,0.2068 0.4908675,0.2068 0.1275273,0 0.231868,-0.0234 0.231868,-0.052 z m -0.2279855,-1.88496 c 0.1337863,-0.10215 0.2850189,-0.18572 0.3360723,-0.18572 0.051053,0 0.1051362,-0.0321 0.1201833,-0.0713 0.015042,-0.0392 0.184673,-0.15263 0.3769481,-0.25206 0.1922744,-0.0994 0.3496787,-0.19869 0.3497869,-0.22058 4.811e-4,-0.0995 -0.3550116,-0.0227 -0.7042629,0.15213 -0.4286117,0.21456 -1.0467434,0.63554 -1.0467434,0.71289 0,0.12209 0.3355896,0.0421 0.5680157,-0.13535 z"
       id="path4552"
       inkscape:connector-curvature="0"
       sodipodi:nodetypes="ccsssssccccccccscsccccccccssccscccccssccsccsssscccccscccccsccccssscscccssc" />
  </g>
</svg>
