<?xml version="1.0" encoding="UTF-8" standalone="no"?>
<!-- Created with Inkscape (http://www.inkscape.org/) -->

<svg
   xmlns:dc="http://purl.org/dc/elements/1.1/"
   xmlns:cc="http://creativecommons.org/ns#"
   xmlns:rdf="http://www.w3.org/1999/02/22-rdf-syntax-ns#"
   xmlns:svg="http://www.w3.org/2000/svg"
   xmlns="http://www.w3.org/2000/svg"
   xmlns:sodipodi="http://sodipodi.sourceforge.net/DTD/sodipodi-0.dtd"
   xmlns:inkscape="http://www.inkscape.org/namespaces/inkscape"
   width="64"
   height="64"
   viewBox="0 0 16.933333 16.933334"
   version="1.1"
   id="svg8"
   inkscape:version="0.92.4 (5da689c313, 2019-01-14)"
   sodipodi:docname="sensibilisationi.svg">
  <defs
     id="defs2" />
  <sodipodi:namedview
     id="base"
     pagecolor="#ffffff"
     bordercolor="#666666"
     borderopacity="1.0"
     inkscape:pageopacity="0.0"
     inkscape:pageshadow="2"
     inkscape:zoom="8"
     inkscape:cx="40.903142"
     inkscape:cy="31.133661"
     inkscape:document-units="mm"
     inkscape:current-layer="layer1"
     showgrid="true"
     units="px"
     showguides="true"
     inkscape:guide-bbox="true"
     inkscape:window-width="1920"
     inkscape:window-height="1017"
     inkscape:window-x="862"
     inkscape:window-y="2152"
     inkscape:window-maximized="1"
     inkscape:snap-global="false">
    <inkscape:grid
       type="xygrid"
       id="grid828" />
    <sodipodi:guide
       position="0,6.6145836"
       orientation="1,0"
       id="guide4533"
       inkscape:locked="false" />
    <sodipodi:guide
       position="15.875,0"
       orientation="0,1"
       id="guide4535"
       inkscape:locked="false" />
  </sodipodi:namedview>
  <metadata
     id="metadata5">
    <rdf:RDF>
      <cc:Work
         rdf:about="">
        <dc:format>image/svg+xml</dc:format>
        <dc:type
           rdf:resource="http://purl.org/dc/dcmitype/StillImage" />
        <dc:title></dc:title>
      </cc:Work>
    </rdf:RDF>
  </metadata>
  <g
     inkscape:label="Calque 1"
     inkscape:groupmode="layer"
     id="layer1"
     transform="translate(0,-280.06665)">
    <ellipse
       style="fill:none;fill-opacity:0.73728811;stroke:#000000;stroke-width:0.35;stroke-miterlimit:4;stroke-dasharray:none;stroke-opacity:1"
       id="path4539"
       cx="8.4666662"
       cy="288.53333"
       rx="8.2020826"
       ry="8.2020922" />
    <path
       style="fill:#000000;stroke-width:0.05778528"
       d="m 5.8041628,293.12064 c 0.03529,-0.69826 0.124585,-1.00344 0.314984,-1.07651 0.05145,-0.0197 0.421283,-0.0359 0.821854,-0.0359 0.659222,0 0.740506,0.0115 0.856859,0.12077 l 0.128547,0.12077 0.120765,-0.12077 c 0.110284,-0.11028 0.186888,-0.12077 0.882695,-0.12077 0.704799,0 0.772047,0.01 0.8968484,0.12675 l 0.134918,0.12675 0.08878,-0.12675 c 0.0839,-0.11979 0.131449,-0.12675 0.865603,-0.12675 0.710914,0 0.787071,0.0103 0.89759,0.12077 l 0.120764,0.12077 0.128547,-0.12077 c 0.116515,-0.10946 0.197514,-0.12077 0.865384,-0.12077 0.40526,0 0.786588,0.0267 0.847397,0.0592 0.154217,0.0825 0.27398,0.56057 0.300056,1.19766 l 0.02188,0.53452 -4.1638898,3e-5 -4.1638896,3e-5 z m -2.471966,0.15971 c -0.15312,-0.0632 -0.249365,-0.23016 -0.249365,-0.43258 0,-0.10182 0.08221,-0.23032 0.254463,-0.39773 0.635989,-0.61811 0.977314,-1.4124 0.983844,-2.28948 0.0037,-0.49182 -0.007,-0.54971 -0.104748,-0.56912 -0.08984,-0.0178 -0.102605,0.003 -0.07316,0.12045 0.01961,0.0782 0.03942,0.37325 0.04403,0.6558 0.0094,0.5781 -0.120156,0.98938 -0.473538,1.50299 -0.183865,0.26725 -0.191248,0.27151 -0.233197,0.13454 -0.104635,-0.34163 -0.225103,-2.08242 -0.224732,-3.2474 2.19e-4,-0.70881 -0.02233,-1.25683 -0.05173,-1.25683 -0.155503,0 -0.323465,1.2061 -0.262157,1.88248 0.03987,0.4398 -0.03124,0.60228 -0.263564,0.60228 -0.243396,0 -0.289042,-0.14085 -0.28691,-0.88535 0.0036,-1.23657 0.230613,-2.054 0.661969,-2.38302 0.214036,-0.16325 0.223799,-0.16478 1.292703,-0.20249 0.956725,-0.0337 1.131908,-0.0557 1.568214,-0.19722 0.542441,-0.17583 0.944017,-0.36453 1.31058,-0.6158 0.284474,-0.19501 0.370141,-0.20418 0.505909,-0.0542 0.153994,0.17017 0.06412,0.33303 -0.321205,0.58208 -0.437465,0.28275 -1.037395,0.53198 -1.697532,0.70523 l -0.520068,0.13648 -7.43e-4,1.96275 -7.42e-4,1.96275 -0.157551,0.42727 c -0.184397,0.50008 -0.341892,0.78087 -0.687526,1.22578 -0.435977,0.56119 -0.733007,0.74597 -1.013223,0.6303 z m 0.597421,0.0136 c -0.01793,-0.029 0.09625,-0.17966 0.253729,-0.33477 l 0.286331,-0.28203 v 0.17923 c 0,0.0986 -0.04551,0.233 -0.101124,0.29873 -0.112708,0.1332 -0.388506,0.22044 -0.438936,0.13884 z m 2.699976,-1.53931 c -0.234772,-0.10577 -0.368572,-0.30259 -0.368572,-0.5422 0,-0.40877 0.252785,-0.6488 0.683285,-0.6488 0.266986,0 0.460157,0.12989 0.564476,0.37956 0.22165,0.53048 -0.343995,1.05254 -0.879189,0.81144 z m 2.022485,-0.002 c -0.247249,-0.10761 -0.368572,-0.30179 -0.368572,-0.5899 0,-0.19401 0.03569,-0.27843 0.1778,-0.42054 0.151131,-0.15113 0.221141,-0.1778 0.466728,-0.1778 0.242293,0 0.316189,0.0273 0.457837,0.16891 0.301273,0.30128 0.211126,0.81457 -0.178439,1.01602 -0.20315,0.10505 -0.319991,0.10575 -0.555354,0.003 z m 1.9538072,-0.034 c -0.58188,-0.35476 -0.347014,-1.15422 0.339092,-1.15422 0.231921,0 0.305454,0.0288 0.454488,0.1778 0.320268,0.32027 0.216356,0.83748 -0.203498,1.0129 -0.258531,0.10802 -0.363742,0.10152 -0.590082,-0.0365 z m 2.127087,0.079 c -0.04768,-0.0188 -0.157863,-0.1005 -0.244868,-0.18156 -0.412598,-0.38439 -0.137255,-1.0517 0.433951,-1.0517 0.521187,0 0.805882,0.40653 0.622489,0.88889 -0.09572,0.25177 -0.553678,0.4461 -0.811572,0.34437 z m -6.9342332,-4.00696 c 0,-0.62921 0.01408,-0.75121 0.08668,-0.75121 0.07202,0 0.08668,0.11237 0.08668,0.66454 v 0.66453 h 3.9582914 3.9582908 v -2.25363 -2.25363 H 9.9303912 5.9720998 v 1.1846 c 0,1.01446 -0.01245,1.1846 -0.08668,1.1846 -0.07442,0 -0.08668,-0.17977 -0.08668,-1.27127 v -1.27128 h 4.1027544 4.1027548 v 2.42698 2.42698 H 9.9014942 5.7987398 Z m -2.005233,-1.61565 c -0.238878,-0.14564 -0.363964,-0.39301 -0.363964,-0.71976 0,-0.49061 0.50459,-0.85972 0.991485,-0.72528 0.555166,0.15328 0.785253,0.87045 0.411695,1.28323 -0.259946,0.28723 -0.716841,0.35838 -1.039216,0.16181 z"
       id="path5724"
       inkscape:connector-curvature="0"
       sodipodi:nodetypes="ccscccscccscccscccccccsccccccccscsccccccscccccccccccscccsscccscscccccsccccccsccssscccccccssscccccccscsccc" />
  </g>
</svg>
