<?xml version="1.0" encoding="UTF-8" standalone="no"?>
<!-- Created with Inkscape (http://www.inkscape.org/) -->

<svg
   xmlns:dc="http://purl.org/dc/elements/1.1/"
   xmlns:cc="http://creativecommons.org/ns#"
   xmlns:rdf="http://www.w3.org/1999/02/22-rdf-syntax-ns#"
   xmlns:svg="http://www.w3.org/2000/svg"
   xmlns="http://www.w3.org/2000/svg"
   xmlns:sodipodi="http://sodipodi.sourceforge.net/DTD/sodipodi-0.dtd"
   xmlns:inkscape="http://www.inkscape.org/namespaces/inkscape"
   width="64"
   height="64"
   viewBox="0 0 16.933333 16.933334"
   version="1.1"
   id="svg8"
   inkscape:version="0.92.4 (5da689c313, 2019-01-14)"
   sodipodi:docname="suivi.svg">
  <defs
     id="defs2" />
  <sodipodi:namedview
     id="base"
     pagecolor="#ffffff"
     bordercolor="#666666"
     borderopacity="1.0"
     inkscape:pageopacity="0.0"
     inkscape:pageshadow="2"
     inkscape:zoom="5.6568542"
     inkscape:cx="24.490047"
     inkscape:cy="30.789601"
     inkscape:document-units="mm"
     inkscape:current-layer="layer1"
     showgrid="true"
     units="px"
     showguides="true"
     inkscape:guide-bbox="true"
     inkscape:window-width="1920"
     inkscape:window-height="1017"
     inkscape:window-x="862"
     inkscape:window-y="2152"
     inkscape:window-maximized="1"
     inkscape:snap-global="false">
    <inkscape:grid
       type="xygrid"
       id="grid828" />
    <sodipodi:guide
       position="0,6.6145836"
       orientation="1,0"
       id="guide4533"
       inkscape:locked="false" />
    <sodipodi:guide
       position="15.875,0"
       orientation="0,1"
       id="guide4535"
       inkscape:locked="false" />
  </sodipodi:namedview>
  <metadata
     id="metadata5">
    <rdf:RDF>
      <cc:Work
         rdf:about="">
        <dc:format>image/svg+xml</dc:format>
        <dc:type
           rdf:resource="http://purl.org/dc/dcmitype/StillImage" />
        <dc:title></dc:title>
      </cc:Work>
    </rdf:RDF>
  </metadata>
  <g
     inkscape:label="Calque 1"
     inkscape:groupmode="layer"
     id="layer1"
     transform="translate(0,-280.06665)">
    <ellipse
       style="fill:none;fill-opacity:0.73728811;stroke:#000000;stroke-width:0.35;stroke-miterlimit:4;stroke-dasharray:none;stroke-opacity:1"
       id="path4539"
       cx="8.4666662"
       cy="288.53333"
       rx="8.2020826"
       ry="8.2020922" />
    <path
       style="fill:#000000;stroke-width:0.05329476"
       d="m 5.0838873,292.3364 c -1.203146,-0.16868 -2.106417,-1.4213 -1.889105,-2.61971 0.0828,-0.45665 0.142267,-0.56297 1.036001,-1.85256 1.165164,-1.68123 1.167372,-1.68397 1.480944,-1.84601 0.38072,-0.19674 1.00022,-0.20851 1.39736,-0.0266 0.348337,0.15969 0.656194,0.46238 0.698291,0.68678 0.01818,0.0968 0.04784,0.17618 0.06593,0.17618 0.01808,0 0.120562,-0.096 0.227738,-0.21318 0.268375,-0.29359 0.46695,-0.29359 0.746243,0 0.111536,0.11724 0.213075,0.21318 0.225643,0.21318 0.01257,0 0.03762,-0.0787 0.05566,-0.1749 0.04574,-0.2438 0.296336,-0.49777 0.658022,-0.66685 0.2480817,-0.11593 0.3843927,-0.14352 0.7104587,-0.14385 0.344438,-4.1e-4 0.449721,0.0233 0.71948,0.161 0.292289,0.14924 0.356813,0.21925 0.859889,0.93266 1.412282,2.00275 1.555533,2.23446 1.64402,2.65926 0.388401,1.86455 -1.537698,3.33553 -3.255725,2.48644 -0.8021557,-0.39644 -1.2505057,-1.18329 -1.2505057,-2.19459 0,-0.61048 -0.191196,-0.8208 -0.746127,-0.8208 -0.55493,0 -0.746126,0.21032 -0.746126,0.8208 0,0.96467 -0.432343,1.76818 -1.155826,2.14808 -0.530655,0.27864 -0.928152,0.35228 -1.482264,0.27459 z m 1.175866,-0.75204 c 0.547644,-0.28044 0.880517,-0.79811 0.916674,-1.42555 0.04225,-0.73323 -0.279447,-1.28744 -0.934496,-1.60992 -0.307606,-0.15137 -0.41124,-0.1754 -0.757213,-0.17509 -0.320919,2e-4 -0.459269,0.0281 -0.693952,0.13928 -0.353144,0.16733 -0.654113,0.45965 -0.843954,0.81971 -0.119621,0.22686 -0.140619,0.33381 -0.141255,0.71946 -6.44e-4,0.38942 0.02025,0.49578 0.148798,0.75757 0.179163,0.36483 0.531636,0.69069 0.908697,0.84008 0.392954,0.15561 1.022443,0.12622 1.396691,-0.0655 z m 6.0400897,-0.12197 c 0.577108,-0.31411 0.886625,-0.88047 0.845438,-1.54698 -0.03964,-0.64155 -0.375285,-1.1152 -0.989523,-1.39642 -0.251147,-0.11495 -0.342805,-0.12867 -0.721912,-0.10793 -0.497787,0.0273 -0.746728,0.13226 -1.067766,0.45005 -0.4776217,0.4728 -0.6238087,1.21794 -0.356736,1.81833 0.159281,0.35806 0.612497,0.7811 0.954006,0.89052 0.401408,0.12866 0.989446,0.0811 1.336493,-0.1076 z M 8.7645343,288.315 c 0.330725,-0.15691 0.274035,-0.42773 -0.116527,-0.55664 -0.218623,-0.0722 -0.446027,-0.0291 -0.599059,0.11348 -0.163363,0.15218 -0.142707,0.29898 0.05942,0.42221 0.209765,0.12785 0.416826,0.13455 0.656171,0.0209 z m -1.234007,-2.49581 c -0.258657,-0.18117 -0.785161,-0.30752 -1.202509,-0.28857 -0.224451,0.01 -0.39525,-0.002 -0.379553,-0.0276 0.01569,-0.0253 0.133367,-0.0926 0.261489,-0.14924 0.174654,-0.0772 0.232949,-0.13275 0.232949,-0.22193 0,-0.18133 0.14262,-0.346 0.349009,-0.403 0.49258,-0.13601 1.018882,0.30949 0.870043,0.73644 -0.03171,0.0909 -0.04271,0.22492 -0.02445,0.29767 0.03879,0.15463 0.03569,0.1561 -0.106982,0.0562 z m 1.721828,-0.2545 c -0.04377,-0.48271 0.105799,-0.71508 0.540556,-0.83976 0.3368957,-0.0967 0.7003947,0.11544 0.7003947,0.40868 0,0.0852 0.05088,0.1427 0.173207,0.19562 0.09526,0.0413 0.216335,0.1081 0.269046,0.14843 0.08347,0.064 0.04472,0.0709 -0.300456,0.0534 -0.428293,-0.0215 -0.8908907,0.0805 -1.1869877,0.262 l -0.165826,0.10173 z"
       id="path5711"
       inkscape:connector-curvature="0"
       sodipodi:nodetypes="ccccccsccsccccsccssscccccccccccccccccccccccccccccccccscccccccscccccc" />
  </g>
</svg>
