<?xml version="1.0" encoding="UTF-8" standalone="no"?>
<!-- Created with Inkscape (http://www.inkscape.org/) -->

<svg
   xmlns:dc="http://purl.org/dc/elements/1.1/"
   xmlns:cc="http://creativecommons.org/ns#"
   xmlns:rdf="http://www.w3.org/1999/02/22-rdf-syntax-ns#"
   xmlns:svg="http://www.w3.org/2000/svg"
   xmlns="http://www.w3.org/2000/svg"
   xmlns:sodipodi="http://sodipodi.sourceforge.net/DTD/sodipodi-0.dtd"
   xmlns:inkscape="http://www.inkscape.org/namespaces/inkscape"
   width="210mm"
   height="297mm"
   viewBox="0 0 210 297"
   version="1.1"
   id="svg8"
   inkscape:version="0.92.4 (5da689c313, 2019-01-14)"
   sodipodi:docname="books.svg">
  <defs
     id="defs2" />
  <sodipodi:namedview
     id="base"
     pagecolor="#ffffff"
     bordercolor="#666666"
     borderopacity="1.0"
     inkscape:pageopacity="0.0"
     inkscape:pageshadow="2"
     inkscape:zoom="1.4"
     inkscape:cx="310.16668"
     inkscape:cy="556.52819"
     inkscape:document-units="mm"
     inkscape:current-layer="layer1"
     showgrid="false"
     inkscape:window-width="1920"
     inkscape:window-height="1017"
     inkscape:window-x="-8"
     inkscape:window-y="-8"
     inkscape:window-maximized="1" />
  <metadata
     id="metadata5">
    <rdf:RDF>
      <cc:Work
         rdf:about="">
        <dc:format>image/svg+xml</dc:format>
        <dc:type
           rdf:resource="http://purl.org/dc/dcmitype/StillImage" />
        <dc:title></dc:title>
      </cc:Work>
    </rdf:RDF>
  </metadata>
  <g
     inkscape:label="Calque 1"
     inkscape:groupmode="layer"
     id="layer1">
    <path
       style="fill:#000000;stroke-width:0.26458332"
       d="m 96.306325,180.35852 c -12.33953,-1.68318 -23.24839,-8.84823 -30.0437,-19.73301 -4.422464,-7.08393 -6.753211,-17.09557 -5.906609,-25.37163 1.247062,-12.19081 7.121579,-22.75801 16.613699,-29.88504 16.58925,-12.455814 39.736405,-10.815325 54.407725,3.856 7.05788,7.05788 11.21539,16.06376 12.11699,26.24748 1.07053,12.092 -3.40042,24.29883 -12.08354,32.99106 -9.23345,9.24316 -22.239,13.65007 -35.104565,11.89514 z m 12.262295,-1.43351 c 12.52992,-2.14209 23.36731,-10.0033 29.1434,-21.13998 2.40651,-4.63991 3.77221,-8.93273 4.43234,-13.93219 0.48469,-3.67084 0.1746,-10.17045 -0.6544,-13.71638 -1.8807,-8.0444 -5.50762,-14.56611 -11.27975,-20.28258 -11.45294,-11.342501 -28.86975,-14.723307 -43.771915,-8.49664 -14.55321,6.08086 -24.223933,19.95212 -24.92553,35.75208 -0.842382,18.97042 11.66913,36.056 30.03151,41.0107 5.25106,1.41689 11.669785,1.7204 17.024345,0.80499 z M 80.500205,163.82389 c -1.55393,-0.32842 -3.372461,-1.49399 -4.265531,-2.84335 -1.322636,-2.27485 -0.436753,-15.17838 -0.458219,-21.35715 l -0.0709,-20.40793 0.62021,-1.17506 c 1.32891,-2.51778 3.93682,-3.6101 8.01345,-3.3564 3.21493,0.20008 5.13529,1.36062 6.2266,3.76297 0.45407,0.99956 0.48379,2.25349 0.48925,20.64511 0.003,11.97286 -0.0946,19.9311 -0.25267,20.48218 -0.41973,1.46349 -1.52504,2.81028 -2.93719,3.57887 -1.1044,0.60109 -1.72227,0.73561 -3.75933,0.81846 -1.34074,0.0545 -2.9633,-0.0119 -3.6057,-0.1477 z m 6.54221,-2.87002 c 1.71671,-1.2224 1.63723,-0.17388 1.63723,-21.59895 0,-21.44152 0.0815,-20.37408 -1.64965,-21.60883 -0.77495,-0.55273 -1.15466,-0.61617 -3.68797,-0.61617 -3.06997,0 -3.63003,0.21112 -4.83249,1.82169 -0.53873,0.72156 -0.54577,0.96836 -0.56564,19.8274 -0.0114,10.83792 0.0851,19.49723 0.22309,20.02279 0.30248,1.15171 1.37433,2.31643 2.43293,2.64373 0.44203,0.13666 1.88084,0.21836 3.19737,0.18155 2.00501,-0.056 2.53193,-0.16536 3.24513,-0.67321 z m -5.03453,-2.61183 c -2.13196,-1.32217 -1.18556,-4.56733 1.33199,-4.56733 2.2697,0 3.28966,2.61998 1.65595,4.25369 -0.8883,0.8883 -1.89152,0.99361 -2.98794,0.31364 z m -1.21282,-20.75983 c -0.48608,-0.48607 -0.37779,-1.4837 0.19427,-1.78986 0.84018,-0.44965 4.40512,-0.34628 4.89328,0.14189 0.48756,0.48755 0.514,0.75841 0.14189,1.4537 -0.23881,0.44622 -0.57096,0.51177 -2.59292,0.51177 -1.45091,0 -2.43788,-0.11885 -2.63652,-0.3175 z m 0.14552,-7.64119 c -0.53151,-0.30958 -0.6134,-1.3101 -0.14552,-1.77797 0.19772,-0.19773 1.17592,-0.3175 2.59291,-0.3175 2.31962,0 2.91042,0.21725 2.91042,1.07024 0,0.92328 -0.87312,1.31139 -2.93125,1.30296 -1.07995,-0.004 -2.1719,-0.1294 -2.42656,-0.27773 z m -0.14552,-7.96922 c -0.48608,-0.48608 -0.37779,-1.48371 0.19427,-1.78986 0.28147,-0.15064 1.39411,-0.27389 2.47253,-0.27389 1.62607,0 2.04267,0.0905 2.44063,0.53024 0.39649,0.43812 0.42759,0.64496 0.17897,1.19062 -0.28772,0.63148 -0.40306,0.66039 -2.6349,0.66039 -1.46256,0 -2.45255,-0.11855 -2.6515,-0.3175 z m 17.864,41.83124 c -1.46052,-0.34156 -2.38637,-0.88455 -3.31852,-1.9462 -1.67029,-1.90236 -1.65818,-1.72415 -1.57592,-23.19332 0.0744,-19.40631 0.0747,-19.41753 0.65412,-20.50032 0.72532,-1.35547 2.11024,-2.58841 3.43248,-3.05579 0.6236,-0.22043 2.13696,-0.35657 3.925295,-0.35311 2.45925,0.005 3.07448,0.0933 3.96875,0.57108 1.72746,0.92296 3.30729,2.97189 3.30729,4.28933 0,0.28968 0.11907,0.60027 0.26459,0.69021 0.14552,0.0899 0.26458,-0.0268 0.26458,-0.25951 0,-0.65587 0.92518,-2.3133 1.75384,-3.14196 1.12567,-1.12567 1.9251,-1.44532 4.77424,-1.90895 3.3598,-0.54672 4.82101,-0.27381 6.5143,1.21669 2.06518,1.81784 1.57081,-0.65809 5.60135,28.05316 0.95105,6.77476 1.72919,12.82101 1.72919,13.4361 0,1.39555 -0.48684,2.58546 -1.55602,3.80318 -1.14089,1.29941 -2.29536,1.78146 -5.35378,2.23549 -2.36566,0.35118 -2.76721,0.3477 -4.085,-0.0354 -1.76706,-0.5137 -3.29677,-1.92694 -3.90726,-3.60976 -0.23142,-0.63794 -1.55708,-9.31566 -2.9459,-19.28384 -1.38883,-9.96818 -2.55253,-18.24302 -2.58601,-18.38854 -0.0335,-0.14552 -0.12275,8.12932 -0.19835,18.38854 -0.13617,18.4764 -0.14289,18.66315 -0.70856,19.71146 -0.67726,1.2551 -1.7263,2.27665 -3.00079,2.92214 -1.0559,0.53478 -5.27209,0.75263 -6.953915,0.35931 z m 6.392425,-2.82058 c 0.3636,-0.27146 0.90657,-0.82237 1.2066,-1.22423 0.53952,-0.72263 0.54552,-0.94678 0.54552,-20.40331 0,-19.45653 -0.006,-19.68068 -0.54552,-20.40331 -1.1955,-1.60124 -1.76984,-1.82169 -4.74615,-1.82169 -2.976235,0 -3.550475,0.22039 -4.746155,1.82153 -0.5375,0.71976 -0.54659,1.01041 -0.61843,19.77399 -0.0468,12.22073 0.0228,19.39893 0.19422,20.03555 0.33041,1.22705 1.53321,2.41723 2.70162,2.67326 1.657015,0.36309 5.281935,0.0905 6.008295,-0.45179 z m -5.279695,-2.95406 c -0.57259,-0.57259 -0.7734,-1.02441 -0.7734,-1.74015 0,-2.20085 2.779045,-3.3665 4.329545,-1.816 1.5505,1.5505 0.38485,4.32955 -1.816,4.32955 -0.71573,0 -1.16756,-0.20082 -1.740145,-0.7734 z m -0.66041,-20.33118 c -0.51702,-0.35402 -0.60767,-1.05192 -0.21032,-1.61922 0.3454,-0.49313 0.65217,-0.55954 2.584875,-0.55954 1.85841,0 2.26615,0.0809 2.67281,0.53024 0.39649,0.43813 0.42758,0.64497 0.17897,1.19063 -0.28776,0.63157 -0.40216,0.6602 -2.62167,0.65633 -1.27643,-0.002 -2.448525,-0.0915 -2.604665,-0.19844 z m 0.2147,-7.64666 c -0.59792,-0.24089 -0.90112,-1.09877 -0.59228,-1.67585 0.25265,-0.47207 0.55399,-0.52916 2.793115,-0.52916 2.41939,0 2.52076,0.0238 2.8108,0.66038 0.24861,0.54566 0.21752,0.7525 -0.17897,1.19062 -0.40383,0.44623 -0.79828,0.52694 -2.48938,0.50936 -1.10523,-0.0115 -2.159715,-0.0814 -2.343285,-0.15535 z m -0.57563,-8.35658 c -0.15258,-0.39341 -0.11662,-0.77478 0.10603,-1.12448 0.28606,-0.44927 0.67422,-0.5406 2.570995,-0.60489 1.96848,-0.0667 2.29215,-0.0115 2.7226,0.4641 0.40481,0.44731 0.43697,0.65298 0.18764,1.2002 -0.29026,0.63705 -0.39023,0.66039 -2.82864,0.66039 -2.376555,0 -2.541545,-0.0356 -2.758625,-0.59532 z m 24.440885,39.63237 c 2.09251,-0.33965 2.46905,-0.48808 3.26994,-1.28896 0.67844,-0.67845 0.93641,-1.19497 1.0301,-2.06254 0.0739,-0.68421 -0.69962,-6.99891 -1.8919,-15.44493 -1.10929,-7.85812 -2.2557,-16.07344 -2.54756,-18.25625 -0.66093,-4.94298 -1.11352,-6.04822 -2.77826,-6.78461 -1.15564,-0.5112 -1.3068,-0.51673 -3.71445,-0.13581 -2.93506,0.46435 -3.67307,0.87207 -4.35046,2.4034 l -0.49848,1.1269 1.69059,12.01381 c 0.92982,6.60759 2.1401,15.21426 2.68952,19.12592 1.09261,7.77913 1.2797,8.35033 3.02162,9.2255 1.11136,0.55836 1.11663,0.55846 4.07934,0.0776 z m -2.85535,-3.43796 c -1.01638,-0.94195 -0.98372,-2.54784 0.0733,-3.60486 1.75816,-1.75816 4.66643,-0.0799 4.12594,2.3809 -0.3941,1.79437 -2.82061,2.50163 -4.19924,1.22396 z m -3.58388,-20.08888 c -0.49538,-0.5969 -0.15498,-1.71293 0.57271,-1.87772 0.32521,-0.0736 1.35894,-0.25122 2.29719,-0.39462 1.46364,-0.22369 1.77528,-0.19793 2.19446,0.18142 0.64701,0.58553 0.49264,1.44914 -0.32849,1.83775 -0.3638,0.17218 -1.49938,0.39455 -2.52351,0.49415 -1.53408,0.14921 -1.92376,0.10676 -2.21236,-0.24098 z m -1.01882,-7.60644 c -0.1819,-0.18518 -0.33073,-0.59596 -0.33073,-0.91284 0,-0.84258 0.4403,-1.081 2.61235,-1.41458 2.18502,-0.33558 2.8429,-0.22599 3.07732,0.5126 0.24808,0.78163 -0.29478,1.5071 -1.25073,1.67147 -2.45456,0.42207 -3.7887,0.46862 -4.10821,0.14335 z m -0.92604,-7.65102 c -0.54081,-0.32593 -0.61365,-1.38586 -0.12322,-1.79289 0.31464,-0.26113 3.18838,-0.83454 4.20536,-0.83912 0.24427,-10e-4 0.63123,0.1851 0.8599,0.41378 0.92901,0.92901 0.2345,1.81944 -1.62164,2.07911 -0.69843,0.0977 -1.62707,0.23177 -2.06363,0.29792 -0.43656,0.0661 -1.00211,-0.005 -1.25677,-0.1588 z"
       id="path826"
       inkscape:connector-curvature="0"
       sodipodi:nodetypes="sssssccssscssssssccccsccccsccccscscccccccsscccccscccssccscsccsscccccccscssccssccccscscsccccscscsccccsssccssccccccscsccccccssccccscccccsccccsscsccccccccscsccccccccc" />
  </g>
</svg>
